<svg width="378" height="523" viewBox="0 0 378 523" fill="none" xmlns="http://www.w3.org/2000/svg">
<rect x="0.5" y="0.5" width="377" height="522" fill="white"/>
<rect x="358" y="501" width="340" height="482" transform="rotate(180 358 501)" stroke="black"/>
<rect x="254" y="386" width="132" height="233" transform="rotate(180 254 386)" fill="white" stroke="black"/>
<rect x="254" y="163" width="132" height="10" transform="rotate(180 254 163)" fill="white" stroke="black"/>
<rect x="254" y="386" width="132" height="11" transform="rotate(180 254 386)" fill="white" stroke="black"/>
<rect x="254" y="375" width="54" height="68" transform="rotate(180 254 375)" fill="white" stroke="black"/>
<rect x="200" y="375" width="78" height="68" transform="rotate(180 200 375)" fill="white" stroke="black"/>
<rect x="87" y="287" width="69" height="154" transform="rotate(180 87 287)" fill="white" stroke="black"/>
<rect x="358" y="501" width="77" height="88" transform="rotate(180 358 501)" fill="white" stroke="black"/>
<mask id="path-10-inside-1_231_10" fill="white">
<path d="M358.5 331.5H288.5V233.5H358.5V331.5Z"/>
</mask>
<path d="M358.5 331.5H288.5V233.5H358.5V331.5Z" fill="white"/>
<path d="M358.5 331.5V332.5H359.5V331.5H358.5ZM288.5 331.5H287.5V332.5H288.5V331.5ZM358.5 330.5H288.5V332.5H358.5V330.5ZM289.5 331.5V233.5H287.5V331.5H289.5ZM357.5 233.5V331.5H359.5V233.5H357.5Z" fill="black" mask="url(#path-10-inside-1_231_10)"/>
<rect x="234" y="501" width="102" height="69" transform="rotate(180 234 501)" fill="white" stroke="black"/>
<rect x="112" y="501" width="94" height="88" transform="rotate(180 112 501)" fill="white" stroke="black"/>
<rect x="87" y="366" width="69" height="79" transform="rotate(180 87 366)" fill="white" stroke="black"/>
<rect x="76" y="133" width="58" height="26" transform="rotate(180 76 133)" fill="white" stroke="black"/>
<text transform="translate(38 115)" fill="black" xml:space="preserve" style="white-space: pre" font-family="Inter" font-size="8" letter-spacing="0em"><tspan x="4.87109" y="7.90909">AHU</tspan></text>
<g style="mix-blend-mode:darken">
<rect x="112" y="501" width="69" height="20" transform="rotate(-90 112 501)" fill="white"/>
<rect x="112" y="501" width="69" height="20" transform="rotate(-90 112 501)" stroke="black"/>
</g>
<path d="M128.982 459.806C128.982 459.523 128.801 459.28 128.554 459.129C128.51 459.111 128.488 459.092 128.44 459.074C128.304 459.018 128.145 459 128.013 459H115.991C115.449 459 115 459.357 115 459.828V461.917H120.029L119.509 461.484C119.373 461.37 119.395 461.2 119.509 461.087L119.848 460.803C119.915 460.748 119.985 460.73 120.073 460.73C120.162 460.73 120.254 460.748 120.32 460.803L121.989 462.219C122.055 462.274 122.077 462.333 122.077 462.407C122.077 462.481 122.033 462.558 121.989 462.613L120.32 464.026C120.184 464.139 119.981 464.139 119.845 464.026L119.506 463.742C119.369 463.629 119.369 463.459 119.506 463.345L120.047 462.911H115.022V475.172C115.022 475.625 115.449 476 115.991 476H128.009C128.551 476 129 475.643 129 475.172L128.982 459.806ZM124.807 464.253C125.485 464.253 126.049 464.724 126.049 465.29C126.049 465.857 125.485 466.306 124.807 466.306C124.129 466.306 123.592 465.854 123.592 465.29C123.592 464.727 124.107 464.253 124.807 464.253ZM120.482 471.427C120.213 471.692 120.033 471.784 119.672 471.765L116.942 471.728C116.603 471.71 116.334 471.427 116.356 471.184C116.378 470.845 116.651 470.657 117.034 470.657L119.535 470.639L120.121 469.977L121.182 470.694L120.482 471.427ZM127.018 469.713L124.785 469.3C124.627 469.263 124.516 469.168 124.446 469.054L123.927 468.094C123.883 468.131 122.733 469.713 122.733 469.713L124.041 470.541C124.446 470.824 124.491 471.085 124.336 471.445L122.984 474.046C122.869 474.292 122.534 474.461 122.195 474.366C121.856 474.27 121.632 473.95 121.79 473.67L122.962 471.316L121.204 470.205C120.729 469.959 120.552 469.488 120.887 469.017L122.464 466.869L121.315 466.531L119.241 467.398C118.972 467.531 118.633 467.417 118.496 467.211C118.382 467.023 118.474 466.758 118.699 466.644L120.865 465.703C120.98 465.647 121.09 465.607 121.204 465.607C121.318 465.607 121.429 465.626 121.521 465.644L123.348 466.134C123.415 466.152 123.463 466.17 123.507 466.207L124.498 466.829C124.634 466.903 124.678 467.035 124.723 467.131L125.22 468.429L127.228 468.863C127.497 468.919 127.633 469.128 127.633 469.334C127.604 469.525 127.291 469.771 127.018 469.713Z" fill="black"/>
<g style="mix-blend-mode:darken">
<rect x="234" y="501" width="69" height="20" transform="rotate(-90 234 501)" fill="white"/>
<rect x="234" y="501" width="69" height="20" transform="rotate(-90 234 501)" stroke="black"/>
</g>
<path d="M250.982 459.806C250.982 459.523 250.801 459.28 250.554 459.129C250.51 459.111 250.488 459.092 250.44 459.074C250.304 459.018 250.145 459 250.013 459H237.991C237.449 459 237 459.357 237 459.828V461.917H242.029L241.509 461.484C241.373 461.37 241.395 461.2 241.509 461.087L241.848 460.803C241.915 460.748 241.985 460.73 242.073 460.73C242.162 460.73 242.254 460.748 242.32 460.803L243.989 462.219C244.055 462.274 244.077 462.333 244.077 462.407C244.077 462.481 244.033 462.558 243.989 462.613L242.32 464.026C242.184 464.139 241.981 464.139 241.845 464.026L241.506 463.742C241.369 463.629 241.369 463.459 241.506 463.345L242.047 462.911H237.022V475.172C237.022 475.625 237.449 476 237.991 476H250.009C250.551 476 251 475.643 251 475.172L250.982 459.806ZM246.807 464.253C247.485 464.253 248.049 464.724 248.049 465.29C248.049 465.857 247.485 466.306 246.807 466.306C246.129 466.306 245.592 465.854 245.592 465.29C245.592 464.727 246.107 464.253 246.807 464.253ZM242.482 471.427C242.213 471.692 242.033 471.784 241.672 471.765L238.942 471.728C238.603 471.71 238.334 471.427 238.356 471.184C238.378 470.845 238.651 470.657 239.034 470.657L241.535 470.639L242.121 469.977L243.182 470.694L242.482 471.427ZM249.018 469.713L246.785 469.3C246.627 469.263 246.516 469.168 246.446 469.054L245.927 468.094C245.883 468.131 244.733 469.713 244.733 469.713L246.041 470.541C246.446 470.824 246.491 471.085 246.336 471.445L244.984 474.046C244.869 474.292 244.534 474.461 244.195 474.366C243.856 474.27 243.632 473.95 243.79 473.67L244.962 471.316L243.204 470.205C242.729 469.959 242.552 469.488 242.887 469.017L244.464 466.869L243.315 466.531L241.241 467.398C240.972 467.531 240.633 467.417 240.496 467.211C240.382 467.023 240.474 466.758 240.699 466.644L242.865 465.703C242.98 465.647 243.09 465.607 243.204 465.607C243.318 465.607 243.429 465.626 243.521 465.644L245.348 466.134C245.415 466.152 245.463 466.17 245.507 466.207L246.498 466.829C246.634 466.903 246.678 467.035 246.723 467.131L247.22 468.429L249.228 468.863C249.497 468.919 249.633 469.128 249.633 469.334C249.604 469.525 249.291 469.771 249.018 469.713Z" fill="black"/>
<g style="mix-blend-mode:darken">
<rect x="87" y="413" width="69" height="20" transform="rotate(180 87 413)" fill="white"/>
<rect x="87" y="413" width="69" height="20" transform="rotate(180 87 413)" stroke="black"/>
</g>
<path d="M60.4816 395.306C60.4816 395.023 60.3011 394.78 60.0542 394.629C60.01 394.611 59.9879 394.592 59.94 394.574C59.8037 394.518 59.6453 394.5 59.5126 394.5H47.4911C46.9495 394.5 46.5 394.857 46.5 395.328V397.417H51.5289L51.0095 396.984C50.8732 396.87 50.8953 396.7 51.0095 396.587L51.3484 396.303C51.4147 396.248 51.4847 396.23 51.5732 396.23C51.6616 396.23 51.7537 396.248 51.82 396.303L53.4889 397.719C53.5553 397.774 53.5773 397.833 53.5773 397.907C53.5773 397.981 53.5332 398.058 53.4889 398.113L51.82 399.526C51.6837 399.639 51.4811 399.639 51.3447 399.526L51.0058 399.242C50.8695 399.129 50.8695 398.959 51.0058 398.845L51.5474 398.411H46.5221V410.672C46.5221 411.125 46.9495 411.5 47.4911 411.5H59.5089C60.0505 411.5 60.5 411.143 60.5 410.672L60.4816 395.306ZM56.3074 399.753C56.9852 399.753 57.5489 400.224 57.5489 400.79C57.5489 401.357 56.9852 401.806 56.3074 401.806C55.6295 401.806 55.0916 401.354 55.0916 400.79C55.0916 400.227 55.6074 399.753 56.3074 399.753ZM51.9821 406.927C51.7132 407.192 51.5326 407.284 51.1716 407.265L48.4416 407.228C48.1026 407.21 47.8337 406.927 47.8558 406.684C47.8779 406.345 48.1505 406.157 48.5337 406.157L51.0353 406.139L51.6211 405.477L52.6821 406.194L51.9821 406.927ZM58.5179 405.213L56.2853 404.8C56.1268 404.763 56.0163 404.668 55.9464 404.554L55.4268 403.594C55.3826 403.631 54.2332 405.213 54.2332 405.213L55.5411 406.041C55.9464 406.324 55.9905 406.585 55.8358 406.945L54.4837 409.546C54.3695 409.792 54.0342 409.961 53.6953 409.866C53.3564 409.77 53.1316 409.45 53.29 409.17L54.4616 406.816L52.7042 405.705C52.229 405.459 52.0521 404.988 52.3874 404.517L53.9642 402.369L52.8148 402.031L50.7406 402.898C50.4716 403.031 50.1327 402.917 49.9964 402.711C49.8821 402.523 49.9742 402.258 50.199 402.144L52.3653 401.203C52.4795 401.147 52.59 401.107 52.7042 401.107C52.8185 401.107 52.929 401.126 53.0211 401.144L54.8485 401.634C54.9148 401.652 54.9627 401.67 55.0069 401.707L55.9979 402.329C56.1342 402.403 56.1784 402.535 56.2227 402.631L56.72 403.929L58.7279 404.363C58.9969 404.419 59.1332 404.628 59.1332 404.834C59.1037 405.025 58.7905 405.271 58.5179 405.213Z" fill="black"/>
<g style="mix-blend-mode:darken">
<rect x="358" y="413" width="69" height="20" transform="rotate(180 358 413)" fill="white"/>
<rect x="358" y="413" width="69" height="20" transform="rotate(180 358 413)" stroke="black"/>
</g>
<path d="M330.482 395.306C330.482 395.023 330.301 394.78 330.054 394.629C330.01 394.611 329.988 394.592 329.94 394.574C329.804 394.518 329.645 394.5 329.513 394.5H317.491C316.949 394.5 316.5 394.857 316.5 395.328V397.417H321.529L321.009 396.984C320.873 396.87 320.895 396.7 321.009 396.587L321.348 396.303C321.415 396.248 321.485 396.23 321.573 396.23C321.662 396.23 321.754 396.248 321.82 396.303L323.489 397.719C323.555 397.774 323.577 397.833 323.577 397.907C323.577 397.981 323.533 398.058 323.489 398.113L321.82 399.526C321.684 399.639 321.481 399.639 321.345 399.526L321.006 399.242C320.869 399.129 320.869 398.959 321.006 398.845L321.547 398.411H316.522V410.672C316.522 411.125 316.949 411.5 317.491 411.5H329.509C330.051 411.5 330.5 411.143 330.5 410.672L330.482 395.306ZM326.307 399.753C326.985 399.753 327.549 400.224 327.549 400.79C327.549 401.357 326.985 401.806 326.307 401.806C325.629 401.806 325.092 401.354 325.092 400.79C325.092 400.227 325.607 399.753 326.307 399.753ZM321.982 406.927C321.713 407.192 321.533 407.284 321.172 407.265L318.442 407.228C318.103 407.21 317.834 406.927 317.856 406.684C317.878 406.345 318.151 406.157 318.534 406.157L321.035 406.139L321.621 405.477L322.682 406.194L321.982 406.927ZM328.518 405.213L326.285 404.8C326.127 404.763 326.016 404.668 325.946 404.554L325.427 403.594C325.383 403.631 324.233 405.213 324.233 405.213L325.541 406.041C325.946 406.324 325.991 406.585 325.836 406.945L324.484 409.546C324.369 409.792 324.034 409.961 323.695 409.866C323.356 409.77 323.132 409.45 323.29 409.17L324.462 406.816L322.704 405.705C322.229 405.459 322.052 404.988 322.387 404.517L323.964 402.369L322.815 402.031L320.741 402.898C320.472 403.031 320.133 402.917 319.996 402.711C319.882 402.523 319.974 402.258 320.199 402.144L322.365 401.203C322.48 401.147 322.59 401.107 322.704 401.107C322.818 401.107 322.929 401.126 323.021 401.144L324.848 401.634C324.915 401.652 324.963 401.67 325.007 401.707L325.998 402.329C326.134 402.403 326.178 402.535 326.223 402.631L326.72 403.929L328.728 404.363C328.997 404.419 329.133 404.628 329.133 404.834C329.104 405.025 328.791 405.271 328.518 405.213Z" fill="black"/>
<g style="mix-blend-mode:darken">
<rect x="358" y="239" width="69" height="20" transform="rotate(180 358 239)" fill="white"/>
<rect x="358" y="239" width="69" height="20" transform="rotate(180 358 239)" stroke="black"/>
</g>
<path d="M330.482 221.306C330.482 221.023 330.301 220.78 330.054 220.629C330.01 220.611 329.988 220.592 329.94 220.574C329.804 220.518 329.645 220.5 329.513 220.5H317.491C316.949 220.5 316.5 220.857 316.5 221.328V223.417H321.529L321.009 222.984C320.873 222.87 320.895 222.7 321.009 222.587L321.348 222.303C321.415 222.248 321.485 222.23 321.573 222.23C321.662 222.23 321.754 222.248 321.82 222.303L323.489 223.719C323.555 223.774 323.577 223.833 323.577 223.907C323.577 223.981 323.533 224.058 323.489 224.113L321.82 225.526C321.684 225.639 321.481 225.639 321.345 225.526L321.006 225.242C320.869 225.129 320.869 224.959 321.006 224.845L321.547 224.411H316.522V236.672C316.522 237.125 316.949 237.5 317.491 237.5H329.509C330.051 237.5 330.5 237.143 330.5 236.672L330.482 221.306ZM326.307 225.753C326.985 225.753 327.549 226.224 327.549 226.79C327.549 227.357 326.985 227.806 326.307 227.806C325.629 227.806 325.092 227.354 325.092 226.79C325.092 226.227 325.607 225.753 326.307 225.753ZM321.982 232.927C321.713 233.192 321.533 233.284 321.172 233.265L318.442 233.228C318.103 233.21 317.834 232.927 317.856 232.684C317.878 232.345 318.151 232.157 318.534 232.157L321.035 232.139L321.621 231.477L322.682 232.194L321.982 232.927ZM328.518 231.213L326.285 230.8C326.127 230.763 326.016 230.668 325.946 230.554L325.427 229.594C325.383 229.631 324.233 231.213 324.233 231.213L325.541 232.041C325.946 232.324 325.991 232.585 325.836 232.945L324.484 235.546C324.369 235.792 324.034 235.961 323.695 235.866C323.356 235.77 323.132 235.45 323.29 235.17L324.462 232.816L322.704 231.705C322.229 231.459 322.052 230.988 322.387 230.517L323.964 228.369L322.815 228.031L320.741 228.898C320.472 229.031 320.133 228.917 319.996 228.711C319.882 228.523 319.974 228.258 320.199 228.144L322.365 227.203C322.48 227.147 322.59 227.107 322.704 227.107C322.818 227.107 322.929 227.126 323.021 227.144L324.848 227.634C324.915 227.652 324.963 227.67 325.007 227.707L325.998 228.329C326.134 228.403 326.178 228.535 326.223 228.631L326.72 229.929L328.728 230.363C328.997 230.419 329.133 230.628 329.133 230.834C329.104 231.025 328.791 231.271 328.518 231.213Z" fill="black"/>
<path d="M225.207 392.793C224.817 392.402 224.183 392.402 223.793 392.793L217.429 399.157C217.038 399.547 217.038 400.181 217.429 400.571C217.819 400.962 218.453 400.962 218.843 400.571L224.5 394.914L230.157 400.571C230.547 400.962 231.181 400.962 231.571 400.571C231.962 400.181 231.962 399.547 231.571 399.157L225.207 392.793ZM225.5 413.5L225.5 393.5L223.5 393.5L223.5 413.5L225.5 413.5Z" fill="black"/>
<text transform="translate(129.5 401.5)" fill="black" xml:space="preserve" style="white-space: pre" font-family="Inter" font-size="8" letter-spacing="0em"><tspan x="8.39062" y="11.4091">Cooper Lift Entrance</tspan></text>
<path d="M226.793 140.207C227.183 140.598 227.817 140.598 228.207 140.207L234.571 133.843C234.962 133.453 234.962 132.819 234.571 132.429C234.181 132.038 233.547 132.038 233.157 132.429L227.5 138.086L221.843 132.429C221.453 132.038 220.819 132.038 220.429 132.429C220.038 132.819 220.038 133.453 220.429 133.843L226.793 140.207ZM226.5 119.5V139.5H228.5V119.5H226.5Z" fill="black"/>
<text transform="translate(125.5 119.5)" fill="black" xml:space="preserve" style="white-space: pre" font-family="Inter" font-size="8" letter-spacing="0em"><tspan x="2.29688" y="11.4091">Bhagubhai Lift Entrance</tspan></text>
<mask id="path-31-inside-2_231_10" fill="white">
<path d="M288.5 107.5L17.5 107.5V18.5L288.5 18.5V107.5Z"/>
</mask>
<path d="M288.5 107.5L17.5 107.5V18.5L288.5 18.5V107.5Z" fill="white"/>
<path d="M17.5 107.5H16.5V108.5H17.5V107.5ZM17.5 18.5V17.5H16.5V18.5H17.5ZM288.5 106.5L17.5 106.5V108.5L288.5 108.5V106.5ZM18.5 107.5V18.5H16.5V107.5H18.5ZM17.5 19.5L288.5 19.5V17.5L17.5 17.5V19.5Z" fill="black" mask="url(#path-31-inside-2_231_10)"/>
<g style="mix-blend-mode:darken">
<mask id="path-33-inside-3_231_10" fill="white">
<path d="M358.5 219.5L288.5 219.5V106.5L358.5 106.5V219.5Z"/>
</mask>
<path d="M358.5 219.5L288.5 219.5V106.5L358.5 106.5V219.5Z" fill="white"/>
<path d="M358.5 219.5V220.5H359.5V219.5H358.5ZM288.5 219.5H287.5V220.5H288.5V219.5ZM358.5 218.5L288.5 218.5V220.5L358.5 220.5V218.5ZM289.5 219.5V106.5H287.5V219.5H289.5ZM357.5 106.5V219.5H359.5V106.5H357.5Z" fill="black" mask="url(#path-33-inside-3_231_10)"/>
</g>
<text transform="translate(144 53)" fill="black" xml:space="preserve" style="white-space: pre" font-family="Inter" font-size="8" letter-spacing="0em"><tspan x="6.42188" y="7.90909">Fire Fighting output &#10;</tspan><tspan x="17.7188" y="17.9091">at ceiling level</tspan></text>
<g style="mix-blend-mode:darken">
<rect x="18" y="393" width="27" height="69" transform="rotate(-90 18 393)" fill="white"/>
<rect x="18" y="393" width="27" height="69" transform="rotate(-90 18 393)" stroke="black"/>
</g>
<g style="mix-blend-mode:darken">
<rect x="18" y="393" width="27" height="69" transform="rotate(-90 18 393)" fill="white"/>
<rect x="18" y="393" width="27" height="69" transform="rotate(-90 18 393)" stroke="black"/>
</g>
<path fill-rule="evenodd" clip-rule="evenodd" d="M46.9407 375.676V388.966C46.9402 389.223 46.8486 389.47 46.686 389.652C46.5233 389.834 46.3027 389.937 46.0724 389.938C45.8419 389.937 45.6212 389.834 45.4582 389.652C45.2952 389.47 45.2033 389.223 45.2023 388.966V381.151H44.8604V388.966C44.8599 389.223 44.7683 389.47 44.6056 389.652C44.443 389.834 44.2224 389.937 43.9921 389.938C43.7616 389.937 43.5409 389.834 43.3779 389.652C43.2149 389.47 43.1229 389.223 43.122 388.966V375.676H42.8194V380.559C42.8185 380.755 42.7485 380.942 42.6248 381.079C42.5011 381.217 42.3336 381.295 42.1588 381.295C41.9844 381.294 41.8174 381.217 41.694 381.079C41.5707 380.941 41.5009 380.754 41.5 380.559V375.308C41.5 374.454 41.7578 373.853 42.2251 373.459C43.0307 372.781 47.0087 372.781 47.8144 373.459C48.2834 373.859 48.543 374.46 48.5412 375.308V380.559C48.5403 380.754 48.4706 380.941 48.3472 381.079C48.2239 381.217 48.0568 381.294 47.8824 381.295C47.7089 381.293 47.5432 381.214 47.421 381.077C47.2988 380.939 47.2299 380.753 47.2289 380.559V375.676H46.9407ZM51.0798 369.062C51.0798 368.913 51.1328 368.77 51.2272 368.665C51.3215 368.559 51.4495 368.5 51.5829 368.5C51.7163 368.5 51.8443 368.559 51.9386 368.665C52.033 368.77 52.086 368.913 52.086 369.062V389.938C52.086 390.087 52.033 390.23 51.9386 390.335C51.8443 390.441 51.7163 390.5 51.5829 390.5C51.4495 390.5 51.3215 390.441 51.2272 390.335C51.1328 390.23 51.0798 390.087 51.0798 389.938V369.062ZM62.0883 375.108C62.0991 375.138 62.108 375.168 62.117 375.2L63.4758 380.601C63.4993 380.697 63.5058 380.797 63.4948 380.895C63.4838 380.993 63.4556 381.088 63.4118 381.174C63.368 381.26 63.3094 381.336 63.2395 381.397C63.1695 381.457 63.0895 381.502 63.0041 381.529C62.9186 381.555 62.8294 381.562 62.7414 381.55C62.6535 381.537 62.5685 381.506 62.4915 381.457C62.4144 381.408 62.3468 381.343 62.2923 381.264C62.2379 381.186 62.1978 381.097 62.1743 381.001L60.8351 375.67H60.8154H60.5308V376.008L62.3211 383.958H60.5308V388.96C60.5303 389.217 60.4387 389.464 60.2761 389.646C60.1134 389.828 59.8928 389.931 59.6625 389.932C59.4323 389.93 59.212 389.827 59.0495 389.645C58.8869 389.463 58.7952 389.217 58.7942 388.96V383.958H58.4505V388.96C58.4495 389.217 58.3576 389.464 58.1946 389.646C58.0316 389.828 57.8109 389.931 57.5804 389.932C57.3519 389.929 57.1335 389.827 56.9722 389.646C56.8108 389.465 56.7193 389.221 56.7175 388.966V383.964H54.8162L56.7175 375.804V375.676H56.4131H56.3881L55.0418 381.001C54.9943 381.194 54.8802 381.358 54.7246 381.457C54.5689 381.556 54.3846 381.582 54.212 381.529C54.0394 381.475 53.8927 381.348 53.8042 381.174C53.7158 381 53.6927 380.794 53.7402 380.601L55.0704 375.308H55.0561C55.2602 374.458 55.4303 373.853 55.8993 373.459C56.7049 372.781 60.597 372.781 61.4045 373.459C61.8377 373.819 61.9093 374.308 62.0883 375.108ZM58.6098 369.062C58.9207 369.062 59.2246 369.165 59.4831 369.358C59.7416 369.551 59.9431 369.826 60.062 370.146C60.181 370.467 60.2121 370.821 60.1515 371.161C60.0908 371.502 59.9411 371.815 59.7213 372.061C59.5015 372.306 59.2214 372.474 58.9165 372.541C58.6116 372.609 58.2955 372.574 58.0083 372.441C57.7211 372.308 57.4756 372.083 57.3028 371.794C57.1301 371.506 57.0379 371.166 57.0379 370.819C57.0379 370.353 57.2035 369.906 57.4983 369.577C57.7931 369.247 58.1929 369.062 58.6098 369.062ZM45.0197 369.062C45.3306 369.062 45.6345 369.165 45.893 369.358C46.1515 369.551 46.353 369.826 46.4719 370.146C46.5909 370.467 46.622 370.821 46.5614 371.161C46.5007 371.502 46.351 371.815 46.1312 372.061C45.9114 372.306 45.6313 372.474 45.3264 372.541C45.0215 372.609 44.7054 372.574 44.4182 372.441C44.131 372.308 43.8855 372.083 43.7127 371.794C43.54 371.506 43.4478 371.166 43.4478 370.819C43.4478 370.353 43.6134 369.906 43.9082 369.577C44.203 369.247 44.6028 369.062 45.0197 369.062Z" fill="black"/>
<g style="mix-blend-mode:darken">
<rect x="289" y="393" width="27" height="69" transform="rotate(-90 289 393)" fill="white"/>
<rect x="289" y="393" width="27" height="69" transform="rotate(-90 289 393)" stroke="black"/>
</g>
<g style="mix-blend-mode:darken">
<rect x="289" y="393" width="27" height="69" transform="rotate(-90 289 393)" fill="white"/>
<rect x="289" y="393" width="27" height="69" transform="rotate(-90 289 393)" stroke="black"/>
</g>
<path fill-rule="evenodd" clip-rule="evenodd" d="M317.941 375.676V388.966C317.94 389.223 317.849 389.47 317.686 389.652C317.523 389.834 317.303 389.937 317.072 389.938C316.842 389.937 316.621 389.834 316.458 389.652C316.295 389.47 316.203 389.223 316.202 388.966V381.151H315.86V388.966C315.86 389.223 315.768 389.47 315.606 389.652C315.443 389.834 315.222 389.937 314.992 389.938C314.762 389.937 314.541 389.834 314.378 389.652C314.215 389.47 314.123 389.223 314.122 388.966V375.676H313.819V380.559C313.819 380.755 313.749 380.942 313.625 381.079C313.501 381.217 313.334 381.295 313.159 381.295C312.984 381.294 312.817 381.217 312.694 381.079C312.571 380.941 312.501 380.754 312.5 380.559V375.308C312.5 374.454 312.758 373.853 313.225 373.459C314.031 372.781 318.009 372.781 318.814 373.459C319.283 373.859 319.543 374.46 319.541 375.308V380.559C319.54 380.754 319.471 380.941 319.347 381.079C319.224 381.217 319.057 381.294 318.882 381.295C318.709 381.293 318.543 381.214 318.421 381.077C318.299 380.939 318.23 380.753 318.229 380.559V375.676H317.941ZM322.08 369.062C322.08 368.913 322.133 368.77 322.227 368.665C322.322 368.559 322.449 368.5 322.583 368.5C322.716 368.5 322.844 368.559 322.939 368.665C323.033 368.77 323.086 368.913 323.086 369.062V389.938C323.086 390.087 323.033 390.23 322.939 390.335C322.844 390.441 322.716 390.5 322.583 390.5C322.449 390.5 322.322 390.441 322.227 390.335C322.133 390.23 322.08 390.087 322.08 389.938V369.062ZM333.088 375.108C333.099 375.138 333.108 375.168 333.117 375.2L334.476 380.601C334.499 380.697 334.506 380.797 334.495 380.895C334.484 380.993 334.456 381.088 334.412 381.174C334.368 381.26 334.309 381.336 334.239 381.397C334.17 381.457 334.09 381.502 334.004 381.529C333.919 381.555 333.829 381.562 333.741 381.55C333.653 381.537 333.569 381.506 333.491 381.457C333.414 381.408 333.347 381.343 333.292 381.264C333.238 381.186 333.198 381.097 333.174 381.001L331.835 375.67H331.815H331.531V376.008L333.321 383.958H331.531V388.96C331.53 389.217 331.439 389.464 331.276 389.646C331.113 389.828 330.893 389.931 330.663 389.932C330.432 389.93 330.212 389.827 330.049 389.645C329.887 389.463 329.795 389.217 329.794 388.96V383.958H329.45V388.96C329.45 389.217 329.358 389.464 329.195 389.646C329.032 389.828 328.811 389.931 328.58 389.932C328.352 389.929 328.134 389.827 327.972 389.646C327.811 389.465 327.719 389.221 327.717 388.966V383.964H325.816L327.717 375.804V375.676H327.413H327.388L326.042 381.001C325.994 381.194 325.88 381.358 325.725 381.457C325.569 381.556 325.385 381.582 325.212 381.529C325.039 381.475 324.893 381.348 324.804 381.174C324.716 381 324.693 380.794 324.74 380.601L326.07 375.308H326.056C326.26 374.458 326.43 373.853 326.899 373.459C327.705 372.781 331.597 372.781 332.404 373.459C332.838 373.819 332.909 374.308 333.088 375.108ZM329.61 369.062C329.921 369.062 330.225 369.165 330.483 369.358C330.742 369.551 330.943 369.826 331.062 370.146C331.181 370.467 331.212 370.821 331.151 371.161C331.091 371.502 330.941 371.815 330.721 372.061C330.501 372.306 330.221 372.474 329.916 372.541C329.612 372.609 329.296 372.574 329.008 372.441C328.721 372.308 328.476 372.083 328.303 371.794C328.13 371.506 328.038 371.166 328.038 370.819C328.038 370.353 328.204 369.906 328.498 369.577C328.793 369.247 329.193 369.062 329.61 369.062ZM316.02 369.062C316.331 369.062 316.635 369.165 316.893 369.358C317.151 369.551 317.353 369.826 317.472 370.146C317.591 370.467 317.622 370.821 317.561 371.161C317.501 371.502 317.351 371.815 317.131 372.061C316.911 372.306 316.631 372.474 316.326 372.541C316.021 372.609 315.705 372.574 315.418 372.441C315.131 372.308 314.885 372.083 314.713 371.794C314.54 371.506 314.448 371.166 314.448 370.819C314.448 370.353 314.613 369.906 314.908 369.577C315.203 369.247 315.603 369.062 316.02 369.062Z" fill="black"/>
<g style="mix-blend-mode:darken">
<rect x="281" y="501" width="27" height="69" transform="rotate(-180 281 501)" fill="white"/>
<rect x="281" y="501" width="27" height="69" transform="rotate(-180 281 501)" stroke="black"/>
</g>
<path fill-rule="evenodd" clip-rule="evenodd" d="M261.941 462.676V475.966C261.94 476.223 261.849 476.47 261.686 476.652C261.523 476.834 261.303 476.937 261.072 476.938C260.842 476.937 260.621 476.834 260.458 476.652C260.295 476.47 260.203 476.223 260.202 475.966V468.151H259.86V475.966C259.86 476.223 259.768 476.47 259.606 476.652C259.443 476.834 259.222 476.937 258.992 476.938C258.762 476.937 258.541 476.834 258.378 476.652C258.215 476.47 258.123 476.223 258.122 475.966V462.676H257.819V467.559C257.819 467.755 257.749 467.942 257.625 468.079C257.501 468.217 257.334 468.295 257.159 468.295C256.984 468.294 256.817 468.217 256.694 468.079C256.571 467.941 256.501 467.754 256.5 467.559V462.308C256.5 461.454 256.758 460.853 257.225 460.459C258.031 459.781 262.009 459.781 262.814 460.459C263.283 460.859 263.543 461.46 263.541 462.308V467.559C263.54 467.754 263.471 467.941 263.347 468.079C263.224 468.217 263.057 468.294 262.882 468.295C262.709 468.293 262.543 468.214 262.421 468.077C262.299 467.939 262.23 467.753 262.229 467.559V462.676H261.941ZM266.08 456.062C266.08 455.913 266.133 455.77 266.227 455.665C266.322 455.559 266.449 455.5 266.583 455.5C266.716 455.5 266.844 455.559 266.939 455.665C267.033 455.77 267.086 455.913 267.086 456.062V476.938C267.086 477.087 267.033 477.23 266.939 477.335C266.844 477.441 266.716 477.5 266.583 477.5C266.449 477.5 266.322 477.441 266.227 477.335C266.133 477.23 266.08 477.087 266.08 476.938V456.062ZM277.088 462.108C277.099 462.138 277.108 462.168 277.117 462.2L278.476 467.601C278.499 467.697 278.506 467.797 278.495 467.895C278.484 467.993 278.456 468.088 278.412 468.174C278.368 468.26 278.309 468.336 278.239 468.397C278.17 468.457 278.09 468.502 278.004 468.529C277.919 468.555 277.829 468.562 277.741 468.55C277.653 468.537 277.569 468.506 277.491 468.457C277.414 468.408 277.347 468.343 277.292 468.264C277.238 468.186 277.198 468.097 277.174 468.001L275.835 462.67H275.815H275.531V463.008L277.321 470.958H275.531V475.96C275.53 476.217 275.439 476.464 275.276 476.646C275.113 476.828 274.893 476.931 274.663 476.932C274.432 476.93 274.212 476.827 274.049 476.645C273.887 476.463 273.795 476.217 273.794 475.96V470.958H273.45V475.96C273.45 476.217 273.358 476.464 273.195 476.646C273.032 476.828 272.811 476.931 272.58 476.932C272.352 476.929 272.134 476.827 271.972 476.646C271.811 476.465 271.719 476.221 271.717 475.966V470.964H269.816L271.717 462.804V462.676H271.413H271.388L270.042 468.001C269.994 468.194 269.88 468.358 269.725 468.457C269.569 468.556 269.385 468.582 269.212 468.529C269.039 468.475 268.893 468.348 268.804 468.174C268.716 468 268.693 467.794 268.74 467.601L270.07 462.308H270.056C270.26 461.458 270.43 460.853 270.899 460.459C271.705 459.781 275.597 459.781 276.404 460.459C276.838 460.819 276.909 461.308 277.088 462.108ZM273.61 456.062C273.921 456.062 274.225 456.165 274.483 456.358C274.742 456.551 274.943 456.826 275.062 457.146C275.181 457.467 275.212 457.821 275.151 458.161C275.091 458.502 274.941 458.815 274.721 459.061C274.501 459.306 274.221 459.474 273.916 459.541C273.612 459.609 273.296 459.574 273.008 459.441C272.721 459.308 272.476 459.083 272.303 458.794C272.13 458.506 272.038 458.166 272.038 457.819C272.038 457.353 272.204 456.906 272.498 456.577C272.793 456.247 273.193 456.062 273.61 456.062ZM260.02 456.062C260.331 456.062 260.635 456.165 260.893 456.358C261.151 456.551 261.353 456.826 261.472 457.146C261.591 457.467 261.622 457.821 261.561 458.161C261.501 458.502 261.351 458.815 261.131 459.061C260.911 459.306 260.631 459.474 260.326 459.541C260.021 459.609 259.705 459.574 259.418 459.441C259.131 459.308 258.885 459.083 258.713 458.794C258.54 458.506 258.448 458.166 258.448 457.819C258.448 457.353 258.613 456.906 258.908 456.577C259.203 456.247 259.603 456.062 260.02 456.062Z" fill="black"/>
<text transform="translate(282 414)" fill="black" xml:space="preserve" style="white-space: pre" font-family="Inter" font-size="8" letter-spacing="0em"><tspan x="0.285156" y="46.9091">Maintenaince Room</tspan></text>
<text transform="translate(277.5 250.5)" fill="black" xml:space="preserve" style="white-space: pre" font-family="Inter" font-size="8" letter-spacing="0em"><tspan x="33.6328" y="37.9091">Pantry</tspan></text>
<text transform="translate(154.5 152.5)" fill="black" xml:space="preserve" style="white-space: pre" font-family="Inter" font-size="8" letter-spacing="0em"><tspan x="28.9062" y="8.40909">Lift</tspan></text>
<text transform="translate(121.5 374.5)" fill="black" xml:space="preserve" style="white-space: pre" font-family="Inter" font-size="8" letter-spacing="0em"><tspan x="60.4062" y="8.90909">Lift</tspan></text>
<text transform="translate(148 457)" fill="black" xml:space="preserve" style="white-space: pre" font-family="Inter" font-size="8" letter-spacing="0em"><tspan x="6.23438" y="7.40909">Electrical Panel </tspan><tspan x="24.2148" y="17.4091">Room</tspan></text>
<text transform="translate(21 452)" fill="black" xml:space="preserve" style="white-space: pre" font-family="Inter" font-size="8" letter-spacing="0em"><tspan x="28.2383" y="7.90909">Services</tspan></text>
<text transform="translate(12.5 321.5)" fill="black" xml:space="preserve" style="white-space: pre" font-family="Inter" font-size="8" letter-spacing="0em"><tspan x="20.8203" y="7.90909">E.CR LG 1</tspan></text>
<text transform="translate(18 205)" fill="black" xml:space="preserve" style="white-space: pre" font-family="Inter" font-size="8" letter-spacing="0em"><tspan x="5.0625" y="7.90909">Mini Auditorium</tspan></text>
<text transform="translate(200 307)" fill="black" xml:space="preserve" style="white-space: pre" font-family="Inter" font-size="8" letter-spacing="0em"><tspan x="12.2109" y="31.9091">Faculty </tspan><tspan x="14.1094" y="41.9091">Dining</tspan></text>
<text transform="translate(128 336)" fill="black" xml:space="preserve" style="white-space: pre" font-family="Inter" font-size="8" letter-spacing="0em"><tspan x="7.83203" y="7.90909">Cafeteria(AC)</tspan></text>
<text transform="translate(117 214)" fill="black" xml:space="preserve" style="white-space: pre" font-family="Inter" font-size="8" letter-spacing="0em"><tspan x="54.207" y="7.90909">Cafeteria</tspan></text>
<path d="M344.707 349.707C345.098 349.317 345.098 348.683 344.707 348.293L338.343 341.929C337.953 341.538 337.319 341.538 336.929 341.929C336.538 342.319 336.538 342.953 336.929 343.343L342.586 349L336.929 354.657C336.538 355.047 336.538 355.681 336.929 356.071C337.319 356.462 337.953 356.462 338.343 356.071L344.707 349.707ZM324 350H344V348H324V350Z" fill="black"/>
<text fill="black" xml:space="preserve" style="white-space: pre" font-family="Inter" font-size="8" letter-spacing="0em"><tspan x="283.773" y="346.909"> Main </tspan><tspan x="273.484" y="356.909">Auditorium</tspan></text>
<text fill="black" xml:space="preserve" style="white-space: pre" font-family="Inter" font-size="24" letter-spacing="0em"><tspan x="138.621" y="252.727">Floor LG</tspan></text>
</svg>
