<svg width="374" height="519" viewBox="0 0 374 519" fill="none" xmlns="http://www.w3.org/2000/svg">
<rect x="374" y="519" width="374" height="519" transform="rotate(-180 374 519)" fill="white"/>
<text fill="black" xml:space="preserve" style="white-space: pre" font-family="Inter" font-size="8" letter-spacing="0em"><tspan x="34.0273" y="277.909">E CL 807</tspan></text>
<text fill="black" xml:space="preserve" style="white-space: pre" font-family="Inter" font-size="8" letter-spacing="0em"><tspan x="23.0039" y="318.909">Hydraulics Lab</tspan></text>
<g style="mix-blend-mode:multiply">
<rect x="16.5" y="295.5" width="69" height="40" fill="white"/>
<rect x="16.5" y="295.5" width="69" height="40" stroke="black"/>
</g>
<g style="mix-blend-mode:multiply">
<rect x="16.5" y="255.5" width="69" height="40" fill="white"/>
<rect x="16.5" y="255.5" width="69" height="40" stroke="black"/>
</g>
<rect x="16.5" y="15.5" width="340" height="482" stroke="black"/>
<rect x="120.5" y="130.5" width="132" height="252" fill="white" stroke="black"/>
<rect x="120.5" y="372.5" width="132" height="10" fill="white" stroke="black"/>
<rect x="120.5" y="130.5" width="132" height="11" fill="white" stroke="black"/>
<rect x="120.5" y="304.5" width="66" height="68" fill="white" stroke="black"/>
<rect x="186.5" y="304.5" width="66" height="68" fill="white" stroke="black"/>
<rect x="120.5" y="141.5" width="66" height="68" fill="white" stroke="black"/>
<rect x="186.5" y="141.5" width="66" height="68" fill="white" stroke="black"/>
<rect x="287.5" y="130.5" width="69" height="93" fill="white" stroke="black"/>
<rect x="287.5" y="362.5" width="69" height="20" fill="white" stroke="black"/>
<rect x="287.5" y="223.5" width="69" height="20" fill="white" stroke="black"/>
<path d="M329.982 225.806C329.982 225.523 329.801 225.28 329.554 225.129C329.51 225.111 329.488 225.092 329.44 225.074C329.304 225.018 329.145 225 329.013 225H316.991C316.449 225 316 225.357 316 225.828V227.917H321.029L320.509 227.484C320.373 227.37 320.395 227.2 320.509 227.087L320.848 226.803C320.915 226.748 320.985 226.73 321.073 226.73C321.162 226.73 321.254 226.748 321.32 226.803L322.989 228.219C323.055 228.274 323.077 228.333 323.077 228.407C323.077 228.481 323.033 228.558 322.989 228.613L321.32 230.026C321.184 230.139 320.981 230.139 320.845 230.026L320.506 229.742C320.369 229.629 320.369 229.459 320.506 229.345L321.047 228.911H316.022V241.172C316.022 241.625 316.449 242 316.991 242H329.009C329.551 242 330 241.643 330 241.172L329.982 225.806ZM325.807 230.253C326.485 230.253 327.049 230.724 327.049 231.29C327.049 231.857 326.485 232.306 325.807 232.306C325.129 232.306 324.592 231.854 324.592 231.29C324.592 230.727 325.107 230.253 325.807 230.253ZM321.482 237.427C321.213 237.692 321.033 237.784 320.672 237.765L317.942 237.728C317.603 237.71 317.334 237.427 317.356 237.184C317.378 236.845 317.651 236.657 318.034 236.657L320.535 236.639L321.121 235.977L322.182 236.694L321.482 237.427ZM328.018 235.713L325.785 235.3C325.627 235.263 325.516 235.168 325.446 235.054L324.927 234.094C324.883 234.131 323.733 235.713 323.733 235.713L325.041 236.541C325.446 236.824 325.491 237.085 325.336 237.445L323.984 240.046C323.869 240.292 323.534 240.461 323.195 240.366C322.856 240.27 322.632 239.95 322.79 239.67L323.962 237.316L322.204 236.205C321.729 235.959 321.552 235.488 321.887 235.017L323.464 232.869L322.315 232.531L320.241 233.398C319.972 233.531 319.633 233.417 319.496 233.211C319.382 233.023 319.474 232.758 319.699 232.644L321.865 231.703C321.98 231.647 322.09 231.607 322.204 231.607C322.318 231.607 322.429 231.626 322.521 231.644L324.348 232.134C324.415 232.152 324.463 232.17 324.507 232.207L325.498 232.829C325.634 232.903 325.678 233.035 325.723 233.131L326.22 234.429L328.228 234.863C328.497 234.919 328.633 235.128 328.633 235.334C328.604 235.525 328.291 235.771 328.018 235.713Z" fill="black"/>
<path d="M327.982 364.806C327.982 364.523 327.801 364.28 327.554 364.129C327.51 364.111 327.488 364.092 327.44 364.074C327.304 364.018 327.145 364 327.013 364H314.991C314.449 364 314 364.357 314 364.828V366.917H319.029L318.509 366.484C318.373 366.37 318.395 366.2 318.509 366.087L318.848 365.803C318.915 365.748 318.985 365.73 319.073 365.73C319.162 365.73 319.254 365.748 319.32 365.803L320.989 367.219C321.055 367.274 321.077 367.333 321.077 367.407C321.077 367.481 321.033 367.558 320.989 367.613L319.32 369.026C319.184 369.139 318.981 369.139 318.845 369.026L318.506 368.742C318.369 368.629 318.369 368.459 318.506 368.345L319.047 367.911H314.022V380.172C314.022 380.625 314.449 381 314.991 381H327.009C327.551 381 328 380.643 328 380.172L327.982 364.806ZM323.807 369.253C324.485 369.253 325.049 369.724 325.049 370.29C325.049 370.857 324.485 371.306 323.807 371.306C323.129 371.306 322.592 370.854 322.592 370.29C322.592 369.727 323.107 369.253 323.807 369.253ZM319.482 376.427C319.213 376.692 319.033 376.784 318.672 376.765L315.942 376.728C315.603 376.71 315.334 376.427 315.356 376.184C315.378 375.845 315.651 375.657 316.034 375.657L318.535 375.639L319.121 374.977L320.182 375.694L319.482 376.427ZM326.018 374.713L323.785 374.3C323.627 374.263 323.516 374.168 323.446 374.054L322.927 373.094C322.883 373.131 321.733 374.713 321.733 374.713L323.041 375.541C323.446 375.824 323.491 376.085 323.336 376.445L321.984 379.046C321.869 379.292 321.534 379.461 321.195 379.366C320.856 379.27 320.632 378.95 320.79 378.67L321.962 376.316L320.204 375.205C319.729 374.959 319.552 374.488 319.887 374.017L321.464 371.869L320.315 371.531L318.241 372.398C317.972 372.531 317.633 372.417 317.496 372.211C317.382 372.023 317.474 371.758 317.699 371.644L319.865 370.703C319.98 370.647 320.09 370.607 320.204 370.607C320.318 370.607 320.429 370.626 320.521 370.644L322.348 371.134C322.415 371.152 322.463 371.17 322.507 371.207L323.498 371.829C323.634 371.903 323.678 372.035 323.723 372.131L324.22 373.429L326.228 373.863C326.497 373.919 326.633 374.128 326.633 374.334C326.604 374.525 326.291 374.771 326.018 374.713Z" fill="black"/>
<rect x="16.5" y="133.5" width="69" height="42" fill="white" stroke="black"/>
<rect x="16.5" y="175.5" width="69" height="40" fill="white" stroke="black"/>
<rect x="16.5" y="215.5" width="69" height="40" fill="white" stroke="black"/>
<rect x="16.5" y="362.5" width="69" height="20" fill="white" stroke="black"/>
<g style="mix-blend-mode:darken">
<rect x="16.5" y="362.5" width="27" height="69" transform="rotate(-90 16.5 362.5)" fill="white"/>
<rect x="16.5" y="362.5" width="27" height="69" transform="rotate(-90 16.5 362.5)" stroke="black"/>
</g>
<path fill-rule="evenodd" clip-rule="evenodd" d="M45.4407 345.176V358.466C45.4402 358.723 45.3486 358.97 45.186 359.152C45.0233 359.334 44.8027 359.437 44.5724 359.438C44.3419 359.437 44.1212 359.334 43.9582 359.152C43.7952 358.97 43.7033 358.723 43.7023 358.466V350.651H43.3604V358.466C43.3599 358.723 43.2683 358.97 43.1056 359.152C42.943 359.334 42.7224 359.437 42.4921 359.438C42.2616 359.437 42.0409 359.334 41.8779 359.152C41.7149 358.97 41.6229 358.723 41.622 358.466V345.176H41.3194V350.059C41.3185 350.255 41.2485 350.442 41.1248 350.579C41.0011 350.717 40.8336 350.795 40.6588 350.795C40.4844 350.794 40.3174 350.717 40.194 350.579C40.0707 350.441 40.0009 350.254 40 350.059V344.808C40 343.954 40.2578 343.353 40.7251 342.959C41.5307 342.281 45.5087 342.281 46.3144 342.959C46.7834 343.359 47.043 343.96 47.0412 344.808V350.059C47.0403 350.254 46.9706 350.441 46.8472 350.579C46.7239 350.717 46.5568 350.794 46.3824 350.795C46.2089 350.793 46.0432 350.714 45.921 350.577C45.7988 350.439 45.7299 350.253 45.7289 350.059V345.176H45.4407ZM49.5798 338.562C49.5798 338.413 49.6328 338.27 49.7272 338.165C49.8215 338.059 49.9495 338 50.0829 338C50.2163 338 50.3443 338.059 50.4386 338.165C50.533 338.27 50.586 338.413 50.586 338.562V359.438C50.586 359.587 50.533 359.73 50.4386 359.835C50.3443 359.941 50.2163 360 50.0829 360C49.9495 360 49.8215 359.941 49.7272 359.835C49.6328 359.73 49.5798 359.587 49.5798 359.438V338.562ZM60.5883 344.608C60.5991 344.638 60.608 344.668 60.617 344.7L61.9758 350.101C61.9993 350.197 62.0058 350.297 61.9948 350.395C61.9838 350.493 61.9556 350.588 61.9118 350.674C61.868 350.76 61.8094 350.836 61.7395 350.897C61.6695 350.957 61.5895 351.002 61.5041 351.029C61.4186 351.055 61.3294 351.062 61.2414 351.05C61.1535 351.037 61.0685 351.006 60.9915 350.957C60.9144 350.908 60.8468 350.843 60.7923 350.764C60.7379 350.686 60.6978 350.597 60.6743 350.501L59.3351 345.17H59.3154H59.0308V345.508L60.8211 353.458H59.0308V358.46C59.0303 358.717 58.9387 358.964 58.7761 359.146C58.6134 359.328 58.3928 359.431 58.1625 359.432C57.9323 359.43 57.712 359.327 57.5495 359.145C57.3869 358.963 57.2952 358.717 57.2942 358.46V353.458H56.9505V358.46C56.9495 358.717 56.8576 358.964 56.6946 359.146C56.5316 359.328 56.3109 359.431 56.0804 359.432C55.8519 359.429 55.6335 359.327 55.4722 359.146C55.3108 358.965 55.2193 358.721 55.2175 358.466V353.464H53.3162L55.2175 345.304V345.176H54.9131H54.8881L53.5418 350.501C53.4943 350.694 53.3802 350.858 53.2246 350.957C53.0689 351.056 52.8846 351.082 52.712 351.029C52.5394 350.975 52.3927 350.848 52.3042 350.674C52.2158 350.5 52.1927 350.294 52.2402 350.101L53.5704 344.808H53.5561C53.7602 343.958 53.9303 343.353 54.3993 342.959C55.2049 342.281 59.097 342.281 59.9045 342.959C60.3377 343.319 60.4093 343.808 60.5883 344.608ZM57.1098 338.562C57.4207 338.562 57.7246 338.665 57.9831 338.858C58.2416 339.051 58.4431 339.326 58.562 339.646C58.681 339.967 58.7121 340.321 58.6515 340.661C58.5908 341.002 58.4411 341.315 58.2213 341.561C58.0015 341.806 57.7214 341.974 57.4165 342.041C57.1116 342.109 56.7955 342.074 56.5083 341.941C56.2211 341.808 55.9756 341.583 55.8028 341.294C55.6301 341.006 55.5379 340.666 55.5379 340.319C55.5379 339.853 55.7035 339.406 55.9983 339.077C56.2931 338.747 56.6929 338.562 57.1098 338.562ZM43.5197 338.562C43.8306 338.562 44.1345 338.665 44.393 338.858C44.6515 339.051 44.853 339.326 44.9719 339.646C45.0909 339.967 45.122 340.321 45.0614 340.661C45.0007 341.002 44.851 341.315 44.6312 341.561C44.4114 341.806 44.1313 341.974 43.8264 342.041C43.5215 342.109 43.2054 342.074 42.9182 341.941C42.631 341.808 42.3855 341.583 42.2127 341.294C42.04 341.006 41.9478 340.666 41.9478 340.319C41.9478 339.853 42.1134 339.406 42.4082 339.077C42.703 338.747 43.1028 338.562 43.5197 338.562Z" fill="black"/>
<path d="M55.9816 364.806C55.9816 364.523 55.8011 364.28 55.5542 364.129C55.51 364.111 55.4879 364.092 55.44 364.074C55.3037 364.018 55.1453 364 55.0126 364H42.9911C42.4495 364 42 364.357 42 364.828V366.917H47.0289L46.5095 366.484C46.3732 366.37 46.3953 366.2 46.5095 366.087L46.8484 365.803C46.9147 365.748 46.9847 365.73 47.0732 365.73C47.1616 365.73 47.2537 365.748 47.32 365.803L48.9889 367.219C49.0553 367.274 49.0773 367.333 49.0773 367.407C49.0773 367.481 49.0332 367.558 48.9889 367.613L47.32 369.026C47.1837 369.139 46.9811 369.139 46.8447 369.026L46.5058 368.742C46.3695 368.629 46.3695 368.459 46.5058 368.345L47.0474 367.911H42.0221V380.172C42.0221 380.625 42.4495 381 42.9911 381H55.0089C55.5505 381 56 380.643 56 380.172L55.9816 364.806ZM51.8074 369.253C52.4852 369.253 53.0489 369.724 53.0489 370.29C53.0489 370.857 52.4852 371.306 51.8074 371.306C51.1295 371.306 50.5916 370.854 50.5916 370.29C50.5916 369.727 51.1074 369.253 51.8074 369.253ZM47.4821 376.427C47.2132 376.692 47.0326 376.784 46.6716 376.765L43.9416 376.728C43.6026 376.71 43.3337 376.427 43.3558 376.184C43.3779 375.845 43.6505 375.657 44.0337 375.657L46.5353 375.639L47.1211 374.977L48.1821 375.694L47.4821 376.427ZM54.0179 374.713L51.7853 374.3C51.6268 374.263 51.5163 374.168 51.4464 374.054L50.9268 373.094C50.8826 373.131 49.7332 374.713 49.7332 374.713L51.0411 375.541C51.4464 375.824 51.4905 376.085 51.3358 376.445L49.9837 379.046C49.8695 379.292 49.5342 379.461 49.1953 379.366C48.8564 379.27 48.6316 378.95 48.79 378.67L49.9616 376.316L48.2042 375.205C47.729 374.959 47.5521 374.488 47.8874 374.017L49.4642 371.869L48.3148 371.531L46.2406 372.398C45.9716 372.531 45.6327 372.417 45.4964 372.211C45.3821 372.023 45.4742 371.758 45.699 371.644L47.8653 370.703C47.9795 370.647 48.09 370.607 48.2042 370.607C48.3185 370.607 48.429 370.626 48.5211 370.644L50.3485 371.134C50.4148 371.152 50.4627 371.17 50.5069 371.207L51.4979 371.829C51.6342 371.903 51.6784 372.035 51.7227 372.131L52.22 373.429L54.2279 373.863C54.4969 373.919 54.6332 374.128 54.6332 374.334C54.6037 374.525 54.2905 374.771 54.0179 374.713Z" fill="black"/>
<rect x="16.5" y="15.5" width="108" height="69" fill="white" stroke="black"/>
<rect x="252.5" y="15.5" width="104" height="69" fill="white" stroke="black"/>
<rect x="16.5" y="428.5" width="128" height="69" fill="white" stroke="black"/>
<path d="M296.5 428.5H356.5V497.5H296.5V428.5Z" fill="white" stroke="black"/>
<path d="M230.5 428.5H296.5V497.5H230.5V428.5Z" fill="white" stroke="black"/>
<rect x="124.5" y="15.5" width="44" height="69" fill="white" stroke="black"/>
<path fill-rule="evenodd" clip-rule="evenodd" d="M138.441 42.176V55.4656C138.44 55.7229 138.349 55.9696 138.186 56.1518C138.023 56.334 137.803 56.4368 137.572 56.4378C137.342 56.4368 137.121 56.334 136.958 56.1519C136.795 55.9698 136.703 55.7231 136.702 55.4656V47.6515H136.36V55.4656C136.36 55.7229 136.268 55.9696 136.106 56.1518C135.943 56.334 135.722 56.4368 135.492 56.4378C135.262 56.4368 135.041 56.334 134.878 56.1519C134.715 55.9698 134.623 55.7231 134.622 55.4656V42.176H134.319V47.0593C134.319 47.2546 134.249 47.4415 134.125 47.5794C134.001 47.7173 133.834 47.795 133.659 47.7955C133.484 47.7944 133.317 47.7165 133.194 47.5787C133.071 47.4409 133.001 47.2542 133 47.0593V41.8079C133 40.9536 133.258 40.3535 133.725 39.9594C134.531 39.2812 138.509 39.2812 139.314 39.9594C139.783 40.3595 140.043 40.9596 140.041 41.8079V47.0593C140.04 47.2542 139.971 47.4409 139.847 47.5787C139.724 47.7165 139.557 47.7944 139.382 47.7955C139.209 47.7929 139.043 47.7143 138.921 47.5766C138.799 47.4389 138.73 47.2532 138.729 47.0593V42.176H138.441ZM142.58 35.5622C142.58 35.4131 142.633 35.2701 142.727 35.1647C142.822 35.0592 142.949 35 143.083 35C143.216 35 143.344 35.0592 143.439 35.1647C143.533 35.2701 143.586 35.4131 143.586 35.5622V56.4378C143.586 56.5869 143.533 56.7299 143.439 56.8353C143.344 56.9408 143.216 57 143.083 57C142.949 57 142.822 56.9408 142.727 56.8353C142.633 56.7299 142.58 56.5869 142.58 56.4378V35.5622ZM153.588 41.6078C153.599 41.6378 153.608 41.6678 153.617 41.6998L154.976 47.1013C154.999 47.1968 155.006 47.2965 154.995 47.3948C154.984 47.4931 154.956 47.588 154.912 47.6741C154.868 47.7602 154.809 47.8358 154.739 47.8966C154.67 47.9575 154.59 48.0023 154.504 48.0286C154.419 48.0548 154.329 48.062 154.241 48.0498C154.153 48.0375 154.069 48.006 153.991 47.957C153.914 47.9081 153.847 47.8426 153.792 47.7645C153.738 47.6863 153.698 47.5969 153.674 47.5014L152.335 42.17H152.315H152.031V42.508L153.821 50.4582H152.031V55.4596C152.03 55.7169 151.939 55.9636 151.776 56.1458C151.613 56.328 151.393 56.4308 151.163 56.4318C150.932 56.4303 150.712 56.3273 150.549 56.1452C150.387 55.9632 150.295 55.7168 150.294 55.4596V50.4582H149.95V55.4596C149.95 55.7171 149.858 55.9638 149.695 56.1459C149.532 56.328 149.311 56.4308 149.08 56.4318C148.852 56.4292 148.634 56.3265 148.472 56.1458C148.311 55.9651 148.219 55.7209 148.217 55.4656V50.4642H146.316L148.217 42.304V42.176H147.913H147.888L146.542 47.5014C146.494 47.6943 146.38 47.8582 146.225 47.957C146.069 48.0559 145.885 48.0816 145.712 48.0286C145.539 47.9755 145.393 47.848 145.304 47.6741C145.216 47.5002 145.193 47.2942 145.24 47.1013L146.57 41.8079H146.556C146.76 40.9576 146.93 40.3535 147.399 39.9594C148.205 39.2812 152.097 39.2812 152.904 39.9594C153.338 40.3195 153.409 40.8076 153.588 41.6078ZM150.11 35.5622C150.421 35.5622 150.725 35.6652 150.983 35.8582C151.242 36.0512 151.443 36.3255 151.562 36.6465C151.681 36.9674 151.712 37.3206 151.651 37.6613C151.591 38.002 151.441 38.315 151.221 38.5607C151.001 38.8063 150.721 38.9736 150.416 39.0414C150.112 39.1091 149.796 39.0744 149.508 38.9414C149.221 38.8085 148.976 38.5833 148.803 38.2945C148.63 38.0056 148.538 37.666 148.538 37.3186C148.538 36.8528 148.704 36.406 148.998 36.0766C149.293 35.7472 149.693 35.5622 150.11 35.5622ZM136.52 35.5622C136.831 35.5622 137.135 35.6652 137.393 35.8582C137.651 36.0512 137.853 36.3255 137.972 36.6465C138.091 36.9674 138.122 37.3206 138.061 37.6613C138.001 38.002 137.851 38.315 137.631 38.5607C137.411 38.8063 137.131 38.9736 136.826 39.0414C136.521 39.1091 136.205 39.0744 135.918 38.9414C135.631 38.8085 135.385 38.5833 135.213 38.2945C135.04 38.0056 134.948 37.666 134.948 37.3186C134.948 36.8528 135.113 36.406 135.408 36.0766C135.703 35.7472 136.103 35.5622 136.52 35.5622Z" fill="black"/>
<rect x="168.5" y="15.5" width="30" height="69" fill="white" stroke="black"/>
<path d="M185.293 122.707C185.683 123.098 186.317 123.098 186.707 122.707L193.071 116.343C193.462 115.953 193.462 115.319 193.071 114.929C192.681 114.538 192.047 114.538 191.657 114.929L186 120.586L180.343 114.929C179.953 114.538 179.319 114.538 178.929 114.929C178.538 115.319 178.538 115.953 178.929 116.343L185.293 122.707ZM185 102L185 122L187 122L187 102L185 102Z" fill="black"/>
<path d="M185.707 389.293C185.317 388.902 184.683 388.902 184.293 389.293L177.929 395.657C177.538 396.047 177.538 396.681 177.929 397.071C178.319 397.462 178.953 397.462 179.343 397.071L185 391.414L190.657 397.071C191.047 397.462 191.681 397.462 192.071 397.071C192.462 396.681 192.462 396.047 192.071 395.657L185.707 389.293ZM186 410L186 390L184 390L184 410L186 410Z" fill="black"/>
<path d="M189.982 35.8063C189.982 35.5232 189.801 35.2801 189.554 35.1293C189.51 35.1108 189.488 35.0923 189.44 35.0739C189.304 35.0185 189.145 35 189.013 35H176.991C176.449 35 176 35.357 176 35.8278V37.9175H181.029L180.509 37.4835C180.373 37.3697 180.395 37.2004 180.509 37.0865L180.848 36.8034C180.915 36.748 180.985 36.7295 181.073 36.7295C181.162 36.7295 181.254 36.748 181.32 36.8034L182.989 38.219C183.055 38.2744 183.077 38.3329 183.077 38.4068C183.077 38.4806 183.033 38.5576 182.989 38.613L181.32 40.0255C181.184 40.1394 180.981 40.1394 180.845 40.0255L180.506 39.7424C180.369 39.6285 180.369 39.4593 180.506 39.3454L181.047 38.9115H176.022V51.1722C176.022 51.6245 176.449 52 176.991 52H189.009C189.551 52 190 51.643 190 51.1722L189.982 35.8063ZM185.807 40.2533C186.485 40.2533 187.049 40.7241 187.049 41.2904C187.049 41.8566 186.485 42.3059 185.807 42.3059C185.129 42.3059 184.592 41.8535 184.592 41.2904C184.592 40.7272 185.107 40.2533 185.807 40.2533ZM181.482 47.4269C181.213 47.6916 181.033 47.7839 180.672 47.7654L177.942 47.7285C177.603 47.71 177.334 47.4269 177.356 47.1838C177.378 46.8453 177.651 46.6575 178.034 46.6575L180.535 46.639L181.121 45.9774L182.182 46.6944L181.482 47.4269ZM188.018 45.7127L185.785 45.3003C185.627 45.2634 185.516 45.168 185.446 45.0541L184.927 44.094C184.883 44.1309 183.733 45.7127 183.733 45.7127L185.041 46.5405C185.446 46.8237 185.491 47.0853 185.336 47.4453L183.984 50.0458C183.869 50.292 183.534 50.4613 183.195 50.3658C182.856 50.2704 182.632 49.9504 182.79 49.6703L183.962 47.316L182.204 46.2051C181.729 45.9589 181.552 45.488 181.887 45.0171L183.464 42.8691L182.315 42.5305L180.241 43.3984C179.972 43.5307 179.633 43.4168 179.496 43.2107C179.382 43.0229 179.474 42.7583 179.699 42.6444L181.865 41.7027C181.98 41.6473 182.09 41.6073 182.204 41.6073C182.318 41.6073 182.429 41.6258 182.521 41.6442L184.348 42.1335C184.415 42.152 184.463 42.1705 184.507 42.2074L185.498 42.8291C185.634 42.903 185.678 43.0353 185.723 43.1307L186.22 44.4294L188.228 44.8633C188.497 44.9187 188.633 45.128 188.633 45.3342C188.604 45.525 188.291 45.7712 188.018 45.7127Z" fill="black"/>
<text fill="black" xml:space="preserve" style="white-space: pre" font-family="Inter" font-size="8" letter-spacing="0em"><tspan x="22.9883" y="156.909">Pneumatic Lab</tspan></text>
<text fill="black" xml:space="preserve" style="white-space: pre" font-family="Inter" font-size="8" letter-spacing="0em"><tspan x="303.613" y="179.909">E. CC 801</tspan></text>
<text fill="black" xml:space="preserve" style="white-space: pre" font-family="Inter" font-size="8" letter-spacing="0em"><tspan x="21.1836" y="237.409">Automation Lab</tspan></text>
<text fill="black" xml:space="preserve" style="white-space: pre" font-family="Inter" font-size="8" letter-spacing="0em"><tspan x="22.0273" y="198.909">Sensor IOT Lab</tspan></text>
<text fill="black" xml:space="preserve" style="white-space: pre" font-family="Inter" font-size="8" letter-spacing="0em"><tspan x="178.906" y="380.409">Lift</tspan></text>
<text fill="black" xml:space="preserve" style="white-space: pre" font-family="Inter" font-size="8" letter-spacing="0em"><tspan x="180.406" y="138.909">Lift</tspan></text>
<text fill="black" xml:space="preserve" style="white-space: pre" font-family="Inter" font-size="8" letter-spacing="0em"><tspan x="38.8164" y="52.4091">Faculty area 802</tspan></text>
<text fill="black" xml:space="preserve" style="white-space: pre" font-family="Inter" font-size="8" letter-spacing="0em"><tspan x="273.879" y="52.9091">Faculty area 801</tspan></text>
<rect x="287.5" y="268.5" width="69" height="94" fill="white" stroke="black"/>
<text fill="black" xml:space="preserve" style="white-space: pre" font-family="Inter" font-size="8" letter-spacing="0em"><tspan x="315.785" y="318.409">NA</tspan></text>
<text fill="black" xml:space="preserve" style="white-space: pre" font-family="Inter" font-size="8" letter-spacing="0em"><tspan x="245.066" y="465.909">E. CL 804</tspan></text>
<text fill="black" xml:space="preserve" style="white-space: pre" font-family="Inter" font-size="8" letter-spacing="0em"><tspan x="33.7969" y="467.364">Placement Office 1 and 2</tspan></text>
<text fill="black" xml:space="preserve" style="white-space: pre" font-family="Inter" font-size="12" letter-spacing="0em"><tspan x="128.203" y="467.364"> </tspan></text>
<text fill="black" xml:space="preserve" style="white-space: pre" font-family="Inter" font-size="8" letter-spacing="0em"><tspan x="134.66" y="340.909">E. CR 207</tspan></text>
<text fill="black" xml:space="preserve" style="white-space: pre" font-family="Inter" font-size="8" letter-spacing="0em"><tspan x="131.176" y="178.909">V.C. Room 1</tspan></text>
<text fill="black" xml:space="preserve" style="white-space: pre" font-family="Inter" font-size="8" letter-spacing="0em"><tspan x="196.613" y="178.909">V.C. Room 2</tspan></text>
<text fill="black" xml:space="preserve" style="white-space: pre" font-family="Inter" font-size="8" letter-spacing="0em"><tspan x="200.871" y="341.409">E. CR 206</tspan></text>
<text fill="black" xml:space="preserve" style="white-space: pre" font-family="Inter" font-size="8" letter-spacing="0em"><tspan x="309.566" y="465.909">E CR 801</tspan></text>
<text fill="black" xml:space="preserve" style="white-space: pre" font-family="Inter" font-size="24" letter-spacing="0em"><tspan x="146.555" y="265.727">Floor 8</tspan></text>
<text fill="black" xml:space="preserve" style="white-space: pre" font-family="Inter" font-size="8" letter-spacing="0em"><tspan x="190.297" y="103.409">Bhagubhai Lift Entrance</tspan></text>
<text fill="black" xml:space="preserve" style="white-space: pre" font-family="Inter" font-size="8" letter-spacing="0em"><tspan x="196.391" y="412.409">Cooper Lift Entrance</tspan></text>
<text fill="black" xml:space="preserve" style="white-space: pre" font-family="Inter" font-size="8" letter-spacing="0em"><tspan x="204.457" y="47.4091">3D Printing </tspan><tspan x="218.512" y="57.4091">Lab</tspan></text>
<text fill="black" xml:space="preserve" style="white-space: pre" font-family="Inter" font-size="8" letter-spacing="0em"><tspan x="303.586" y="259.409">E. CL 803</tspan></text>
<g style="mix-blend-mode:multiply">
<rect x="287.5" y="243.5" width="69" height="25" fill="white"/>
<rect x="287.5" y="243.5" width="69" height="25" stroke="black"/>
</g>
<g style="mix-blend-mode:multiply">
<rect x="198.5" y="15.5" width="54" height="69" fill="white"/>
<rect x="198.5" y="15.5" width="54" height="69" stroke="black"/>
</g>
</svg>
