<svg width="374" height="519" viewBox="0 0 374 519" fill="none" xmlns="http://www.w3.org/2000/svg">
<rect x="374" y="519" width="374" height="519" transform="rotate(-180 374 519)" fill="white"/>
<text fill="black" xml:space="preserve" style="white-space: pre" font-family="Inter" font-size="8" letter-spacing="0em"><tspan x="299.523" y="424.909">Staircase to </tspan><tspan x="295.391" y="434.909">Lower Ground</tspan></text>
<rect x="16.5" y="18.5" width="340" height="482" stroke="black"/>
<rect x="120.5" y="133.5" width="132" height="252" fill="white" stroke="black"/>
<rect x="120.5" y="375.5" width="132" height="10" fill="white" stroke="black"/>
<rect x="120.5" y="133.5" width="132" height="11" fill="white" stroke="black"/>
<rect x="120.5" y="307.5" width="66" height="68" fill="white" stroke="black"/>
<rect x="186.5" y="307.5" width="66" height="68" fill="white" stroke="black"/>
<rect x="120.5" y="144.5" width="66" height="68" fill="white" stroke="black"/>
<rect x="186.5" y="144.5" width="66" height="68" fill="white" stroke="black"/>
<rect x="287.5" y="133.5" width="69" height="80" fill="white" stroke="black"/>
<rect x="287.5" y="213.5" width="69" height="36" fill="white" stroke="black"/>
<g style="mix-blend-mode:darken">
<rect x="287.5" y="411.5" width="69" height="31" fill="white"/>
<rect x="287.5" y="411.5" width="69" height="31" stroke="black"/>
</g>
<rect x="287.5" y="248.5" width="69" height="20" fill="white" stroke="black"/>
<path d="M329.982 250.806C329.982 250.523 329.801 250.28 329.554 250.129C329.51 250.111 329.488 250.092 329.44 250.074C329.304 250.018 329.145 250 329.013 250H316.991C316.449 250 316 250.357 316 250.828V252.917H321.029L320.509 252.484C320.373 252.37 320.395 252.2 320.509 252.087L320.848 251.803C320.915 251.748 320.985 251.73 321.073 251.73C321.162 251.73 321.254 251.748 321.32 251.803L322.989 253.219C323.055 253.274 323.077 253.333 323.077 253.407C323.077 253.481 323.033 253.558 322.989 253.613L321.32 255.026C321.184 255.139 320.981 255.139 320.845 255.026L320.506 254.742C320.369 254.629 320.369 254.459 320.506 254.345L321.047 253.911H316.022V266.172C316.022 266.625 316.449 267 316.991 267H329.009C329.551 267 330 266.643 330 266.172L329.982 250.806ZM325.807 255.253C326.485 255.253 327.049 255.724 327.049 256.29C327.049 256.857 326.485 257.306 325.807 257.306C325.129 257.306 324.592 256.854 324.592 256.29C324.592 255.727 325.107 255.253 325.807 255.253ZM321.482 262.427C321.213 262.692 321.033 262.784 320.672 262.765L317.942 262.728C317.603 262.71 317.334 262.427 317.356 262.184C317.378 261.845 317.651 261.657 318.034 261.657L320.535 261.639L321.121 260.977L322.182 261.694L321.482 262.427ZM328.018 260.713L325.785 260.3C325.627 260.263 325.516 260.168 325.446 260.054L324.927 259.094C324.883 259.131 323.733 260.713 323.733 260.713L325.041 261.541C325.446 261.824 325.491 262.085 325.336 262.445L323.984 265.046C323.869 265.292 323.534 265.461 323.195 265.366C322.856 265.27 322.632 264.95 322.79 264.67L323.962 262.316L322.204 261.205C321.729 260.959 321.552 260.488 321.887 260.017L323.464 257.869L322.315 257.531L320.241 258.398C319.972 258.531 319.633 258.417 319.496 258.211C319.382 258.023 319.474 257.758 319.699 257.644L321.865 256.703C321.98 256.647 322.09 256.607 322.204 256.607C322.318 256.607 322.429 256.626 322.521 256.644L324.348 257.134C324.415 257.152 324.463 257.17 324.507 257.207L325.498 257.829C325.634 257.903 325.678 258.035 325.723 258.131L326.22 259.429L328.228 259.863C328.497 259.919 328.633 260.128 328.633 260.334C328.604 260.525 328.291 260.771 328.018 260.713Z" fill="black"/>
<rect x="16.5" y="157.5" width="69" height="64" fill="white" stroke="black"/>
<rect x="16.5" y="220.5" width="69" height="61" fill="white" stroke="black"/>
<rect x="16.5" y="281.5" width="69" height="57" fill="white" stroke="black"/>
<g style="mix-blend-mode:darken">
<rect x="16.5" y="368.5" width="30" height="69" transform="rotate(-90 16.5 368.5)" fill="white"/>
<rect x="16.5" y="368.5" width="30" height="69" transform="rotate(-90 16.5 368.5)" stroke="black"/>
</g>
<path fill-rule="evenodd" clip-rule="evenodd" d="M45.4407 350.176V363.466C45.4402 363.723 45.3486 363.97 45.186 364.152C45.0233 364.334 44.8027 364.437 44.5724 364.438C44.3419 364.437 44.1212 364.334 43.9582 364.152C43.7952 363.97 43.7033 363.723 43.7023 363.466V355.651H43.3604V363.466C43.3599 363.723 43.2683 363.97 43.1056 364.152C42.943 364.334 42.7224 364.437 42.4921 364.438C42.2616 364.437 42.0409 364.334 41.8779 364.152C41.7149 363.97 41.6229 363.723 41.622 363.466V350.176H41.3194V355.059C41.3185 355.255 41.2485 355.442 41.1248 355.579C41.0011 355.717 40.8336 355.795 40.6588 355.795C40.4844 355.794 40.3174 355.717 40.194 355.579C40.0707 355.441 40.0009 355.254 40 355.059V349.808C40 348.954 40.2578 348.353 40.7251 347.959C41.5307 347.281 45.5087 347.281 46.3144 347.959C46.7834 348.359 47.043 348.96 47.0412 349.808V355.059C47.0403 355.254 46.9706 355.441 46.8472 355.579C46.7239 355.717 46.5568 355.794 46.3824 355.795C46.2089 355.793 46.0432 355.714 45.921 355.577C45.7988 355.439 45.7299 355.253 45.7289 355.059V350.176H45.4407ZM49.5798 343.562C49.5798 343.413 49.6328 343.27 49.7272 343.165C49.8215 343.059 49.9495 343 50.0829 343C50.2163 343 50.3443 343.059 50.4386 343.165C50.533 343.27 50.586 343.413 50.586 343.562V364.438C50.586 364.587 50.533 364.73 50.4386 364.835C50.3443 364.941 50.2163 365 50.0829 365C49.9495 365 49.8215 364.941 49.7272 364.835C49.6328 364.73 49.5798 364.587 49.5798 364.438V343.562ZM60.5883 349.608C60.5991 349.638 60.608 349.668 60.617 349.7L61.9758 355.101C61.9993 355.197 62.0058 355.297 61.9948 355.395C61.9838 355.493 61.9556 355.588 61.9118 355.674C61.868 355.76 61.8094 355.836 61.7395 355.897C61.6695 355.957 61.5895 356.002 61.5041 356.029C61.4186 356.055 61.3294 356.062 61.2414 356.05C61.1535 356.037 61.0685 356.006 60.9915 355.957C60.9144 355.908 60.8468 355.843 60.7923 355.764C60.7379 355.686 60.6978 355.597 60.6743 355.501L59.3351 350.17H59.3154H59.0308V350.508L60.8211 358.458H59.0308V363.46C59.0303 363.717 58.9387 363.964 58.7761 364.146C58.6134 364.328 58.3928 364.431 58.1625 364.432C57.9323 364.43 57.712 364.327 57.5495 364.145C57.3869 363.963 57.2952 363.717 57.2942 363.46V358.458H56.9505V363.46C56.9495 363.717 56.8576 363.964 56.6946 364.146C56.5316 364.328 56.3109 364.431 56.0804 364.432C55.8519 364.429 55.6335 364.327 55.4722 364.146C55.3108 363.965 55.2193 363.721 55.2175 363.466V358.464H53.3162L55.2175 350.304V350.176H54.9131H54.8881L53.5418 355.501C53.4943 355.694 53.3802 355.858 53.2246 355.957C53.0689 356.056 52.8846 356.082 52.712 356.029C52.5394 355.975 52.3927 355.848 52.3042 355.674C52.2158 355.5 52.1927 355.294 52.2402 355.101L53.5704 349.808H53.5561C53.7602 348.958 53.9303 348.353 54.3993 347.959C55.2049 347.281 59.097 347.281 59.9045 347.959C60.3377 348.319 60.4093 348.808 60.5883 349.608ZM57.1098 343.562C57.4207 343.562 57.7246 343.665 57.9831 343.858C58.2416 344.051 58.4431 344.326 58.562 344.646C58.681 344.967 58.7121 345.321 58.6515 345.661C58.5908 346.002 58.4411 346.315 58.2213 346.561C58.0015 346.806 57.7214 346.974 57.4165 347.041C57.1116 347.109 56.7955 347.074 56.5083 346.941C56.2211 346.808 55.9756 346.583 55.8028 346.294C55.6301 346.006 55.5379 345.666 55.5379 345.319C55.5379 344.853 55.7035 344.406 55.9983 344.077C56.2931 343.747 56.6929 343.562 57.1098 343.562ZM43.5197 343.562C43.8306 343.562 44.1345 343.665 44.393 343.858C44.6515 344.051 44.853 344.326 44.9719 344.646C45.0909 344.967 45.122 345.321 45.0614 345.661C45.0007 346.002 44.851 346.315 44.6312 346.561C44.4114 346.806 44.1313 346.974 43.8264 347.041C43.5215 347.109 43.2054 347.074 42.9182 346.941C42.631 346.808 42.3855 346.583 42.2127 346.294C42.04 346.006 41.9478 345.666 41.9478 345.319C41.9478 344.853 42.1134 344.406 42.4082 344.077C42.703 343.747 43.1028 343.562 43.5197 343.562Z" fill="black"/>
<rect x="16.5" y="18.5" width="69" height="69" fill="white" stroke="black"/>
<rect x="283.5" y="18.5" width="73" height="69" fill="white" stroke="black"/>
<rect x="16.5" y="431.5" width="64" height="69" fill="white" stroke="black"/>
<rect x="80.5" y="431.5" width="64" height="69" fill="white" stroke="black"/>
<rect x="170.5" y="18.5" width="43" height="69" fill="white" stroke="black"/>
<text fill="black" xml:space="preserve" style="white-space: pre" font-family="Inter" font-size="8" letter-spacing="0em"><tspan x="185.047" y="55.4091">Exit&#x2028;</tspan><tspan x="182.672" y="65.4091"> and &#x2028;</tspan><tspan x="181.215" y="75.4091">Stairs</tspan></text>
<rect x="213.5" y="18.5" width="70" height="69" fill="white" stroke="black"/>
<text fill="black" xml:space="preserve" style="white-space: pre" font-family="Inter" font-size="8" letter-spacing="0em"><tspan x="233.172" y="55.9091">Exam 2</tspan></text>
<path d="M185.293 125.707C185.683 126.098 186.317 126.098 186.707 125.707L193.071 119.343C193.462 118.953 193.462 118.319 193.071 117.929C192.681 117.538 192.047 117.538 191.657 117.929L186 123.586L180.343 117.929C179.953 117.538 179.319 117.538 178.929 117.929C178.538 118.319 178.538 118.953 178.929 119.343L185.293 125.707ZM185 105L185 125L187 125L187 105L185 105Z" fill="black"/>
<path d="M185.707 392.293C185.317 391.902 184.683 391.902 184.293 392.293L177.929 398.657C177.538 399.047 177.538 399.681 177.929 400.071C178.319 400.462 178.953 400.462 179.343 400.071L185 394.414L190.657 400.071C191.047 400.462 191.681 400.462 192.071 400.071C192.462 399.681 192.462 399.047 192.071 398.657L185.707 392.293ZM186 413L186 393L184 393L184 413L186 413Z" fill="black"/>
<path d="M198.982 26.8063C198.982 26.5232 198.801 26.2801 198.554 26.1293C198.51 26.1108 198.488 26.0923 198.44 26.0739C198.304 26.0185 198.145 26 198.013 26H185.991C185.449 26 185 26.357 185 26.8278V28.9175H190.029L189.509 28.4835C189.373 28.3697 189.395 28.2004 189.509 28.0865L189.848 27.8034C189.915 27.748 189.985 27.7295 190.073 27.7295C190.162 27.7295 190.254 27.748 190.32 27.8034L191.989 29.219C192.055 29.2744 192.077 29.3329 192.077 29.4068C192.077 29.4806 192.033 29.5576 191.989 29.613L190.32 31.0255C190.184 31.1394 189.981 31.1394 189.845 31.0255L189.506 30.7424C189.369 30.6285 189.369 30.4593 189.506 30.3454L190.047 29.9115H185.022V42.1722C185.022 42.6245 185.449 43 185.991 43H198.009C198.551 43 199 42.643 199 42.1722L198.982 26.8063ZM194.807 31.2533C195.485 31.2533 196.049 31.7241 196.049 32.2904C196.049 32.8566 195.485 33.3059 194.807 33.3059C194.129 33.3059 193.592 32.8535 193.592 32.2904C193.592 31.7272 194.107 31.2533 194.807 31.2533ZM190.482 38.4269C190.213 38.6916 190.033 38.7839 189.672 38.7654L186.942 38.7285C186.603 38.71 186.334 38.4269 186.356 38.1838C186.378 37.8453 186.651 37.6575 187.034 37.6575L189.535 37.639L190.121 36.9774L191.182 37.6944L190.482 38.4269ZM197.018 36.7127L194.785 36.3003C194.627 36.2634 194.516 36.168 194.446 36.0541L193.927 35.094C193.883 35.1309 192.733 36.7127 192.733 36.7127L194.041 37.5405C194.446 37.8237 194.491 38.0853 194.336 38.4453L192.984 41.0458C192.869 41.292 192.534 41.4613 192.195 41.3658C191.856 41.2704 191.632 40.9504 191.79 40.6703L192.962 38.316L191.204 37.2051C190.729 36.9589 190.552 36.488 190.887 36.0171L192.464 33.8691L191.315 33.5305L189.241 34.3984C188.972 34.5307 188.633 34.4168 188.496 34.2107C188.382 34.0229 188.474 33.7583 188.699 33.6444L190.865 32.7027C190.98 32.6473 191.09 32.6073 191.204 32.6073C191.318 32.6073 191.429 32.6258 191.521 32.6442L193.348 33.1335C193.415 33.152 193.463 33.1705 193.507 33.2074L194.498 33.8291C194.634 33.903 194.678 34.0353 194.723 34.1307L195.22 35.4294L197.228 35.8633C197.497 35.9187 197.633 36.128 197.633 36.3342C197.604 36.525 197.291 36.7712 197.018 36.7127Z" fill="black"/>
<text fill="black" xml:space="preserve" style="white-space: pre" font-family="Inter" font-size="8" letter-spacing="0em"><tspan x="37.7344" y="191.409">Exam 1</tspan></text>
<text fill="black" xml:space="preserve" style="white-space: pre" font-family="Inter" font-size="8" letter-spacing="0em"><tspan x="306.371" y="175.909">E CR G3</tspan></text>
<text fill="black" xml:space="preserve" style="white-space: pre" font-family="Inter" font-size="8" letter-spacing="0em"><tspan x="34.7383" y="255.909">E. TR G2</tspan></text>
<text fill="black" xml:space="preserve" style="white-space: pre" font-family="Inter" font-size="8" letter-spacing="0em"><tspan x="34.957" y="312.409">E. CR G1</tspan></text>
<text fill="black" xml:space="preserve" style="white-space: pre" font-family="Inter" font-size="8" letter-spacing="0em"><tspan x="178.906" y="383.409">Lift</tspan></text>
<text fill="black" xml:space="preserve" style="white-space: pre" font-family="Inter" font-size="8" letter-spacing="0em"><tspan x="180.406" y="141.909">Lift</tspan></text>
<text fill="black" xml:space="preserve" style="white-space: pre" font-family="Inter" font-size="8" letter-spacing="0em"><tspan x="25.4531" y="55.9091">AMU ROOM 1</tspan></text>
<text fill="black" xml:space="preserve" style="white-space: pre" font-family="Inter" font-size="8" letter-spacing="0em"><tspan x="306.047" y="55.9091">Exam 3</tspan></text>
<rect x="287.5" y="350.5" width="69" height="33" fill="white" stroke="black"/>
<text fill="black" xml:space="preserve" style="white-space: pre" font-family="Inter" font-size="8" letter-spacing="0em"><tspan x="304.465" y="369.909">Staircase</tspan></text>
<text fill="black" xml:space="preserve" style="white-space: pre" font-family="Inter" font-size="8" letter-spacing="0em"><tspan x="90.8203" y="468.909">IBMS Room</tspan></text>
<text fill="black" xml:space="preserve" style="white-space: pre" font-family="Inter" font-size="8" letter-spacing="0em"><tspan x="141.547" y="340.909">Admin </tspan><tspan x="130.93" y="350.909">Department</tspan></text>
<text fill="black" xml:space="preserve" style="white-space: pre" font-family="Inter" font-size="8" letter-spacing="0em"><tspan x="136.75" y="180.909">E. CR G4</tspan></text>
<text fill="black" xml:space="preserve" style="white-space: pre" font-family="Inter" font-size="8" letter-spacing="0em"><tspan x="202.883" y="180.909">E. CR G5</tspan></text>
<text fill="black" xml:space="preserve" style="white-space: pre" font-family="Inter" font-size="8" letter-spacing="0em"><tspan x="197.531" y="340.909">Conference </tspan><tspan x="208.715" y="350.909">Room</tspan></text>
<text fill="black" xml:space="preserve" style="white-space: pre" font-family="Inter" font-size="8" letter-spacing="0em"><tspan x="24.1914" y="468.909">Server Room</tspan></text>
<text fill="black" xml:space="preserve" style="white-space: pre" font-family="Inter" font-size="24" letter-spacing="0em"><tspan x="145.031" y="268.727">Floor G</tspan></text>
<text fill="black" xml:space="preserve" style="white-space: pre" font-family="Inter" font-size="8" letter-spacing="0em"><tspan x="263.188" y="102.909">Exit and Bhagubhai </tspan><tspan x="282.672" y="112.909">Entrance</tspan></text>
<text fill="black" xml:space="preserve" style="white-space: pre" font-family="Inter" font-size="8" letter-spacing="0em"><tspan x="196.391" y="415.409">Cooper Lift Entrance</tspan></text>
<path fill-rule="evenodd" clip-rule="evenodd" d="M315.43 225.154V240.256C315.429 240.549 315.321 240.829 315.129 241.036C314.937 241.243 314.676 241.36 314.404 241.361C314.131 241.36 313.87 241.243 313.678 241.036C313.485 240.829 313.377 240.549 313.375 240.256V231.377H312.971V240.256C312.971 240.549 312.863 240.829 312.67 241.036C312.478 241.243 312.217 241.36 311.945 241.361C311.673 241.36 311.412 241.243 311.219 241.036C311.027 240.829 310.918 240.549 310.917 240.256V225.154H310.559V230.704C310.558 230.926 310.476 231.138 310.329 231.295C310.183 231.451 309.985 231.54 309.779 231.54C309.572 231.539 309.375 231.451 309.229 231.294C309.084 231.137 309.001 230.925 309 230.704V224.736C309 223.765 309.305 223.083 309.857 222.636C310.809 221.865 315.51 221.865 316.462 222.636C317.017 223.09 317.324 223.772 317.321 224.736V230.704C317.32 230.925 317.238 231.137 317.092 231.294C316.946 231.451 316.749 231.539 316.543 231.54C316.338 231.537 316.142 231.448 315.998 231.292C315.853 231.135 315.772 230.924 315.771 230.704V225.154H315.43ZM320.322 217.639C320.322 217.469 320.384 217.307 320.496 217.187C320.607 217.067 320.758 217 320.916 217C321.074 217 321.225 217.067 321.337 217.187C321.448 217.307 321.511 217.469 321.511 217.639V241.361C321.511 241.531 321.448 241.693 321.337 241.813C321.225 241.933 321.074 242 320.916 242C320.758 242 320.607 241.933 320.496 241.813C320.384 241.693 320.322 241.531 320.322 241.361V217.639ZM333.332 224.509C333.344 224.543 333.355 224.577 333.366 224.613L334.971 230.751C334.999 230.86 335.007 230.973 334.994 231.085C334.981 231.197 334.948 231.305 334.896 231.402C334.844 231.5 334.775 231.586 334.692 231.655C334.609 231.724 334.515 231.775 334.414 231.805C334.313 231.835 334.207 231.843 334.103 231.829C334 231.815 333.899 231.78 333.808 231.724C333.717 231.668 333.637 231.594 333.573 231.505C333.508 231.416 333.461 231.315 333.433 231.206L331.851 225.148H331.827H331.491V225.532L333.607 234.566H331.491V240.25C331.49 240.542 331.382 240.822 331.19 241.029C330.998 241.236 330.737 241.353 330.465 241.354C330.193 241.353 329.932 241.236 329.74 241.029C329.548 240.822 329.44 240.542 329.439 240.25V234.566H329.032V240.25C329.031 240.542 328.923 240.823 328.73 241.029C328.537 241.236 328.276 241.353 328.004 241.354C327.734 241.351 327.476 241.235 327.285 241.029C327.095 240.824 326.986 240.546 326.984 240.256V234.573H324.737L326.984 225.3V225.154H326.625H326.595L325.004 231.206C324.948 231.425 324.813 231.612 324.629 231.724C324.445 231.836 324.227 231.865 324.023 231.805C323.819 231.745 323.646 231.6 323.541 231.402C323.437 231.205 323.41 230.971 323.466 230.751L325.038 224.736H325.021C325.262 223.77 325.463 223.083 326.017 222.636C326.969 221.865 331.569 221.865 332.523 222.636C333.035 223.045 333.12 223.6 333.332 224.509ZM329.221 217.639C329.588 217.639 329.947 217.756 330.253 217.975C330.558 218.195 330.796 218.506 330.937 218.871C331.078 219.236 331.114 219.637 331.043 220.024C330.971 220.411 330.794 220.767 330.534 221.046C330.274 221.325 329.943 221.515 329.583 221.592C329.223 221.669 328.849 221.63 328.51 221.479C328.17 221.328 327.88 221.072 327.676 220.744C327.472 220.415 327.363 220.03 327.363 219.635C327.363 219.105 327.559 218.598 327.907 218.223C328.255 217.849 328.728 217.639 329.221 217.639ZM313.16 217.639C313.527 217.639 313.886 217.756 314.192 217.975C314.497 218.195 314.735 218.506 314.876 218.871C315.017 219.236 315.053 219.637 314.982 220.024C314.91 220.411 314.733 220.767 314.473 221.046C314.213 221.325 313.882 221.515 313.522 221.592C313.162 221.669 312.788 221.63 312.449 221.479C312.109 221.328 311.819 221.072 311.615 220.744C311.411 220.415 311.302 220.03 311.302 219.635C311.302 219.105 311.498 218.598 311.846 218.223C312.194 217.849 312.667 217.639 313.16 217.639Z" fill="black"/>
<path d="M347.707 119.707C348.098 119.317 348.098 118.683 347.707 118.293L341.343 111.929C340.953 111.538 340.319 111.538 339.929 111.929C339.538 112.319 339.538 112.953 339.929 113.343L345.586 119L339.929 124.657C339.538 125.047 339.538 125.681 339.929 126.071C340.319 126.462 340.953 126.462 341.343 126.071L347.707 119.707ZM321 120L347 120L347 118L321 118L321 120Z" fill="black"/>
</svg>
