<svg width="374" height="519" viewBox="0 0 374 519" fill="none" xmlns="http://www.w3.org/2000/svg">
<rect x="374" y="519" width="374" height="519" transform="rotate(-180 374 519)" fill="white"/>
<rect x="16.5" y="18.5" width="340" height="482" stroke="black"/>
<rect x="120.5" y="133.5" width="132" height="252" fill="white" stroke="black"/>
<rect x="120.5" y="375.5" width="132" height="10" fill="white" stroke="black"/>
<rect x="120.5" y="133.5" width="132" height="11" fill="white" stroke="black"/>
<rect x="120.5" y="307.5" width="66" height="68" fill="white" stroke="black"/>
<rect x="186.5" y="307.5" width="66" height="68" fill="white" stroke="black"/>
<rect x="120.5" y="144.5" width="66" height="68" fill="white" stroke="black"/>
<rect x="186.5" y="144.5" width="66" height="68" fill="white" stroke="black"/>
<rect x="287.5" y="133.5" width="69" height="42" fill="white" stroke="black"/>
<rect x="287.5" y="133.5" width="69" height="84" fill="white" stroke="black"/>
<rect x="287.5" y="301.5" width="69" height="64" fill="white" stroke="black"/>
<rect x="287.5" y="365.5" width="69" height="20" fill="white" stroke="black"/>
<rect x="287.5" y="217.5" width="69" height="20" fill="white" stroke="black"/>
<path d="M327.982 219.806C327.982 219.523 327.801 219.28 327.554 219.129C327.51 219.111 327.488 219.092 327.44 219.074C327.304 219.018 327.145 219 327.013 219H314.991C314.449 219 314 219.357 314 219.828V221.917H319.029L318.509 221.484C318.373 221.37 318.395 221.2 318.509 221.087L318.848 220.803C318.915 220.748 318.985 220.73 319.073 220.73C319.162 220.73 319.254 220.748 319.32 220.803L320.989 222.219C321.055 222.274 321.077 222.333 321.077 222.407C321.077 222.481 321.033 222.558 320.989 222.613L319.32 224.026C319.184 224.139 318.981 224.139 318.845 224.026L318.506 223.742C318.369 223.629 318.369 223.459 318.506 223.345L319.047 222.911H314.022V235.172C314.022 235.625 314.449 236 314.991 236H327.009C327.551 236 328 235.643 328 235.172L327.982 219.806ZM323.807 224.253C324.485 224.253 325.049 224.724 325.049 225.29C325.049 225.857 324.485 226.306 323.807 226.306C323.129 226.306 322.592 225.854 322.592 225.29C322.592 224.727 323.107 224.253 323.807 224.253ZM319.482 231.427C319.213 231.692 319.033 231.784 318.672 231.765L315.942 231.728C315.603 231.71 315.334 231.427 315.356 231.184C315.378 230.845 315.651 230.657 316.034 230.657L318.535 230.639L319.121 229.977L320.182 230.694L319.482 231.427ZM326.018 229.713L323.785 229.3C323.627 229.263 323.516 229.168 323.446 229.054L322.927 228.094C322.883 228.131 321.733 229.713 321.733 229.713L323.041 230.541C323.446 230.824 323.491 231.085 323.336 231.445L321.984 234.046C321.869 234.292 321.534 234.461 321.195 234.366C320.856 234.27 320.632 233.95 320.79 233.67L321.962 231.316L320.204 230.205C319.729 229.959 319.552 229.488 319.887 229.017L321.464 226.869L320.315 226.531L318.241 227.398C317.972 227.531 317.633 227.417 317.496 227.211C317.382 227.023 317.474 226.758 317.699 226.644L319.865 225.703C319.98 225.647 320.09 225.607 320.204 225.607C320.318 225.607 320.429 225.626 320.521 225.644L322.348 226.134C322.415 226.152 322.463 226.17 322.507 226.207L323.498 226.829C323.634 226.903 323.678 227.035 323.723 227.131L324.22 228.429L326.228 228.863C326.497 228.919 326.633 229.128 326.633 229.334C326.604 229.525 326.291 229.771 326.018 229.713Z" fill="black"/>
<path d="M327.982 367.806C327.982 367.523 327.801 367.28 327.554 367.129C327.51 367.111 327.488 367.092 327.44 367.074C327.304 367.018 327.145 367 327.013 367H314.991C314.449 367 314 367.357 314 367.828V369.917H319.029L318.509 369.484C318.373 369.37 318.395 369.2 318.509 369.087L318.848 368.803C318.915 368.748 318.985 368.73 319.073 368.73C319.162 368.73 319.254 368.748 319.32 368.803L320.989 370.219C321.055 370.274 321.077 370.333 321.077 370.407C321.077 370.481 321.033 370.558 320.989 370.613L319.32 372.026C319.184 372.139 318.981 372.139 318.845 372.026L318.506 371.742C318.369 371.629 318.369 371.459 318.506 371.345L319.047 370.911H314.022V383.172C314.022 383.625 314.449 384 314.991 384H327.009C327.551 384 328 383.643 328 383.172L327.982 367.806ZM323.807 372.253C324.485 372.253 325.049 372.724 325.049 373.29C325.049 373.857 324.485 374.306 323.807 374.306C323.129 374.306 322.592 373.854 322.592 373.29C322.592 372.727 323.107 372.253 323.807 372.253ZM319.482 379.427C319.213 379.692 319.033 379.784 318.672 379.765L315.942 379.728C315.603 379.71 315.334 379.427 315.356 379.184C315.378 378.845 315.651 378.657 316.034 378.657L318.535 378.639L319.121 377.977L320.182 378.694L319.482 379.427ZM326.018 377.713L323.785 377.3C323.627 377.263 323.516 377.168 323.446 377.054L322.927 376.094C322.883 376.131 321.733 377.713 321.733 377.713L323.041 378.541C323.446 378.824 323.491 379.085 323.336 379.445L321.984 382.046C321.869 382.292 321.534 382.461 321.195 382.366C320.856 382.27 320.632 381.95 320.79 381.67L321.962 379.316L320.204 378.205C319.729 377.959 319.552 377.488 319.887 377.017L321.464 374.869L320.315 374.531L318.241 375.398C317.972 375.531 317.633 375.417 317.496 375.211C317.382 375.023 317.474 374.758 317.699 374.644L319.865 373.703C319.98 373.647 320.09 373.607 320.204 373.607C320.318 373.607 320.429 373.626 320.521 373.644L322.348 374.134C322.415 374.152 322.463 374.17 322.507 374.207L323.498 374.829C323.634 374.903 323.678 375.035 323.723 375.131L324.22 376.429L326.228 376.863C326.497 376.919 326.633 377.128 326.633 377.334C326.604 377.525 326.291 377.771 326.018 377.713Z" fill="black"/>
<rect x="16.5" y="133.5" width="69" height="64" fill="white" stroke="black"/>
<rect x="16.5" y="197.5" width="69" height="42" fill="white" stroke="black"/>
<rect x="16.5" y="239.5" width="69" height="42" fill="white" stroke="black"/>
<rect x="16.5" y="281.5" width="69" height="57" fill="white" stroke="black"/>
<text fill="black" xml:space="preserve" style="white-space: pre" font-family="Inter" font-size="8" letter-spacing="0em"><tspan x="22.3125" y="309.909">Girls Common </tspan><tspan x="38.2148" y="319.909">Room</tspan></text>
<rect x="16.5" y="365.5" width="69" height="20" fill="white" stroke="black"/>
<g style="mix-blend-mode:darken">
<rect x="16.5" y="365.5" width="27" height="69" transform="rotate(-90 16.5 365.5)" fill="white"/>
<rect x="16.5" y="365.5" width="27" height="69" transform="rotate(-90 16.5 365.5)" stroke="black"/>
</g>
<path fill-rule="evenodd" clip-rule="evenodd" d="M45.4407 348.176V361.466C45.4402 361.723 45.3486 361.97 45.186 362.152C45.0233 362.334 44.8027 362.437 44.5724 362.438C44.3419 362.437 44.1212 362.334 43.9582 362.152C43.7952 361.97 43.7033 361.723 43.7023 361.466V353.651H43.3604V361.466C43.3599 361.723 43.2683 361.97 43.1056 362.152C42.943 362.334 42.7224 362.437 42.4921 362.438C42.2616 362.437 42.0409 362.334 41.8779 362.152C41.7149 361.97 41.6229 361.723 41.622 361.466V348.176H41.3194V353.059C41.3185 353.255 41.2485 353.442 41.1248 353.579C41.0011 353.717 40.8336 353.795 40.6588 353.795C40.4844 353.794 40.3174 353.717 40.194 353.579C40.0707 353.441 40.0009 353.254 40 353.059V347.808C40 346.954 40.2578 346.353 40.7251 345.959C41.5307 345.281 45.5087 345.281 46.3144 345.959C46.7834 346.359 47.043 346.96 47.0412 347.808V353.059C47.0403 353.254 46.9706 353.441 46.8472 353.579C46.7239 353.717 46.5568 353.794 46.3824 353.795C46.2089 353.793 46.0432 353.714 45.921 353.577C45.7988 353.439 45.7299 353.253 45.7289 353.059V348.176H45.4407ZM49.5798 341.562C49.5798 341.413 49.6328 341.27 49.7272 341.165C49.8215 341.059 49.9495 341 50.0829 341C50.2163 341 50.3443 341.059 50.4386 341.165C50.533 341.27 50.586 341.413 50.586 341.562V362.438C50.586 362.587 50.533 362.73 50.4386 362.835C50.3443 362.941 50.2163 363 50.0829 363C49.9495 363 49.8215 362.941 49.7272 362.835C49.6328 362.73 49.5798 362.587 49.5798 362.438V341.562ZM60.5883 347.608C60.5991 347.638 60.608 347.668 60.617 347.7L61.9758 353.101C61.9993 353.197 62.0058 353.297 61.9948 353.395C61.9838 353.493 61.9556 353.588 61.9118 353.674C61.868 353.76 61.8094 353.836 61.7395 353.897C61.6695 353.957 61.5895 354.002 61.5041 354.029C61.4186 354.055 61.3294 354.062 61.2414 354.05C61.1535 354.037 61.0685 354.006 60.9915 353.957C60.9144 353.908 60.8468 353.843 60.7923 353.764C60.7379 353.686 60.6978 353.597 60.6743 353.501L59.3351 348.17H59.3154H59.0308V348.508L60.8211 356.458H59.0308V361.46C59.0303 361.717 58.9387 361.964 58.7761 362.146C58.6134 362.328 58.3928 362.431 58.1625 362.432C57.9323 362.43 57.712 362.327 57.5495 362.145C57.3869 361.963 57.2952 361.717 57.2942 361.46V356.458H56.9505V361.46C56.9495 361.717 56.8576 361.964 56.6946 362.146C56.5316 362.328 56.3109 362.431 56.0804 362.432C55.8519 362.429 55.6335 362.327 55.4722 362.146C55.3108 361.965 55.2193 361.721 55.2175 361.466V356.464H53.3162L55.2175 348.304V348.176H54.9131H54.8881L53.5418 353.501C53.4943 353.694 53.3802 353.858 53.2246 353.957C53.0689 354.056 52.8846 354.082 52.712 354.029C52.5394 353.975 52.3927 353.848 52.3042 353.674C52.2158 353.5 52.1927 353.294 52.2402 353.101L53.5704 347.808H53.5561C53.7602 346.958 53.9303 346.353 54.3993 345.959C55.2049 345.281 59.097 345.281 59.9045 345.959C60.3377 346.319 60.4093 346.808 60.5883 347.608ZM57.1098 341.562C57.4207 341.562 57.7246 341.665 57.9831 341.858C58.2416 342.051 58.4431 342.326 58.562 342.646C58.681 342.967 58.7121 343.321 58.6515 343.661C58.5908 344.002 58.4411 344.315 58.2213 344.561C58.0015 344.806 57.7214 344.974 57.4165 345.041C57.1116 345.109 56.7955 345.074 56.5083 344.941C56.2211 344.808 55.9756 344.583 55.8028 344.294C55.6301 344.006 55.5379 343.666 55.5379 343.319C55.5379 342.853 55.7035 342.406 55.9983 342.077C56.2931 341.747 56.6929 341.562 57.1098 341.562ZM43.5197 341.562C43.8306 341.562 44.1345 341.665 44.393 341.858C44.6515 342.051 44.853 342.326 44.9719 342.646C45.0909 342.967 45.122 343.321 45.0614 343.661C45.0007 344.002 44.851 344.315 44.6312 344.561C44.4114 344.806 44.1313 344.974 43.8264 345.041C43.5215 345.109 43.2054 345.074 42.9182 344.941C42.631 344.808 42.3855 344.583 42.2127 344.294C42.04 344.006 41.9478 343.666 41.9478 343.319C41.9478 342.853 42.1134 342.406 42.4082 342.077C42.703 341.747 43.1028 341.562 43.5197 341.562Z" fill="black"/>
<path d="M55.9816 367.806C55.9816 367.523 55.8011 367.28 55.5542 367.129C55.51 367.111 55.4879 367.092 55.44 367.074C55.3037 367.018 55.1453 367 55.0126 367H42.9911C42.4495 367 42 367.357 42 367.828V369.917H47.0289L46.5095 369.484C46.3732 369.37 46.3953 369.2 46.5095 369.087L46.8484 368.803C46.9147 368.748 46.9847 368.73 47.0732 368.73C47.1616 368.73 47.2537 368.748 47.32 368.803L48.9889 370.219C49.0553 370.274 49.0773 370.333 49.0773 370.407C49.0773 370.481 49.0332 370.558 48.9889 370.613L47.32 372.026C47.1837 372.139 46.9811 372.139 46.8447 372.026L46.5058 371.742C46.3695 371.629 46.3695 371.459 46.5058 371.345L47.0474 370.911H42.0221V383.172C42.0221 383.625 42.4495 384 42.9911 384H55.0089C55.5505 384 56 383.643 56 383.172L55.9816 367.806ZM51.8074 372.253C52.4852 372.253 53.0489 372.724 53.0489 373.29C53.0489 373.857 52.4852 374.306 51.8074 374.306C51.1295 374.306 50.5916 373.854 50.5916 373.29C50.5916 372.727 51.1074 372.253 51.8074 372.253ZM47.4821 379.427C47.2132 379.692 47.0326 379.784 46.6716 379.765L43.9416 379.728C43.6026 379.71 43.3337 379.427 43.3558 379.184C43.3779 378.845 43.6505 378.657 44.0337 378.657L46.5353 378.639L47.1211 377.977L48.1821 378.694L47.4821 379.427ZM54.0179 377.713L51.7853 377.3C51.6268 377.263 51.5163 377.168 51.4464 377.054L50.9268 376.094C50.8826 376.131 49.7332 377.713 49.7332 377.713L51.0411 378.541C51.4464 378.824 51.4905 379.085 51.3358 379.445L49.9837 382.046C49.8695 382.292 49.5342 382.461 49.1953 382.366C48.8564 382.27 48.6316 381.95 48.79 381.67L49.9616 379.316L48.2042 378.205C47.729 377.959 47.5521 377.488 47.8874 377.017L49.4642 374.869L48.3148 374.531L46.2406 375.398C45.9716 375.531 45.6327 375.417 45.4964 375.211C45.3821 375.023 45.4742 374.758 45.699 374.644L47.8653 373.703C47.9795 373.647 48.09 373.607 48.2042 373.607C48.3185 373.607 48.429 373.626 48.5211 373.644L50.3485 374.134C50.4148 374.152 50.4627 374.17 50.5069 374.207L51.4979 374.829C51.6342 374.903 51.6784 375.035 51.7227 375.131L52.22 376.429L54.2279 376.863C54.4969 376.919 54.6332 377.128 54.6332 377.334C54.6037 377.525 54.2905 377.771 54.0179 377.713Z" fill="black"/>
<rect x="16.5" y="18.5" width="138" height="69" fill="white" stroke="black"/>
<rect x="218.5" y="18.5" width="138" height="69" fill="white" stroke="black"/>
<rect x="16.5" y="431.5" width="64" height="69" fill="white" stroke="black"/>
<rect x="80.5" y="431.5" width="64" height="69" fill="white" stroke="black"/>
<path d="M272.5 431.5H356.5V500.5H272.5V431.5Z" fill="white" stroke="black"/>
<path d="M230.5 431.5H296.5V500.5H230.5V431.5Z" fill="white" stroke="black"/>
<rect x="154.5" y="18.5" width="27" height="69" fill="white" stroke="black"/>
<path fill-rule="evenodd" clip-rule="evenodd" d="M162.441 46.176V59.4656C162.44 59.7229 162.349 59.9696 162.186 60.1518C162.023 60.334 161.803 60.4368 161.572 60.4378C161.342 60.4368 161.121 60.334 160.958 60.1519C160.795 59.9698 160.703 59.7231 160.702 59.4656V51.6515H160.36V59.4656C160.36 59.7229 160.268 59.9696 160.106 60.1518C159.943 60.334 159.722 60.4368 159.492 60.4378C159.262 60.4368 159.041 60.334 158.878 60.1519C158.715 59.9698 158.623 59.7231 158.622 59.4656V46.176H158.319V51.0593C158.319 51.2546 158.249 51.4415 158.125 51.5794C158.001 51.7173 157.834 51.795 157.659 51.7955C157.484 51.7944 157.317 51.7165 157.194 51.5787C157.071 51.4409 157.001 51.2542 157 51.0593V45.8079C157 44.9536 157.258 44.3535 157.725 43.9594C158.531 43.2812 162.509 43.2812 163.314 43.9594C163.783 44.3595 164.043 44.9596 164.041 45.8079V51.0593C164.04 51.2542 163.971 51.4409 163.847 51.5787C163.724 51.7165 163.557 51.7944 163.382 51.7955C163.209 51.7929 163.043 51.7143 162.921 51.5766C162.799 51.4389 162.73 51.2532 162.729 51.0593V46.176H162.441ZM166.58 39.5622C166.58 39.4131 166.633 39.2701 166.727 39.1647C166.822 39.0592 166.949 39 167.083 39C167.216 39 167.344 39.0592 167.439 39.1647C167.533 39.2701 167.586 39.4131 167.586 39.5622V60.4378C167.586 60.5869 167.533 60.7299 167.439 60.8353C167.344 60.9408 167.216 61 167.083 61C166.949 61 166.822 60.9408 166.727 60.8353C166.633 60.7299 166.58 60.5869 166.58 60.4378V39.5622ZM177.588 45.6078C177.599 45.6378 177.608 45.6678 177.617 45.6998L178.976 51.1013C178.999 51.1968 179.006 51.2965 178.995 51.3948C178.984 51.4931 178.956 51.588 178.912 51.6741C178.868 51.7602 178.809 51.8358 178.739 51.8966C178.67 51.9575 178.59 52.0023 178.504 52.0286C178.419 52.0548 178.329 52.062 178.241 52.0498C178.153 52.0375 178.069 52.006 177.991 51.957C177.914 51.9081 177.847 51.8426 177.792 51.7645C177.738 51.6863 177.698 51.5969 177.674 51.5014L176.335 46.17H176.315H176.031V46.508L177.821 54.4582H176.031V59.4596C176.03 59.7169 175.939 59.9636 175.776 60.1458C175.613 60.328 175.393 60.4308 175.163 60.4318C174.932 60.4303 174.712 60.3273 174.549 60.1452C174.387 59.9632 174.295 59.7168 174.294 59.4596V54.4582H173.95V59.4596C173.95 59.7171 173.858 59.9638 173.695 60.1459C173.532 60.328 173.311 60.4308 173.08 60.4318C172.852 60.4292 172.634 60.3265 172.472 60.1458C172.311 59.9651 172.219 59.7209 172.217 59.4656V54.4642H170.316L172.217 46.304V46.176H171.913H171.888L170.542 51.5014C170.494 51.6943 170.38 51.8582 170.225 51.957C170.069 52.0559 169.885 52.0816 169.712 52.0286C169.539 51.9755 169.393 51.848 169.304 51.6741C169.216 51.5002 169.193 51.2942 169.24 51.1013L170.57 45.8079H170.556C170.76 44.9576 170.93 44.3535 171.399 43.9594C172.205 43.2812 176.097 43.2812 176.904 43.9594C177.338 44.3195 177.409 44.8076 177.588 45.6078ZM174.11 39.5622C174.421 39.5622 174.725 39.6652 174.983 39.8582C175.242 40.0512 175.443 40.3255 175.562 40.6465C175.681 40.9674 175.712 41.3206 175.651 41.6613C175.591 42.002 175.441 42.315 175.221 42.5607C175.001 42.8063 174.721 42.9736 174.416 43.0414C174.112 43.1091 173.796 43.0744 173.508 42.9414C173.221 42.8085 172.976 42.5833 172.803 42.2945C172.63 42.0056 172.538 41.666 172.538 41.3186C172.538 40.8528 172.704 40.406 172.998 40.0766C173.293 39.7472 173.693 39.5622 174.11 39.5622ZM160.52 39.5622C160.831 39.5622 161.135 39.6652 161.393 39.8582C161.651 40.0512 161.853 40.3255 161.972 40.6465C162.091 40.9674 162.122 41.3206 162.061 41.6613C162.001 42.002 161.851 42.315 161.631 42.5607C161.411 42.8063 161.131 42.9736 160.826 43.0414C160.521 43.1091 160.205 43.0744 159.918 42.9414C159.631 42.8085 159.385 42.5833 159.213 42.2945C159.04 42.0056 158.948 41.666 158.948 41.3186C158.948 40.8528 159.113 40.406 159.408 40.0766C159.703 39.7472 160.103 39.5622 160.52 39.5622Z" fill="black"/>
<rect x="181.5" y="18.5" width="20" height="69" fill="white" stroke="black"/>
<path d="M185.293 125.707C185.683 126.098 186.317 126.098 186.707 125.707L193.071 119.343C193.462 118.953 193.462 118.319 193.071 117.929C192.681 117.538 192.047 117.538 191.657 117.929L186 123.586L180.343 117.929C179.953 117.538 179.319 117.538 178.929 117.929C178.538 118.319 178.538 118.953 178.929 119.343L185.293 125.707ZM185 105L185 125L187 125L187 105L185 105Z" fill="black"/>
<path d="M185.707 392.293C185.317 391.902 184.683 391.902 184.293 392.293L177.929 398.657C177.538 399.047 177.538 399.681 177.929 400.071C178.319 400.462 178.953 400.462 179.343 400.071L185 394.414L190.657 400.071C191.047 400.462 191.681 400.462 192.071 400.071C192.462 399.681 192.462 399.047 192.071 398.657L185.707 392.293ZM186 413L186 393L184 393L184 413L186 413Z" fill="black"/>
<path d="M197.982 41.8063C197.982 41.5232 197.801 41.2801 197.554 41.1293C197.51 41.1108 197.488 41.0923 197.44 41.0739C197.304 41.0185 197.145 41 197.013 41H184.991C184.449 41 184 41.357 184 41.8278V43.9175H189.029L188.509 43.4835C188.373 43.3697 188.395 43.2004 188.509 43.0865L188.848 42.8034C188.915 42.748 188.985 42.7295 189.073 42.7295C189.162 42.7295 189.254 42.748 189.32 42.8034L190.989 44.219C191.055 44.2744 191.077 44.3329 191.077 44.4068C191.077 44.4806 191.033 44.5576 190.989 44.613L189.32 46.0255C189.184 46.1394 188.981 46.1394 188.845 46.0255L188.506 45.7424C188.369 45.6285 188.369 45.4593 188.506 45.3454L189.047 44.9115H184.022V57.1722C184.022 57.6245 184.449 58 184.991 58H197.009C197.551 58 198 57.643 198 57.1722L197.982 41.8063ZM193.807 46.2533C194.485 46.2533 195.049 46.7241 195.049 47.2904C195.049 47.8566 194.485 48.3059 193.807 48.3059C193.129 48.3059 192.592 47.8535 192.592 47.2904C192.592 46.7272 193.107 46.2533 193.807 46.2533ZM189.482 53.4269C189.213 53.6916 189.033 53.7839 188.672 53.7654L185.942 53.7285C185.603 53.71 185.334 53.4269 185.356 53.1838C185.378 52.8453 185.651 52.6575 186.034 52.6575L188.535 52.639L189.121 51.9774L190.182 52.6944L189.482 53.4269ZM196.018 51.7127L193.785 51.3003C193.627 51.2634 193.516 51.168 193.446 51.0541L192.927 50.094C192.883 50.1309 191.733 51.7127 191.733 51.7127L193.041 52.5405C193.446 52.8237 193.491 53.0853 193.336 53.4453L191.984 56.0458C191.869 56.292 191.534 56.4613 191.195 56.3658C190.856 56.2704 190.632 55.9504 190.79 55.6703L191.962 53.316L190.204 52.2051C189.729 51.9589 189.552 51.488 189.887 51.0171L191.464 48.8691L190.315 48.5305L188.241 49.3984C187.972 49.5307 187.633 49.4168 187.496 49.2107C187.382 49.0229 187.474 48.7583 187.699 48.6444L189.865 47.7027C189.98 47.6473 190.09 47.6073 190.204 47.6073C190.318 47.6073 190.429 47.6258 190.521 47.6442L192.348 48.1335C192.415 48.152 192.463 48.1705 192.507 48.2074L193.498 48.8291C193.634 48.903 193.678 49.0353 193.723 49.1307L194.22 50.4294L196.228 50.8633C196.497 50.9187 196.633 51.128 196.633 51.3342C196.604 51.525 196.291 51.7712 196.018 51.7127Z" fill="black"/>
<text fill="black" xml:space="preserve" style="white-space: pre" font-family="Inter" font-size="8" letter-spacing="0em"><tspan x="32.1953" y="167.909">E. CR 303</tspan></text>
<text fill="black" xml:space="preserve" style="white-space: pre" font-family="Inter" font-size="8" letter-spacing="0em"><tspan x="303.176" y="186.909">E. CR 304</tspan></text>
<text fill="black" xml:space="preserve" style="white-space: pre" font-family="Inter" font-size="8" letter-spacing="0em"><tspan x="32.6641" y="220.909">E. TR 302</tspan></text>
<text fill="black" xml:space="preserve" style="white-space: pre" font-family="Inter" font-size="8" letter-spacing="0em"><tspan x="33.2266" y="262.909">E. TR 301</tspan></text>
<text fill="black" xml:space="preserve" style="white-space: pre" font-family="Inter" font-size="8" letter-spacing="0em"><tspan x="178.906" y="383.409">Lift</tspan></text>
<text fill="black" xml:space="preserve" style="white-space: pre" font-family="Inter" font-size="8" letter-spacing="0em"><tspan x="180.406" y="141.909">Lift</tspan></text>
<text fill="black" xml:space="preserve" style="white-space: pre" font-family="Inter" font-size="8" letter-spacing="0em"><tspan x="53.2852" y="55.9091">Faculty Area 302</tspan></text>
<text fill="black" xml:space="preserve" style="white-space: pre" font-family="Inter" font-size="8" letter-spacing="0em"><tspan x="255.848" y="55.9091">Faculty Area 301</tspan></text>
<rect x="287.5" y="237.5" width="69" height="64" fill="white" stroke="black"/>
<text fill="black" xml:space="preserve" style="white-space: pre" font-family="Inter" font-size="8" letter-spacing="0em"><tspan x="303.309" y="271.909">E. CR 305</tspan></text>
<text fill="black" xml:space="preserve" style="white-space: pre" font-family="Inter" font-size="8" letter-spacing="0em"><tspan x="303.246" y="336.909">E. CR 306</tspan></text>
<text fill="black" xml:space="preserve" style="white-space: pre" font-family="Inter" font-size="8" letter-spacing="0em"><tspan x="243.031" y="468.909">E. CC 301</tspan></text>
<text fill="black" xml:space="preserve" style="white-space: pre" font-family="Inter" font-size="8" letter-spacing="0em"><tspan x="94.3828" y="468.909">E. CR 301</tspan></text>
<text fill="black" xml:space="preserve" style="white-space: pre" font-family="Inter" font-size="8" letter-spacing="0em"><tspan x="134.777" y="345.909">E. CR 308</tspan></text>
<text fill="black" xml:space="preserve" style="white-space: pre" font-family="Inter" font-size="8" letter-spacing="0em"><tspan x="134.746" y="180.909">E. CR 309</tspan></text>
<text fill="black" xml:space="preserve" style="white-space: pre" font-family="Inter" font-size="8" letter-spacing="0em"><tspan x="201.383" y="180.909">E. CR 310</tspan></text>
<text fill="black" xml:space="preserve" style="white-space: pre" font-family="Inter" font-size="8" letter-spacing="0em"><tspan x="201.035" y="345.909">E. CR 307</tspan></text>
<text fill="black" xml:space="preserve" style="white-space: pre" font-family="Inter" font-size="8" letter-spacing="0em"><tspan x="29.8203" y="468.909">E. CR 302</tspan></text>
<text fill="black" xml:space="preserve" style="white-space: pre" font-family="Inter" font-size="8" letter-spacing="0em"><tspan x="310.039" y="468.909">E. TR 303</tspan></text>
<text fill="black" xml:space="preserve" style="white-space: pre" font-family="Inter" font-size="24" letter-spacing="0em"><tspan x="146.309" y="268.727">Floor 3</tspan></text>
<text fill="black" xml:space="preserve" style="white-space: pre" font-family="Inter" font-size="8" letter-spacing="0em"><tspan x="190.297" y="106.409">Bhagubhai Lift Entrance</tspan></text>
<text fill="black" xml:space="preserve" style="white-space: pre" font-family="Inter" font-size="8" letter-spacing="0em"><tspan x="196.391" y="415.409">Cooper Lift Entrance</tspan></text>
</svg>
