<svg width="374" height="519" viewBox="0 0 374 519" fill="none" xmlns="http://www.w3.org/2000/svg">
<rect x="374" y="519" width="374" height="519" transform="rotate(-180 374 519)" fill="white"/>
<rect x="16.5" y="18.5" width="340" height="482" stroke="black"/>
<rect x="120.5" y="133.5" width="132" height="252" fill="white" stroke="black"/>
<rect x="120.5" y="375.5" width="132" height="10" fill="white" stroke="black"/>
<rect x="120.5" y="133.5" width="132" height="11" fill="white" stroke="black"/>
<rect x="120.5" y="307.5" width="66" height="68" fill="white" stroke="black"/>
<rect x="186.5" y="307.5" width="66" height="68" fill="white" stroke="black"/>
<rect x="120.5" y="144.5" width="66" height="68" fill="white" stroke="black"/>
<rect x="186.5" y="144.5" width="66" height="68" fill="white" stroke="black"/>
<rect x="287.5" y="133.5" width="69" height="106" fill="white" stroke="black"/>
<rect x="287.5" y="365.5" width="69" height="20" fill="white" stroke="black"/>
<rect x="287.5" y="239.5" width="69" height="20" fill="white" stroke="black"/>
<path d="M327.982 241.806C327.982 241.523 327.801 241.28 327.554 241.129C327.51 241.111 327.488 241.092 327.44 241.074C327.304 241.018 327.145 241 327.013 241H314.991C314.449 241 314 241.357 314 241.828V243.917H319.029L318.509 243.484C318.373 243.37 318.395 243.2 318.509 243.087L318.848 242.803C318.915 242.748 318.985 242.73 319.073 242.73C319.162 242.73 319.254 242.748 319.32 242.803L320.989 244.219C321.055 244.274 321.077 244.333 321.077 244.407C321.077 244.481 321.033 244.558 320.989 244.613L319.32 246.026C319.184 246.139 318.981 246.139 318.845 246.026L318.506 245.742C318.369 245.629 318.369 245.459 318.506 245.345L319.047 244.911H314.022V257.172C314.022 257.625 314.449 258 314.991 258H327.009C327.551 258 328 257.643 328 257.172L327.982 241.806ZM323.807 246.253C324.485 246.253 325.049 246.724 325.049 247.29C325.049 247.857 324.485 248.306 323.807 248.306C323.129 248.306 322.592 247.854 322.592 247.29C322.592 246.727 323.107 246.253 323.807 246.253ZM319.482 253.427C319.213 253.692 319.033 253.784 318.672 253.765L315.942 253.728C315.603 253.71 315.334 253.427 315.356 253.184C315.378 252.845 315.651 252.657 316.034 252.657L318.535 252.639L319.121 251.977L320.182 252.694L319.482 253.427ZM326.018 251.713L323.785 251.3C323.627 251.263 323.516 251.168 323.446 251.054L322.927 250.094C322.883 250.131 321.733 251.713 321.733 251.713L323.041 252.541C323.446 252.824 323.491 253.085 323.336 253.445L321.984 256.046C321.869 256.292 321.534 256.461 321.195 256.366C320.856 256.27 320.632 255.95 320.79 255.67L321.962 253.316L320.204 252.205C319.729 251.959 319.552 251.488 319.887 251.017L321.464 248.869L320.315 248.531L318.241 249.398C317.972 249.531 317.633 249.417 317.496 249.211C317.382 249.023 317.474 248.758 317.699 248.644L319.865 247.703C319.98 247.647 320.09 247.607 320.204 247.607C320.318 247.607 320.429 247.626 320.521 247.644L322.348 248.134C322.415 248.152 322.463 248.17 322.507 248.207L323.498 248.829C323.634 248.903 323.678 249.035 323.723 249.131L324.22 250.429L326.228 250.863C326.497 250.919 326.633 251.128 326.633 251.334C326.604 251.525 326.291 251.771 326.018 251.713Z" fill="black"/>
<path d="M327.982 367.806C327.982 367.523 327.801 367.28 327.554 367.129C327.51 367.111 327.488 367.092 327.44 367.074C327.304 367.018 327.145 367 327.013 367H314.991C314.449 367 314 367.357 314 367.828V369.917H319.029L318.509 369.484C318.373 369.37 318.395 369.2 318.509 369.087L318.848 368.803C318.915 368.748 318.985 368.73 319.073 368.73C319.162 368.73 319.254 368.748 319.32 368.803L320.989 370.219C321.055 370.274 321.077 370.333 321.077 370.407C321.077 370.481 321.033 370.558 320.989 370.613L319.32 372.026C319.184 372.139 318.981 372.139 318.845 372.026L318.506 371.742C318.369 371.629 318.369 371.459 318.506 371.345L319.047 370.911H314.022V383.172C314.022 383.625 314.449 384 314.991 384H327.009C327.551 384 328 383.643 328 383.172L327.982 367.806ZM323.807 372.253C324.485 372.253 325.049 372.724 325.049 373.29C325.049 373.857 324.485 374.306 323.807 374.306C323.129 374.306 322.592 373.854 322.592 373.29C322.592 372.727 323.107 372.253 323.807 372.253ZM319.482 379.427C319.213 379.692 319.033 379.784 318.672 379.765L315.942 379.728C315.603 379.71 315.334 379.427 315.356 379.184C315.378 378.845 315.651 378.657 316.034 378.657L318.535 378.639L319.121 377.977L320.182 378.694L319.482 379.427ZM326.018 377.713L323.785 377.3C323.627 377.263 323.516 377.168 323.446 377.054L322.927 376.094C322.883 376.131 321.733 377.713 321.733 377.713L323.041 378.541C323.446 378.824 323.491 379.085 323.336 379.445L321.984 382.046C321.869 382.292 321.534 382.461 321.195 382.366C320.856 382.27 320.632 381.95 320.79 381.67L321.962 379.316L320.204 378.205C319.729 377.959 319.552 377.488 319.887 377.017L321.464 374.869L320.315 374.531L318.241 375.398C317.972 375.531 317.633 375.417 317.496 375.211C317.382 375.023 317.474 374.758 317.699 374.644L319.865 373.703C319.98 373.647 320.09 373.607 320.204 373.607C320.318 373.607 320.429 373.626 320.521 373.644L322.348 374.134C322.415 374.152 322.463 374.17 322.507 374.207L323.498 374.829C323.634 374.903 323.678 375.035 323.723 375.131L324.22 376.429L326.228 376.863C326.497 376.919 326.633 377.128 326.633 377.334C326.604 377.525 326.291 377.771 326.018 377.713Z" fill="black"/>
<rect x="16.5" y="133.5" width="69" height="49" fill="white" stroke="black"/>
<rect x="16.5" y="182.5" width="69" height="49" fill="white" stroke="black"/>
<rect x="16.5" y="231.5" width="69" height="49" fill="white" stroke="black"/>
<rect x="16.5" y="327.5" width="69" height="28" fill="white" stroke="black"/>
<rect x="16.5" y="355.5" width="69" height="30" fill="white" stroke="black"/>
<rect x="16.5" y="307.5" width="69" height="20" fill="white" stroke="black"/>
<g style="mix-blend-mode:darken">
<rect x="16.5" y="307.5" width="27" height="69" transform="rotate(-90 16.5 307.5)" fill="white"/>
<rect x="16.5" y="307.5" width="27" height="69" transform="rotate(-90 16.5 307.5)" stroke="black"/>
</g>
<path fill-rule="evenodd" clip-rule="evenodd" d="M45.4407 290.176V303.466C45.4402 303.723 45.3486 303.97 45.186 304.152C45.0233 304.334 44.8027 304.437 44.5724 304.438C44.3419 304.437 44.1212 304.334 43.9582 304.152C43.7952 303.97 43.7033 303.723 43.7023 303.466V295.651H43.3604V303.466C43.3599 303.723 43.2683 303.97 43.1056 304.152C42.943 304.334 42.7224 304.437 42.4921 304.438C42.2616 304.437 42.0409 304.334 41.8779 304.152C41.7149 303.97 41.6229 303.723 41.622 303.466V290.176H41.3194V295.059C41.3185 295.255 41.2485 295.442 41.1248 295.579C41.0011 295.717 40.8336 295.795 40.6588 295.795C40.4844 295.794 40.3174 295.717 40.194 295.579C40.0707 295.441 40.0009 295.254 40 295.059V289.808C40 288.954 40.2578 288.353 40.7251 287.959C41.5307 287.281 45.5087 287.281 46.3144 287.959C46.7834 288.359 47.043 288.96 47.0412 289.808V295.059C47.0403 295.254 46.9706 295.441 46.8472 295.579C46.7239 295.717 46.5568 295.794 46.3824 295.795C46.2089 295.793 46.0432 295.714 45.921 295.577C45.7988 295.439 45.7299 295.253 45.7289 295.059V290.176H45.4407ZM49.5798 283.562C49.5798 283.413 49.6328 283.27 49.7272 283.165C49.8215 283.059 49.9495 283 50.0829 283C50.2163 283 50.3443 283.059 50.4386 283.165C50.533 283.27 50.586 283.413 50.586 283.562V304.438C50.586 304.587 50.533 304.73 50.4386 304.835C50.3443 304.941 50.2163 305 50.0829 305C49.9495 305 49.8215 304.941 49.7272 304.835C49.6328 304.73 49.5798 304.587 49.5798 304.438V283.562ZM60.5883 289.608C60.5991 289.638 60.608 289.668 60.617 289.7L61.9758 295.101C61.9993 295.197 62.0058 295.297 61.9948 295.395C61.9838 295.493 61.9556 295.588 61.9118 295.674C61.868 295.76 61.8094 295.836 61.7395 295.897C61.6695 295.957 61.5895 296.002 61.5041 296.029C61.4186 296.055 61.3294 296.062 61.2414 296.05C61.1535 296.037 61.0685 296.006 60.9915 295.957C60.9144 295.908 60.8468 295.843 60.7923 295.764C60.7379 295.686 60.6978 295.597 60.6743 295.501L59.3351 290.17H59.3154H59.0308V290.508L60.8211 298.458H59.0308V303.46C59.0303 303.717 58.9387 303.964 58.7761 304.146C58.6134 304.328 58.3928 304.431 58.1625 304.432C57.9323 304.43 57.712 304.327 57.5495 304.145C57.3869 303.963 57.2952 303.717 57.2942 303.46V298.458H56.9505V303.46C56.9495 303.717 56.8576 303.964 56.6946 304.146C56.5316 304.328 56.3109 304.431 56.0804 304.432C55.8519 304.429 55.6335 304.327 55.4722 304.146C55.3108 303.965 55.2193 303.721 55.2175 303.466V298.464H53.3162L55.2175 290.304V290.176H54.9131H54.8881L53.5418 295.501C53.4943 295.694 53.3802 295.858 53.2246 295.957C53.0689 296.056 52.8846 296.082 52.712 296.029C52.5394 295.975 52.3927 295.848 52.3042 295.674C52.2158 295.5 52.1927 295.294 52.2402 295.101L53.5704 289.808H53.5561C53.7602 288.958 53.9303 288.353 54.3993 287.959C55.2049 287.281 59.097 287.281 59.9045 287.959C60.3377 288.319 60.4093 288.808 60.5883 289.608ZM57.1098 283.562C57.4207 283.562 57.7246 283.665 57.9831 283.858C58.2416 284.051 58.4431 284.326 58.562 284.646C58.681 284.967 58.7121 285.321 58.6515 285.661C58.5908 286.002 58.4411 286.315 58.2213 286.561C58.0015 286.806 57.7214 286.974 57.4165 287.041C57.1116 287.109 56.7955 287.074 56.5083 286.941C56.2211 286.808 55.9756 286.583 55.8028 286.294C55.6301 286.006 55.5379 285.666 55.5379 285.319C55.5379 284.853 55.7035 284.406 55.9983 284.077C56.2931 283.747 56.6929 283.562 57.1098 283.562ZM43.5197 283.562C43.8306 283.562 44.1345 283.665 44.393 283.858C44.6515 284.051 44.853 284.326 44.9719 284.646C45.0909 284.967 45.122 285.321 45.0614 285.661C45.0007 286.002 44.851 286.315 44.6312 286.561C44.4114 286.806 44.1313 286.974 43.8264 287.041C43.5215 287.109 43.2054 287.074 42.9182 286.941C42.631 286.808 42.3855 286.583 42.2127 286.294C42.04 286.006 41.9478 285.666 41.9478 285.319C41.9478 284.853 42.1134 284.406 42.4082 284.077C42.703 283.747 43.1028 283.562 43.5197 283.562Z" fill="black"/>
<path d="M55.9816 309.806C55.9816 309.523 55.8011 309.28 55.5542 309.129C55.51 309.111 55.4879 309.092 55.44 309.074C55.3037 309.018 55.1453 309 55.0126 309H42.9911C42.4495 309 42 309.357 42 309.828V311.917H47.0289L46.5095 311.484C46.3732 311.37 46.3953 311.2 46.5095 311.087L46.8484 310.803C46.9147 310.748 46.9847 310.73 47.0732 310.73C47.1616 310.73 47.2537 310.748 47.32 310.803L48.9889 312.219C49.0553 312.274 49.0773 312.333 49.0773 312.407C49.0773 312.481 49.0332 312.558 48.9889 312.613L47.32 314.026C47.1837 314.139 46.9811 314.139 46.8447 314.026L46.5058 313.742C46.3695 313.629 46.3695 313.459 46.5058 313.345L47.0474 312.911H42.0221V325.172C42.0221 325.625 42.4495 326 42.9911 326H55.0089C55.5505 326 56 325.643 56 325.172L55.9816 309.806ZM51.8074 314.253C52.4852 314.253 53.0489 314.724 53.0489 315.29C53.0489 315.857 52.4852 316.306 51.8074 316.306C51.1295 316.306 50.5916 315.854 50.5916 315.29C50.5916 314.727 51.1074 314.253 51.8074 314.253ZM47.4821 321.427C47.2132 321.692 47.0326 321.784 46.6716 321.765L43.9416 321.728C43.6026 321.71 43.3337 321.427 43.3558 321.184C43.3779 320.845 43.6505 320.657 44.0337 320.657L46.5353 320.639L47.1211 319.977L48.1821 320.694L47.4821 321.427ZM54.0179 319.713L51.7853 319.3C51.6268 319.263 51.5163 319.168 51.4464 319.054L50.9268 318.094C50.8826 318.131 49.7332 319.713 49.7332 319.713L51.0411 320.541C51.4464 320.824 51.4905 321.085 51.3358 321.445L49.9837 324.046C49.8695 324.292 49.5342 324.461 49.1953 324.366C48.8564 324.27 48.6316 323.95 48.79 323.67L49.9616 321.316L48.2042 320.205C47.729 319.959 47.5521 319.488 47.8874 319.017L49.4642 316.869L48.3148 316.531L46.2406 317.398C45.9716 317.531 45.6327 317.417 45.4964 317.211C45.3821 317.023 45.4742 316.758 45.699 316.644L47.8653 315.703C47.9795 315.647 48.09 315.607 48.2042 315.607C48.3185 315.607 48.429 315.626 48.5211 315.644L50.3485 316.134C50.4148 316.152 50.4627 316.17 50.5069 316.207L51.4979 316.829C51.6342 316.903 51.6784 317.035 51.7227 317.131L52.22 318.429L54.2279 318.863C54.4969 318.919 54.6332 319.128 54.6332 319.334C54.6037 319.525 54.2905 319.771 54.0179 319.713Z" fill="black"/>
<rect x="16.5" y="18.5" width="138" height="69" fill="white" stroke="black"/>
<rect x="218.5" y="18.5" width="138" height="69" fill="white" stroke="black"/>
<rect x="16.5" y="431.5" width="66" height="69" fill="white" stroke="black"/>
<rect x="82.5" y="431.5" width="66" height="69" fill="white" stroke="black"/>
<path d="M296.5 431.5H356.5V500.5H296.5V431.5Z" fill="white" stroke="black"/>
<path d="M230.5 431.5H296.5V500.5H230.5V431.5Z" fill="white" stroke="black"/>
<rect x="154.5" y="18.5" width="27" height="69" fill="white" stroke="black"/>
<path fill-rule="evenodd" clip-rule="evenodd" d="M162.441 46.176V59.4656C162.44 59.7229 162.349 59.9696 162.186 60.1518C162.023 60.334 161.803 60.4368 161.572 60.4378C161.342 60.4368 161.121 60.334 160.958 60.1519C160.795 59.9698 160.703 59.7231 160.702 59.4656V51.6515H160.36V59.4656C160.36 59.7229 160.268 59.9696 160.106 60.1518C159.943 60.334 159.722 60.4368 159.492 60.4378C159.262 60.4368 159.041 60.334 158.878 60.1519C158.715 59.9698 158.623 59.7231 158.622 59.4656V46.176H158.319V51.0593C158.319 51.2546 158.249 51.4415 158.125 51.5794C158.001 51.7173 157.834 51.795 157.659 51.7955C157.484 51.7944 157.317 51.7165 157.194 51.5787C157.071 51.4409 157.001 51.2542 157 51.0593V45.8079C157 44.9536 157.258 44.3535 157.725 43.9594C158.531 43.2812 162.509 43.2812 163.314 43.9594C163.783 44.3595 164.043 44.9596 164.041 45.8079V51.0593C164.04 51.2542 163.971 51.4409 163.847 51.5787C163.724 51.7165 163.557 51.7944 163.382 51.7955C163.209 51.7929 163.043 51.7143 162.921 51.5766C162.799 51.4389 162.73 51.2532 162.729 51.0593V46.176H162.441ZM166.58 39.5622C166.58 39.4131 166.633 39.2701 166.727 39.1647C166.822 39.0592 166.949 39 167.083 39C167.216 39 167.344 39.0592 167.439 39.1647C167.533 39.2701 167.586 39.4131 167.586 39.5622V60.4378C167.586 60.5869 167.533 60.7299 167.439 60.8353C167.344 60.9408 167.216 61 167.083 61C166.949 61 166.822 60.9408 166.727 60.8353C166.633 60.7299 166.58 60.5869 166.58 60.4378V39.5622ZM177.588 45.6078C177.599 45.6378 177.608 45.6678 177.617 45.6998L178.976 51.1013C178.999 51.1968 179.006 51.2965 178.995 51.3948C178.984 51.4931 178.956 51.588 178.912 51.6741C178.868 51.7602 178.809 51.8358 178.739 51.8966C178.67 51.9575 178.59 52.0023 178.504 52.0286C178.419 52.0548 178.329 52.062 178.241 52.0498C178.153 52.0375 178.069 52.006 177.991 51.957C177.914 51.9081 177.847 51.8426 177.792 51.7645C177.738 51.6863 177.698 51.5969 177.674 51.5014L176.335 46.17H176.315H176.031V46.508L177.821 54.4582H176.031V59.4596C176.03 59.7169 175.939 59.9636 175.776 60.1458C175.613 60.328 175.393 60.4308 175.163 60.4318C174.932 60.4303 174.712 60.3273 174.549 60.1452C174.387 59.9632 174.295 59.7168 174.294 59.4596V54.4582H173.95V59.4596C173.95 59.7171 173.858 59.9638 173.695 60.1459C173.532 60.328 173.311 60.4308 173.08 60.4318C172.852 60.4292 172.634 60.3265 172.472 60.1458C172.311 59.9651 172.219 59.7209 172.217 59.4656V54.4642H170.316L172.217 46.304V46.176H171.913H171.888L170.542 51.5014C170.494 51.6943 170.38 51.8582 170.225 51.957C170.069 52.0559 169.885 52.0816 169.712 52.0286C169.539 51.9755 169.393 51.848 169.304 51.6741C169.216 51.5002 169.193 51.2942 169.24 51.1013L170.57 45.8079H170.556C170.76 44.9576 170.93 44.3535 171.399 43.9594C172.205 43.2812 176.097 43.2812 176.904 43.9594C177.338 44.3195 177.409 44.8076 177.588 45.6078ZM174.11 39.5622C174.421 39.5622 174.725 39.6652 174.983 39.8582C175.242 40.0512 175.443 40.3255 175.562 40.6465C175.681 40.9674 175.712 41.3206 175.651 41.6613C175.591 42.002 175.441 42.315 175.221 42.5607C175.001 42.8063 174.721 42.9736 174.416 43.0414C174.112 43.1091 173.796 43.0744 173.508 42.9414C173.221 42.8085 172.976 42.5833 172.803 42.2945C172.63 42.0056 172.538 41.666 172.538 41.3186C172.538 40.8528 172.704 40.406 172.998 40.0766C173.293 39.7472 173.693 39.5622 174.11 39.5622ZM160.52 39.5622C160.831 39.5622 161.135 39.6652 161.393 39.8582C161.651 40.0512 161.853 40.3255 161.972 40.6465C162.091 40.9674 162.122 41.3206 162.061 41.6613C162.001 42.002 161.851 42.315 161.631 42.5607C161.411 42.8063 161.131 42.9736 160.826 43.0414C160.521 43.1091 160.205 43.0744 159.918 42.9414C159.631 42.8085 159.385 42.5833 159.213 42.2945C159.04 42.0056 158.948 41.666 158.948 41.3186C158.948 40.8528 159.113 40.406 159.408 40.0766C159.703 39.7472 160.103 39.5622 160.52 39.5622Z" fill="black"/>
<rect x="181.5" y="18.5" width="20" height="69" fill="white" stroke="black"/>
<path d="M185.293 125.707C185.683 126.098 186.317 126.098 186.707 125.707L193.071 119.343C193.462 118.953 193.462 118.319 193.071 117.929C192.681 117.538 192.047 117.538 191.657 117.929L186 123.586L180.343 117.929C179.953 117.538 179.319 117.538 178.929 117.929C178.538 118.319 178.538 118.953 178.929 119.343L185.293 125.707ZM185 105L185 125L187 125L187 105L185 105Z" fill="black"/>
<path d="M185.707 392.293C185.317 391.902 184.683 391.902 184.293 392.293L177.929 398.657C177.538 399.047 177.538 399.681 177.929 400.071C178.319 400.462 178.953 400.462 179.343 400.071L185 394.414L190.657 400.071C191.047 400.462 191.681 400.462 192.071 400.071C192.462 399.681 192.462 399.047 192.071 398.657L185.707 392.293ZM186 413L186 393L184 393L184 413L186 413Z" fill="black"/>
<path d="M197.982 41.8063C197.982 41.5232 197.801 41.2801 197.554 41.1293C197.51 41.1108 197.488 41.0923 197.44 41.0739C197.304 41.0185 197.145 41 197.013 41H184.991C184.449 41 184 41.357 184 41.8278V43.9175H189.029L188.509 43.4835C188.373 43.3697 188.395 43.2004 188.509 43.0865L188.848 42.8034C188.915 42.748 188.985 42.7295 189.073 42.7295C189.162 42.7295 189.254 42.748 189.32 42.8034L190.989 44.219C191.055 44.2744 191.077 44.3329 191.077 44.4068C191.077 44.4806 191.033 44.5576 190.989 44.613L189.32 46.0255C189.184 46.1394 188.981 46.1394 188.845 46.0255L188.506 45.7424C188.369 45.6285 188.369 45.4593 188.506 45.3454L189.047 44.9115H184.022V57.1722C184.022 57.6245 184.449 58 184.991 58H197.009C197.551 58 198 57.643 198 57.1722L197.982 41.8063ZM193.807 46.2533C194.485 46.2533 195.049 46.7241 195.049 47.2904C195.049 47.8566 194.485 48.3059 193.807 48.3059C193.129 48.3059 192.592 47.8535 192.592 47.2904C192.592 46.7272 193.107 46.2533 193.807 46.2533ZM189.482 53.4269C189.213 53.6916 189.033 53.7839 188.672 53.7654L185.942 53.7285C185.603 53.71 185.334 53.4269 185.356 53.1838C185.378 52.8453 185.651 52.6575 186.034 52.6575L188.535 52.639L189.121 51.9774L190.182 52.6944L189.482 53.4269ZM196.018 51.7127L193.785 51.3003C193.627 51.2634 193.516 51.168 193.446 51.0541L192.927 50.094C192.883 50.1309 191.733 51.7127 191.733 51.7127L193.041 52.5405C193.446 52.8237 193.491 53.0853 193.336 53.4453L191.984 56.0458C191.869 56.292 191.534 56.4613 191.195 56.3658C190.856 56.2704 190.632 55.9504 190.79 55.6703L191.962 53.316L190.204 52.2051C189.729 51.9589 189.552 51.488 189.887 51.0171L191.464 48.8691L190.315 48.5305L188.241 49.3984C187.972 49.5307 187.633 49.4168 187.496 49.2107C187.382 49.0229 187.474 48.7583 187.699 48.6444L189.865 47.7027C189.98 47.6473 190.09 47.6073 190.204 47.6073C190.318 47.6073 190.429 47.6258 190.521 47.6442L192.348 48.1335C192.415 48.152 192.463 48.1705 192.507 48.2074L193.498 48.8291C193.634 48.903 193.678 49.0353 193.723 49.1307L194.22 50.4294L196.228 50.8633C196.497 50.9187 196.633 51.128 196.633 51.3342C196.604 51.525 196.291 51.7712 196.018 51.7127Z" fill="black"/>
<text fill="black" xml:space="preserve" style="white-space: pre" font-family="Inter" font-size="8" letter-spacing="0em"><tspan x="32.8828" y="160.909">E. CR 103</tspan></text>
<text fill="black" xml:space="preserve" style="white-space: pre" font-family="Inter" font-size="8" letter-spacing="0em"><tspan x="303.863" y="189.909">E. CR 104</tspan></text>
<text fill="black" xml:space="preserve" style="white-space: pre" font-family="Inter" font-size="8" letter-spacing="0em"><tspan x="33.0078" y="209.909">E. CR 102</tspan></text>
<text fill="black" xml:space="preserve" style="white-space: pre" font-family="Inter" font-size="8" letter-spacing="0em"><tspan x="33.5703" y="258.909">E. CR 101</tspan></text>
<text fill="black" xml:space="preserve" style="white-space: pre" font-family="Inter" font-size="8" letter-spacing="0em"><tspan x="33.3164" y="344.909">E. CL 102</tspan></text>
<text fill="black" xml:space="preserve" style="white-space: pre" font-family="Inter" font-size="8" letter-spacing="0em"><tspan x="33.8789" y="372.909">E. CL 101</tspan></text>
<text fill="black" xml:space="preserve" style="white-space: pre" font-family="Inter" font-size="8" letter-spacing="0em"><tspan x="178.906" y="383.409">Lift</tspan></text>
<text fill="black" xml:space="preserve" style="white-space: pre" font-family="Inter" font-size="8" letter-spacing="0em"><tspan x="180.406" y="141.909">Lift</tspan></text>
<text fill="black" xml:space="preserve" style="white-space: pre" font-family="Inter" font-size="8" letter-spacing="0em"><tspan x="53.9727" y="55.9091">Faculty Area 102</tspan></text>
<text fill="black" xml:space="preserve" style="white-space: pre" font-family="Inter" font-size="8" letter-spacing="0em"><tspan x="256.535" y="55.9091">Faculty Area 101</tspan></text>
<rect x="287.5" y="259.5" width="69" height="106" fill="white" stroke="black"/>
<text fill="black" xml:space="preserve" style="white-space: pre" font-family="Inter" font-size="8" letter-spacing="0em"><tspan x="316.285" y="311.909">NA</tspan></text>
<text fill="black" xml:space="preserve" style="white-space: pre" font-family="Inter" font-size="8" letter-spacing="0em"><tspan x="234.027" y="468.909">Hardware Lab 1</tspan></text>
<text fill="black" xml:space="preserve" style="white-space: pre" font-family="Inter" font-size="8" letter-spacing="0em"><tspan x="85.4648" y="468.909">Hardware Lab 2</tspan></text>
<text fill="black" xml:space="preserve" style="white-space: pre" font-family="Inter" font-size="8" letter-spacing="0em"><tspan x="135.434" y="345.909">E. CR 106</tspan></text>
<text fill="black" xml:space="preserve" style="white-space: pre" font-family="Inter" font-size="8" letter-spacing="0em"><tspan x="135.723" y="180.909">E. CR 107</tspan></text>
<text fill="black" xml:space="preserve" style="white-space: pre" font-family="Inter" font-size="8" letter-spacing="0em"><tspan x="201.465" y="180.909">E. CR 108</tspan></text>
<text fill="black" xml:space="preserve" style="white-space: pre" font-family="Inter" font-size="8" letter-spacing="0em"><tspan x="201.496" y="345.909">E. CR 105</tspan></text>
<text fill="black" xml:space="preserve" style="white-space: pre" font-family="Inter" font-size="8" letter-spacing="0em"><tspan x="19.3398" y="468.909">Hardware Lab 3</tspan></text>
<text fill="black" xml:space="preserve" style="white-space: pre" font-family="Inter" font-size="8" letter-spacing="0em"><tspan x="304.137" y="468.909">Dean Office</tspan></text>
<text fill="black" xml:space="preserve" style="white-space: pre" font-family="Inter" font-size="24" letter-spacing="0em"><tspan x="148.371" y="268.727">Floor 1</tspan></text>
<text fill="black" xml:space="preserve" style="white-space: pre" font-family="Inter" font-size="8" letter-spacing="0em"><tspan x="190.297" y="106.409">Bhagubhai Lift Entrance</tspan></text>
<text fill="black" xml:space="preserve" style="white-space: pre" font-family="Inter" font-size="8" letter-spacing="0em"><tspan x="196.391" y="415.409">Cooper Lift Entrance</tspan></text>
</svg>
