<svg width="374" height="519" viewBox="0 0 374 519" fill="none" xmlns="http://www.w3.org/2000/svg">
<rect x="287.5" y="334.5" width="69" height="33" fill="white" stroke="black"/>
<rect x="374" y="519" width="374" height="519" transform="rotate(-180 374 519)" fill="white"/>
<rect x="287.5" y="332.5" width="69" height="33" fill="white" stroke="black"/>
<text fill="black" xml:space="preserve" style="white-space: pre" font-family="Inter" font-size="8" letter-spacing="0em"><tspan x="302.809" y="353.909">E. CL 704</tspan></text>
<rect x="287.5" y="270.5" width="69" height="33" fill="white" stroke="black"/>
<text fill="black" xml:space="preserve" style="white-space: pre" font-family="Inter" font-size="8" letter-spacing="0em"><tspan x="303.953" y="288.909">E. CL 702</tspan></text>
<rect x="16.5" y="18.5" width="340" height="482" stroke="black"/>
<rect x="120.5" y="133.5" width="132" height="252" fill="white" stroke="black"/>
<rect x="120.5" y="375.5" width="132" height="10" fill="white" stroke="black"/>
<rect x="120.5" y="133.5" width="132" height="11" fill="white" stroke="black"/>
<rect x="120.5" y="307.5" width="66" height="68" fill="white" stroke="black"/>
<rect x="186.5" y="307.5" width="66" height="68" fill="white" stroke="black"/>
<rect x="120.5" y="144.5" width="66" height="68" fill="white" stroke="black"/>
<rect x="186.5" y="144.5" width="66" height="68" fill="white" stroke="black"/>
<rect x="287.5" y="133.5" width="69" height="85" fill="white" stroke="black"/>
<rect x="287.5" y="303.5" width="69" height="33" fill="white" stroke="black"/>
<rect x="287.5" y="365.5" width="69" height="20" fill="white" stroke="black"/>
<rect x="287.5" y="217.5" width="69" height="20" fill="white" stroke="black"/>
<path d="M327.982 219.806C327.982 219.523 327.801 219.28 327.554 219.129C327.51 219.111 327.488 219.092 327.44 219.074C327.304 219.018 327.145 219 327.013 219H314.991C314.449 219 314 219.357 314 219.828V221.917H319.029L318.509 221.484C318.373 221.37 318.395 221.2 318.509 221.087L318.848 220.803C318.915 220.748 318.985 220.73 319.073 220.73C319.162 220.73 319.254 220.748 319.32 220.803L320.989 222.219C321.055 222.274 321.077 222.333 321.077 222.407C321.077 222.481 321.033 222.558 320.989 222.613L319.32 224.026C319.184 224.139 318.981 224.139 318.845 224.026L318.506 223.742C318.369 223.629 318.369 223.459 318.506 223.345L319.047 222.911H314.022V235.172C314.022 235.625 314.449 236 314.991 236H327.009C327.551 236 328 235.643 328 235.172L327.982 219.806ZM323.807 224.253C324.485 224.253 325.049 224.724 325.049 225.29C325.049 225.857 324.485 226.306 323.807 226.306C323.129 226.306 322.592 225.854 322.592 225.29C322.592 224.727 323.107 224.253 323.807 224.253ZM319.482 231.427C319.213 231.692 319.033 231.784 318.672 231.765L315.942 231.728C315.603 231.71 315.334 231.427 315.356 231.184C315.378 230.845 315.651 230.657 316.034 230.657L318.535 230.639L319.121 229.977L320.182 230.694L319.482 231.427ZM326.018 229.713L323.785 229.3C323.627 229.263 323.516 229.168 323.446 229.054L322.927 228.094C322.883 228.131 321.733 229.713 321.733 229.713L323.041 230.541C323.446 230.824 323.491 231.085 323.336 231.445L321.984 234.046C321.869 234.292 321.534 234.461 321.195 234.366C320.856 234.27 320.632 233.95 320.79 233.67L321.962 231.316L320.204 230.205C319.729 229.959 319.552 229.488 319.887 229.017L321.464 226.869L320.315 226.531L318.241 227.398C317.972 227.531 317.633 227.417 317.496 227.211C317.382 227.023 317.474 226.758 317.699 226.644L319.865 225.703C319.98 225.647 320.09 225.607 320.204 225.607C320.318 225.607 320.429 225.626 320.521 225.644L322.348 226.134C322.415 226.152 322.463 226.17 322.507 226.207L323.498 226.829C323.634 226.903 323.678 227.035 323.723 227.131L324.22 228.429L326.228 228.863C326.497 228.919 326.633 229.128 326.633 229.334C326.604 229.525 326.291 229.771 326.018 229.713Z" fill="black"/>
<path d="M327.982 367.806C327.982 367.523 327.801 367.28 327.554 367.129C327.51 367.111 327.488 367.092 327.44 367.074C327.304 367.018 327.145 367 327.013 367H314.991C314.449 367 314 367.357 314 367.828V369.917H319.029L318.509 369.484C318.373 369.37 318.395 369.2 318.509 369.087L318.848 368.803C318.915 368.748 318.985 368.73 319.073 368.73C319.162 368.73 319.254 368.748 319.32 368.803L320.989 370.219C321.055 370.274 321.077 370.333 321.077 370.407C321.077 370.481 321.033 370.558 320.989 370.613L319.32 372.026C319.184 372.139 318.981 372.139 318.845 372.026L318.506 371.742C318.369 371.629 318.369 371.459 318.506 371.345L319.047 370.911H314.022V383.172C314.022 383.625 314.449 384 314.991 384H327.009C327.551 384 328 383.643 328 383.172L327.982 367.806ZM323.807 372.253C324.485 372.253 325.049 372.724 325.049 373.29C325.049 373.857 324.485 374.306 323.807 374.306C323.129 374.306 322.592 373.854 322.592 373.29C322.592 372.727 323.107 372.253 323.807 372.253ZM319.482 379.427C319.213 379.692 319.033 379.784 318.672 379.765L315.942 379.728C315.603 379.71 315.334 379.427 315.356 379.184C315.378 378.845 315.651 378.657 316.034 378.657L318.535 378.639L319.121 377.977L320.182 378.694L319.482 379.427ZM326.018 377.713L323.785 377.3C323.627 377.263 323.516 377.168 323.446 377.054L322.927 376.094C322.883 376.131 321.733 377.713 321.733 377.713L323.041 378.541C323.446 378.824 323.491 379.085 323.336 379.445L321.984 382.046C321.869 382.292 321.534 382.461 321.195 382.366C320.856 382.27 320.632 381.95 320.79 381.67L321.962 379.316L320.204 378.205C319.729 377.959 319.552 377.488 319.887 377.017L321.464 374.869L320.315 374.531L318.241 375.398C317.972 375.531 317.633 375.417 317.496 375.211C317.382 375.023 317.474 374.758 317.699 374.644L319.865 373.703C319.98 373.647 320.09 373.607 320.204 373.607C320.318 373.607 320.429 373.626 320.521 373.644L322.348 374.134C322.415 374.152 322.463 374.17 322.507 374.207L323.498 374.829C323.634 374.903 323.678 375.035 323.723 375.131L324.22 376.429L326.228 376.863C326.497 376.919 326.633 377.128 326.633 377.334C326.604 377.525 326.291 377.771 326.018 377.713Z" fill="black"/>
<rect x="16.5" y="18.5" width="69" height="319" fill="white" stroke="black"/>
<rect x="16.5" y="365.5" width="69" height="20" fill="white" stroke="black"/>
<g style="mix-blend-mode:darken">
<rect x="16.5" y="365.5" width="28" height="69" transform="rotate(-90 16.5 365.5)" fill="white"/>
<rect x="16.5" y="365.5" width="28" height="69" transform="rotate(-90 16.5 365.5)" stroke="black"/>
</g>
<path fill-rule="evenodd" clip-rule="evenodd" d="M45.4407 348.176V361.466C45.4402 361.723 45.3486 361.97 45.186 362.152C45.0233 362.334 44.8027 362.437 44.5724 362.438C44.3419 362.437 44.1212 362.334 43.9582 362.152C43.7952 361.97 43.7033 361.723 43.7023 361.466V353.651H43.3604V361.466C43.3599 361.723 43.2683 361.97 43.1056 362.152C42.943 362.334 42.7224 362.437 42.4921 362.438C42.2616 362.437 42.0409 362.334 41.8779 362.152C41.7149 361.97 41.6229 361.723 41.622 361.466V348.176H41.3194V353.059C41.3185 353.255 41.2485 353.442 41.1248 353.579C41.0011 353.717 40.8336 353.795 40.6588 353.795C40.4844 353.794 40.3174 353.717 40.194 353.579C40.0707 353.441 40.0009 353.254 40 353.059V347.808C40 346.954 40.2578 346.353 40.7251 345.959C41.5307 345.281 45.5087 345.281 46.3144 345.959C46.7834 346.359 47.043 346.96 47.0412 347.808V353.059C47.0403 353.254 46.9706 353.441 46.8472 353.579C46.7239 353.717 46.5568 353.794 46.3824 353.795C46.2089 353.793 46.0432 353.714 45.921 353.577C45.7988 353.439 45.7299 353.253 45.7289 353.059V348.176H45.4407ZM49.5798 341.562C49.5798 341.413 49.6328 341.27 49.7272 341.165C49.8215 341.059 49.9495 341 50.0829 341C50.2163 341 50.3443 341.059 50.4386 341.165C50.533 341.27 50.586 341.413 50.586 341.562V362.438C50.586 362.587 50.533 362.73 50.4386 362.835C50.3443 362.941 50.2163 363 50.0829 363C49.9495 363 49.8215 362.941 49.7272 362.835C49.6328 362.73 49.5798 362.587 49.5798 362.438V341.562ZM60.5883 347.608C60.5991 347.638 60.608 347.668 60.617 347.7L61.9758 353.101C61.9993 353.197 62.0058 353.297 61.9948 353.395C61.9838 353.493 61.9556 353.588 61.9118 353.674C61.868 353.76 61.8094 353.836 61.7395 353.897C61.6695 353.957 61.5895 354.002 61.5041 354.029C61.4186 354.055 61.3294 354.062 61.2414 354.05C61.1535 354.037 61.0685 354.006 60.9915 353.957C60.9144 353.908 60.8468 353.843 60.7923 353.764C60.7379 353.686 60.6978 353.597 60.6743 353.501L59.3351 348.17H59.3154H59.0308V348.508L60.8211 356.458H59.0308V361.46C59.0303 361.717 58.9387 361.964 58.7761 362.146C58.6134 362.328 58.3928 362.431 58.1625 362.432C57.9323 362.43 57.712 362.327 57.5495 362.145C57.3869 361.963 57.2952 361.717 57.2942 361.46V356.458H56.9505V361.46C56.9495 361.717 56.8576 361.964 56.6946 362.146C56.5316 362.328 56.3109 362.431 56.0804 362.432C55.8519 362.429 55.6335 362.327 55.4722 362.146C55.3108 361.965 55.2193 361.721 55.2175 361.466V356.464H53.3162L55.2175 348.304V348.176H54.9131H54.8881L53.5418 353.501C53.4943 353.694 53.3802 353.858 53.2246 353.957C53.0689 354.056 52.8846 354.082 52.712 354.029C52.5394 353.975 52.3927 353.848 52.3042 353.674C52.2158 353.5 52.1927 353.294 52.2402 353.101L53.5704 347.808H53.5561C53.7602 346.958 53.9303 346.353 54.3993 345.959C55.2049 345.281 59.097 345.281 59.9045 345.959C60.3377 346.319 60.4093 346.808 60.5883 347.608ZM57.1098 341.562C57.4207 341.562 57.7246 341.665 57.9831 341.858C58.2416 342.051 58.4431 342.326 58.562 342.646C58.681 342.967 58.7121 343.321 58.6515 343.661C58.5908 344.002 58.4411 344.315 58.2213 344.561C58.0015 344.806 57.7214 344.974 57.4165 345.041C57.1116 345.109 56.7955 345.074 56.5083 344.941C56.2211 344.808 55.9756 344.583 55.8028 344.294C55.6301 344.006 55.5379 343.666 55.5379 343.319C55.5379 342.853 55.7035 342.406 55.9983 342.077C56.2931 341.747 56.6929 341.562 57.1098 341.562ZM43.5197 341.562C43.8306 341.562 44.1345 341.665 44.393 341.858C44.6515 342.051 44.853 342.326 44.9719 342.646C45.0909 342.967 45.122 343.321 45.0614 343.661C45.0007 344.002 44.851 344.315 44.6312 344.561C44.4114 344.806 44.1313 344.974 43.8264 345.041C43.5215 345.109 43.2054 345.074 42.9182 344.941C42.631 344.808 42.3855 344.583 42.2127 344.294C42.04 344.006 41.9478 343.666 41.9478 343.319C41.9478 342.853 42.1134 342.406 42.4082 342.077C42.703 341.747 43.1028 341.562 43.5197 341.562Z" fill="black"/>
<path d="M55.9816 367.806C55.9816 367.523 55.8011 367.28 55.5542 367.129C55.51 367.111 55.4879 367.092 55.44 367.074C55.3037 367.018 55.1453 367 55.0126 367H42.9911C42.4495 367 42 367.357 42 367.828V369.917H47.0289L46.5095 369.484C46.3732 369.37 46.3953 369.2 46.5095 369.087L46.8484 368.803C46.9147 368.748 46.9847 368.73 47.0732 368.73C47.1616 368.73 47.2537 368.748 47.32 368.803L48.9889 370.219C49.0553 370.274 49.0773 370.333 49.0773 370.407C49.0773 370.481 49.0332 370.558 48.9889 370.613L47.32 372.026C47.1837 372.139 46.9811 372.139 46.8447 372.026L46.5058 371.742C46.3695 371.629 46.3695 371.459 46.5058 371.345L47.0474 370.911H42.0221V383.172C42.0221 383.625 42.4495 384 42.9911 384H55.0089C55.5505 384 56 383.643 56 383.172L55.9816 367.806ZM51.8074 372.253C52.4852 372.253 53.0489 372.724 53.0489 373.29C53.0489 373.857 52.4852 374.306 51.8074 374.306C51.1295 374.306 50.5916 373.854 50.5916 373.29C50.5916 372.727 51.1074 372.253 51.8074 372.253ZM47.4821 379.427C47.2132 379.692 47.0326 379.784 46.6716 379.765L43.9416 379.728C43.6026 379.71 43.3337 379.427 43.3558 379.184C43.3779 378.845 43.6505 378.657 44.0337 378.657L46.5353 378.639L47.1211 377.977L48.1821 378.694L47.4821 379.427ZM54.0179 377.713L51.7853 377.3C51.6268 377.263 51.5163 377.168 51.4464 377.054L50.9268 376.094C50.8826 376.131 49.7332 377.713 49.7332 377.713L51.0411 378.541C51.4464 378.824 51.4905 379.085 51.3358 379.445L49.9837 382.046C49.8695 382.292 49.5342 382.461 49.1953 382.366C48.8564 382.27 48.6316 381.95 48.79 381.67L49.9616 379.316L48.2042 378.205C47.729 377.959 47.5521 377.488 47.8874 377.017L49.4642 374.869L48.3148 374.531L46.2406 375.398C45.9716 375.531 45.6327 375.417 45.4964 375.211C45.3821 375.023 45.4742 374.758 45.699 374.644L47.8653 373.703C47.9795 373.647 48.09 373.607 48.2042 373.607C48.3185 373.607 48.429 373.626 48.5211 373.644L50.3485 374.134C50.4148 374.152 50.4627 374.17 50.5069 374.207L51.4979 374.829C51.6342 374.903 51.6784 375.035 51.7227 375.131L52.22 376.429L54.2279 376.863C54.4969 376.919 54.6332 377.128 54.6332 377.334C54.6037 377.525 54.2905 377.771 54.0179 377.713Z" fill="black"/>
<rect x="218.5" y="18.5" width="138" height="69" fill="white" stroke="black"/>
<rect x="16.5" y="431.5" width="64" height="69" fill="white" stroke="black"/>
<rect x="80.5" y="431.5" width="64" height="69" fill="white" stroke="black"/>
<path d="M292.5 431.5H356.5V500.5H292.5V431.5Z" fill="white" stroke="black"/>
<path d="M230.5 431.5H292.5V500.5H230.5V431.5Z" fill="white" stroke="black"/>
<rect x="85.5" y="18.5" width="68" height="69" fill="white" stroke="black"/>
<path fill-rule="evenodd" clip-rule="evenodd" d="M112.419 43.7854V61.9076C112.418 62.2585 112.294 62.5949 112.072 62.8433C111.85 63.0918 111.549 63.232 111.235 63.2334C110.921 63.232 110.62 63.0918 110.398 62.8435C110.175 62.5952 110.05 62.2588 110.049 61.9076V51.252H109.582V61.9076C109.582 62.2585 109.457 62.5949 109.235 62.8433C109.013 63.0918 108.712 63.232 108.398 63.2334C108.084 63.232 107.783 63.0918 107.561 62.8435C107.339 62.5952 107.213 62.2588 107.212 61.9076V43.7854H106.799V50.4445C106.798 50.7108 106.703 50.9657 106.534 51.1537C106.365 51.3418 106.137 51.4477 105.898 51.4484C105.661 51.447 105.433 51.3407 105.265 51.1528C105.096 50.9648 105.001 50.7103 105 50.4445V43.2834C105 42.1186 105.352 41.3002 105.989 40.7628C107.087 39.838 112.512 39.838 113.61 40.7628C114.25 41.3084 114.604 42.1268 114.602 43.2834V50.4445C114.6 50.7103 114.505 50.9648 114.337 51.1528C114.169 51.3407 113.941 51.447 113.703 51.4484C113.467 51.4448 113.241 51.3377 113.074 51.1499C112.907 50.9622 112.813 50.7089 112.812 50.4445V43.7854H112.419ZM118.063 34.7666C118.063 34.5633 118.136 34.3683 118.264 34.2245C118.393 34.0808 118.567 34 118.749 34C118.931 34 119.106 34.0808 119.235 34.2245C119.363 34.3683 119.435 34.5633 119.435 34.7666V63.2334C119.435 63.4367 119.363 63.6317 119.235 63.7755C119.106 63.9192 118.931 64 118.749 64C118.567 64 118.393 63.9192 118.264 63.7755C118.136 63.6317 118.063 63.4367 118.063 63.2334V34.7666ZM133.075 43.0106C133.09 43.0516 133.102 43.0925 133.114 43.1361L134.967 50.5018C134.999 50.632 135.008 50.768 134.993 50.902C134.978 51.036 134.939 51.1655 134.88 51.2829C134.82 51.4003 134.74 51.5034 134.645 51.5863C134.549 51.6693 134.44 51.7304 134.324 51.7662C134.207 51.802 134.085 51.8119 133.966 51.7951C133.846 51.7784 133.73 51.7354 133.625 51.6687C133.52 51.6019 133.427 51.5127 133.353 51.4061C133.279 51.2995 133.224 51.1776 133.192 51.0474L131.366 43.7772H131.339H130.951V44.2382L133.392 55.0794H130.951V61.8994C130.95 62.2504 130.826 62.5868 130.604 62.8352C130.382 63.0836 130.081 63.2238 129.767 63.2252C129.453 63.2231 129.153 63.0826 128.931 62.8344C128.709 62.5861 128.584 62.2501 128.583 61.8994V55.0794H128.114V61.8994C128.113 62.2506 127.988 62.587 127.765 62.8353C127.543 63.0837 127.242 63.2238 126.928 63.2252C126.616 63.2217 126.318 63.0816 126.098 62.8352C125.878 62.5888 125.754 62.2557 125.751 61.9076V55.0876H123.158L125.751 43.96V43.7854H125.336H125.302L123.466 51.0474C123.401 51.3104 123.246 51.5339 123.033 51.6687C122.821 51.8035 122.57 51.8386 122.334 51.7662C122.099 51.6939 121.899 51.52 121.779 51.2829C121.658 51.0457 121.626 50.7648 121.691 50.5018L123.505 43.2834H123.486C123.764 42.124 123.996 41.3002 124.635 40.7628C125.734 39.838 131.041 39.838 132.142 40.7628C132.733 41.2538 132.831 41.9194 133.075 43.0106ZM128.332 34.7666C128.755 34.7666 129.17 34.907 129.522 35.1702C129.875 35.4334 130.15 35.8075 130.312 36.2452C130.474 36.6828 130.517 37.1644 130.434 37.6291C130.351 38.0937 130.147 38.5205 129.847 38.8554C129.547 39.1904 129.166 39.4185 128.75 39.5109C128.334 39.6034 127.903 39.5559 127.511 39.3746C127.12 39.1934 126.785 38.8864 126.549 38.4925C126.314 38.0986 126.188 37.6355 126.188 37.1618C126.188 36.5265 126.414 35.9173 126.816 35.4681C127.218 35.0189 127.763 34.7666 128.332 34.7666ZM109.8 34.7666C110.224 34.7666 110.638 34.907 110.99 35.1702C111.343 35.4334 111.618 35.8075 111.78 36.2452C111.942 36.6828 111.985 37.1644 111.902 37.6291C111.819 38.0937 111.615 38.5205 111.315 38.8554C111.015 39.1904 110.634 39.4185 110.218 39.5109C109.802 39.6034 109.371 39.5559 108.979 39.3746C108.588 39.1934 108.253 38.8864 108.017 38.4925C107.782 38.0986 107.656 37.6355 107.656 37.1618C107.656 36.5265 107.882 35.9173 108.284 35.4681C108.686 35.0189 109.231 34.7666 109.8 34.7666Z" fill="black"/>
<rect x="152.5" y="18.5" width="49" height="69" fill="white" stroke="black"/>
<path d="M185.293 125.707C185.683 126.098 186.317 126.098 186.707 125.707L193.071 119.343C193.462 118.953 193.462 118.319 193.071 117.929C192.681 117.538 192.047 117.538 191.657 117.929L186 123.586L180.343 117.929C179.953 117.538 179.319 117.538 178.929 117.929C178.538 118.319 178.538 118.953 178.929 119.343L185.293 125.707ZM185 105L185 125L187 125L187 105L185 105Z" fill="black"/>
<path d="M185.707 392.293C185.317 391.902 184.683 391.902 184.293 392.293L177.929 398.657C177.538 399.047 177.538 399.681 177.929 400.071C178.319 400.462 178.953 400.462 179.343 400.071L185 394.414L190.657 400.071C191.047 400.462 191.681 400.462 192.071 400.071C192.462 399.681 192.462 399.047 192.071 398.657L185.707 392.293ZM186 413L186 393L184 393L184 413L186 413Z" fill="black"/>
<path d="M185.974 38.0434C185.974 37.677 185.716 37.3624 185.363 37.1673C185.3 37.1434 185.268 37.1195 185.2 37.0956C185.005 37.0239 184.779 37 184.589 37H167.416C166.642 37 166 37.462 166 38.0713V40.7755H173.184L172.442 40.214C172.247 40.0666 172.279 39.8476 172.442 39.7002L172.926 39.3338C173.021 39.2621 173.121 39.2382 173.247 39.2382C173.374 39.2382 173.505 39.2621 173.6 39.3338L175.984 41.1658C176.079 41.2375 176.11 41.3132 176.11 41.4088C176.11 41.5043 176.047 41.6039 175.984 41.6756L173.6 43.5036C173.405 43.651 173.116 43.651 172.921 43.5036L172.437 43.1372C172.242 42.9899 172.242 42.7708 172.437 42.6235L173.211 42.0619H166.032V57.9287C166.032 58.5141 166.642 59 167.416 59H184.584C185.358 59 186 58.538 186 57.9287L185.974 38.0434ZM180.011 43.7983C180.979 43.7983 181.784 44.4077 181.784 45.1405C181.784 45.8733 180.979 46.4547 180.011 46.4547C179.042 46.4547 178.274 45.8693 178.274 45.1405C178.274 44.4117 179.011 43.7983 180.011 43.7983ZM173.832 53.0818C173.447 53.4244 173.189 53.5438 172.674 53.5199L168.774 53.4722C168.289 53.4482 167.905 53.0818 167.937 52.7672C167.968 52.3291 168.358 52.0862 168.905 52.0862L172.479 52.0623L173.316 51.206L174.832 52.134L173.832 53.0818ZM183.168 50.8635L179.979 50.3298C179.753 50.282 179.595 50.1586 179.495 50.0112L178.753 48.7686C178.689 48.8164 177.047 50.8635 177.047 50.8635L178.916 51.9348C179.495 52.3012 179.558 52.6398 179.337 53.1057L177.405 56.471C177.242 56.7896 176.763 57.0087 176.279 56.8852C175.795 56.7617 175.474 56.3475 175.7 55.9851L177.374 52.9384L174.863 51.5007C174.184 51.1821 173.932 50.5727 174.411 49.9634L176.663 47.1835L175.021 46.7454L172.058 47.8685C171.674 48.0397 171.19 47.8924 170.995 47.6256C170.832 47.3826 170.963 47.0401 171.284 46.8928L174.379 45.6741C174.542 45.6024 174.7 45.5506 174.863 45.5506C175.026 45.5506 175.184 45.5745 175.316 45.5984L177.926 46.2316C178.021 46.2555 178.09 46.2794 178.153 46.3272L179.568 47.1318C179.763 47.2274 179.826 47.3986 179.89 47.5221L180.6 49.2028L183.468 49.7643C183.853 49.836 184.047 50.1068 184.047 50.3736C184.005 50.6206 183.558 50.9392 183.168 50.8635Z" fill="black"/>
<text fill="black" xml:space="preserve" style="white-space: pre" font-family="Inter" font-size="8" letter-spacing="0em"><tspan x="37.793" y="180.409">Library </tspan></text>
<text fill="black" xml:space="preserve" style="white-space: pre" font-family="Inter" font-size="8" letter-spacing="0em"><tspan x="305.246" y="177.909">E CR 702</tspan></text>
<text fill="black" xml:space="preserve" style="white-space: pre" font-family="Inter" font-size="8" letter-spacing="0em"><tspan x="178.906" y="383.409">Lift</tspan></text>
<text fill="black" xml:space="preserve" style="white-space: pre" font-family="Inter" font-size="8" letter-spacing="0em"><tspan x="180.406" y="141.909">Lift</tspan></text>
<text fill="black" xml:space="preserve" style="white-space: pre" font-family="Inter" font-size="8" letter-spacing="0em"><tspan x="256.172" y="55.9091">Faculty Area 701</tspan></text>
<rect x="287.5" y="237.5" width="69" height="33" fill="white" stroke="black"/>
<text fill="black" xml:space="preserve" style="white-space: pre" font-family="Inter" font-size="8" letter-spacing="0em"><tspan x="304.516" y="256.909">E. CL 701</tspan></text>
<text fill="black" xml:space="preserve" style="white-space: pre" font-family="Inter" font-size="8" letter-spacing="0em"><tspan x="302.828" y="323.409">E. CL 703</tspan></text>
<text fill="black" xml:space="preserve" style="white-space: pre" font-family="Inter" font-size="8" letter-spacing="0em"><tspan x="240.688" y="468.909">AR/VR LAB</tspan></text>
<text fill="black" xml:space="preserve" style="white-space: pre" font-family="Inter" font-size="8" letter-spacing="0em"><tspan x="94.707" y="468.409">E. CR 701</tspan></text>
<text fill="black" xml:space="preserve" style="white-space: pre" font-family="Inter" font-size="8" letter-spacing="0em"><tspan x="135" y="343.909">E. CR 704</tspan></text>
<text fill="black" xml:space="preserve" style="white-space: pre" font-family="Inter" font-size="8" letter-spacing="0em"><tspan x="135.379" y="181.909">E. CL 706</tspan></text>
<text fill="black" xml:space="preserve" style="white-space: pre" font-family="Inter" font-size="8" letter-spacing="0em"><tspan x="200.793" y="181.909">E. CC 702</tspan></text>
<text fill="black" xml:space="preserve" style="white-space: pre" font-family="Inter" font-size="8" letter-spacing="0em"><tspan x="201.02" y="344.409">E. CR 703</tspan></text>
<text fill="black" xml:space="preserve" style="white-space: pre" font-family="Inter" font-size="8" letter-spacing="0em"><tspan x="30.3555" y="468.409">E. CC 701</tspan></text>
<text fill="black" xml:space="preserve" style="white-space: pre" font-family="Inter" font-size="8" letter-spacing="0em"><tspan x="307.543" y="468.409">E CL 705</tspan></text>
<text fill="black" xml:space="preserve" style="white-space: pre" font-family="Inter" font-size="24" letter-spacing="0em"><tspan x="147.094" y="268.727">Floor 7</tspan></text>
<text fill="black" xml:space="preserve" style="white-space: pre" font-family="Inter" font-size="8" letter-spacing="0em"><tspan x="190.297" y="106.409">Bhagubhai Lift Entrance</tspan></text>
<text fill="black" xml:space="preserve" style="white-space: pre" font-family="Inter" font-size="8" letter-spacing="0em"><tspan x="196.391" y="415.409">Cooper Lift Entrance</tspan></text>
</svg>
