<svg width="1920" height="3410" viewBox="0 0 1920 3410" fill="none" xmlns="http://www.w3.org/2000/svg">
<g clip-path="url(#clip0_1_7)">
<path d="M314 1292.48L294.918 1280L275 1292.48V1313.59L294.918 1326L314 1313.59V1292.48Z" stroke="#2E2E2E" stroke-width="3"/>
<path d="M337 1255.48L317.918 1243L298 1255.48V1276.59L317.918 1289L337 1276.59V1255.48Z" stroke="#2E2E2E" stroke-width="3"/>
<g clip-path="url(#clip1_1_7)">
<path d="M281 2414.73L257.515 2399L233 2414.73V2441.36L257.515 2457L281 2441.36V2414.73Z" stroke="#2F3030" stroke-width="3"/>
<path d="M307 2461.73L283.515 2446L259 2461.73V2488.36L283.515 2504L307 2488.36V2461.73Z" stroke="#2F3030" stroke-width="3"/>
<path d="M335 2414.73L311.515 2399L287 2414.73V2441.36L311.515 2457L335 2441.36V2414.73Z" stroke="#2F3030" stroke-width="3"/>
<path d="M199 2461.73L175.515 2446L151 2461.73V2488.36L175.515 2504L199 2488.36V2461.73Z" stroke="#2F3030" stroke-width="3"/>
<path d="M225 2508.73L201.515 2493L177 2508.73V2535.36L201.515 2551L225 2535.36V2508.73Z" stroke="#2F3030" stroke-width="3"/>
<path d="M253 2461.73L229.515 2446L205 2461.73V2488.36L229.515 2504L253 2488.36V2461.73Z" stroke="#2F3030" stroke-width="3"/>

<path d="M1870 1587.48L1850.92 1575L1831 1587.48V1608.59L1850.92 1621L1870 1608.59V1587.48Z" stroke="#2E2E2E" stroke-width="3"/>
<path d="M1892 1625.48L1872.92 1613L1853 1625.48V1646.59L1872.92 1659L1892 1646.59V1625.48Z" stroke="#2E2E2E" stroke-width="3"/>
<path d="M1803 1700.48L1783.92 1688L1764 1700.48V1721.59L1783.92 1734L1803 1721.59V1700.48Z" stroke="#2E2E2E" stroke-width="3"/>
<path d="M1825 1738.48L1805.92 1726L1786 1738.48V1759.59L1805.92 1772L1825 1759.59V1738.48Z" stroke="#2E2E2E" stroke-width="3"/>
<path d="M1870 1738.48L1850.92 1726L1831 1738.48V1759.59L1850.92 1772L1870 1759.59V1738.48Z" stroke="#2E2E2E" stroke-width="3"/>
<path d="M1802 1928.48L1782.92 1916L1763 1928.48V1949.59L1782.92 1962L1802 1949.59V1928.48Z" stroke="#2E2E2E" stroke-width="3"/>
<path d="M1779 1890.48L1759.92 1878L1740 1890.48V1911.59L1759.92 1924L1779 1911.59V1890.48Z" stroke="#2E2E2E" stroke-width="3"/>
<path d="M1847 1928.48L1827.92 1916L1808 1928.48V1949.59L1827.92 1962L1847 1949.59V1928.48Z" stroke="#2E2E2E" stroke-width="3"/>
<path d="M1870 1814.48L1850.92 1802L1831 1814.48V1835.59L1850.92 1848L1870 1835.59V1814.48Z" stroke="#2E2E2E" stroke-width="3"/>
<path d="M1893 1852.48L1873.92 1840L1854 1852.48V1873.59L1873.92 1886L1893 1873.59V1852.48Z" stroke="#2E2E2E" stroke-width="3"/>
<path d="M1870 1890.48L1850.92 1878L1831 1890.48V1911.59L1850.92 1924L1870 1911.59V1890.48Z" stroke="#2E2E2E" stroke-width="3"/>
<path d="M1759 1699.48L1739.92 1687L1720 1699.48V1720.59L1739.92 1733L1759 1720.59V1699.48Z" stroke="#2E2E2E" stroke-width="3"/>
<path d="M1894 1776.48L1874.92 1764L1855 1776.48V1797.59L1874.92 1810L1894 1797.59V1776.48Z" stroke="#2E2E2E" stroke-width="3"/>
<path d="M1847 1776.48L1827.92 1764L1808 1776.48V1797.59L1827.92 1810L1847 1797.59V1776.48Z" stroke="#2E2E2E" stroke-width="3"/>
<path d="M1847 1699.48L1827.92 1687L1808 1699.48V1720.59L1827.92 1733L1847 1720.59V1699.48Z" stroke="#2E2E2E" stroke-width="3"/>
<path d="M1892 1700.48L1872.92 1688L1853 1700.48V1721.59L1872.92 1734L1892 1721.59V1700.48Z" stroke="#2E2E2E" stroke-width="3"/>
<path d="M1914 1587.48L1894.92 1575L1875 1587.48V1608.59L1894.92 1621L1914 1608.59V1587.48Z" stroke="#2E2E2E" stroke-width="3"/>
<path d="M1869 1662.48L1849.92 1650L1830 1662.48V1683.59L1849.92 1696L1869 1683.59V1662.48Z" stroke="#2E2E2E" stroke-width="3"/>
<path d="M1758 1776.48L1738.92 1764L1719 1776.48V1797.59L1738.92 1810L1758 1797.59V1776.48Z" stroke="#2E2E2E" stroke-width="3"/>
<path d="M1781 1738.48L1761.92 1726L1742 1738.48V1759.59L1761.92 1772L1781 1759.59V1738.48Z" stroke="#2E2E2E" stroke-width="3"/>
<path d="M1803 1624.48L1783.92 1612L1764 1624.48V1645.59L1783.92 1658L1803 1645.59V1624.48Z" stroke="#2E2E2E" stroke-width="3"/>
<path d="M1847 1624.48L1827.92 1612L1808 1624.48V1645.59L1827.92 1658L1847 1645.59V1624.48Z" stroke="#2E2E2E" stroke-width="3"/>
<path d="M1825 1662.48L1805.92 1650L1786 1662.48V1683.59L1805.92 1696L1825 1683.59V1662.48Z" stroke="#2E2E2E" stroke-width="3"/>
<path d="M1870 1587.48L1850.92 1575L1831 1587.48V1608.59L1850.92 1621L1870 1608.59V1587.48Z" stroke="#2E2E2E" stroke-width="3"/>
<path d="M1892 1625.48L1872.92 1613L1853 1625.48V1646.59L1872.92 1659L1892 1646.59V1625.48Z" stroke="#2E2E2E" stroke-width="3"/>
<path d="M1803 1700.48L1783.92 1688L1764 1700.48V1721.59L1783.92 1734L1803 1721.59V1700.48Z" stroke="#2E2E2E" stroke-width="3"/>
<path d="M1825 1738.48L1805.92 1726L1786 1738.48V1759.59L1805.92 1772L1825 1759.59V1738.48Z" stroke="#2E2E2E" stroke-width="3"/>
<path d="M1870 1738.48L1850.92 1726L1831 1738.48V1759.59L1850.92 1772L1870 1759.59V1738.48Z" stroke="#2E2E2E" stroke-width="3"/>
<path d="M1802 1928.48L1782.92 1916L1763 1928.48V1949.59L1782.92 1962L1802 1949.59V1928.48Z" stroke="#2E2E2E" stroke-width="3"/>
<path d="M1779 1890.48L1759.92 1878L1740 1890.48V1911.59L1759.92 1924L1779 1911.59V1890.48Z" stroke="#2E2E2E" stroke-width="3"/>
<path d="M1847 1928.48L1827.92 1916L1808 1928.48V1949.59L1827.92 1962L1847 1949.59V1928.48Z" stroke="#2E2E2E" stroke-width="3"/>
<path d="M1870 1814.48L1850.92 1802L1831 1814.48V1835.59L1850.92 1848L1870 1835.59V1814.48Z" stroke="#2E2E2E" stroke-width="3"/>
<path d="M1893 1852.48L1873.92 1840L1854 1852.48V1873.59L1873.92 1886L1893 1873.59V1852.48Z" stroke="#2E2E2E" stroke-width="3"/>
<path d="M1870 1890.48L1850.92 1878L1831 1890.48V1911.59L1850.92 1924L1870 1911.59V1890.48Z" stroke="#2E2E2E" stroke-width="3"/>
<path d="M1894 1776.48L1874.92 1764L1855 1776.48V1797.59L1874.92 1810L1894 1797.59V1776.48Z" stroke="#2E2E2E" stroke-width="3"/>
<path d="M1847 1776.48L1827.92 1764L1808 1776.48V1797.59L1827.92 1810L1847 1797.59V1776.48Z" stroke="#2E2E2E" stroke-width="3"/>
<path d="M1847 1699.48L1827.92 1687L1808 1699.48V1720.59L1827.92 1733L1847 1720.59V1699.48Z" stroke="#2E2E2E" stroke-width="3"/>
<path d="M1892 1700.48L1872.92 1688L1853 1700.48V1721.59L1872.92 1734L1892 1721.59V1700.48Z" stroke="#2E2E2E" stroke-width="3"/>
<path d="M1914 1587.48L1894.92 1575L1875 1587.48V1608.59L1894.92 1621L1914 1608.59V1587.48Z" stroke="#2E2E2E" stroke-width="3"/>
<path d="M1869 1662.48L1849.92 1650L1830 1662.48V1683.59L1849.92 1696L1869 1683.59V1662.48Z" stroke="#2E2E2E" stroke-width="3"/>
<path d="M1781 1738.48L1761.92 1726L1742 1738.48V1759.59L1761.92 1772L1781 1759.59V1738.48Z" stroke="#2E2E2E" stroke-width="3"/>
<path d="M1803 1624.48L1783.92 1612L1764 1624.48V1645.59L1783.92 1658L1803 1645.59V1624.48Z" stroke="#2E2E2E" stroke-width="3"/>
<path d="M1847 1624.48L1827.92 1612L1808 1624.48V1645.59L1827.92 1658L1847 1645.59V1624.48Z" stroke="#2E2E2E" stroke-width="3"/>
<path d="M1825 1662.48L1805.92 1650L1786 1662.48V1683.59L1805.92 1696L1825 1683.59V1662.48Z" stroke="#2E2E2E" stroke-width="3"/>
<path d="M1722.09 2610.22C1723.27 2611.6 1723.11 2613.66 1721.74 2614.84C1720.37 2616.01 1718.31 2615.85 1717.13 2614.48C1715.95 2613.11 1716.11 2611.05 1717.48 2609.87C1718.85 2608.69 1720.91 2608.85 1722.09 2610.22Z" fill="#2F3030"/>
<path d="M1736.97 2597.45C1738.15 2598.82 1738 2600.89 1736.63 2602.06C1735.26 2603.24 1733.19 2603.08 1732.01 2601.71C1730.84 2600.34 1730.99 2598.27 1732.36 2597.1C1733.73 2595.92 1735.8 2596.08 1736.97 2597.45Z" fill="#2F3030"/>
<path d="M1751.86 2584.68C1753.03 2586.05 1752.88 2588.11 1751.51 2589.29C1750.14 2590.46 1748.07 2590.31 1746.9 2588.93C1745.72 2587.56 1745.87 2585.5 1747.24 2584.32C1748.61 2583.15 1750.68 2583.3 1751.86 2584.68Z" fill="#2F3030"/>
<path d="M1766.74 2571.9C1767.91 2573.27 1767.76 2575.34 1766.39 2576.51C1765.02 2577.69 1762.95 2577.53 1761.78 2576.16C1760.6 2574.79 1760.76 2572.72 1762.13 2571.55C1763.5 2570.37 1765.56 2570.53 1766.74 2571.9Z" fill="#2F3030"/>
<path d="M1781.62 2559.13C1782.8 2560.5 1782.64 2562.56 1781.27 2563.74C1779.9 2564.92 1777.84 2564.76 1776.66 2563.39C1775.48 2562.01 1775.64 2559.95 1777.01 2558.77C1778.38 2557.6 1780.44 2557.76 1781.62 2559.13Z" fill="#2F3030"/>
<path d="M1796.5 2546.35C1797.68 2547.73 1797.52 2549.79 1796.15 2550.97C1794.78 2552.14 1792.72 2551.98 1791.54 2550.61C1790.36 2549.24 1790.52 2547.18 1791.89 2546C1793.26 2544.82 1795.32 2544.98 1796.5 2546.35Z" fill="#2F3030"/>
<path d="M1811.38 2533.58C1812.56 2534.95 1812.4 2537.02 1811.03 2538.19C1809.66 2539.37 1807.6 2539.21 1806.42 2537.84C1805.24 2536.47 1805.4 2534.4 1806.77 2533.23C1808.14 2532.05 1810.2 2532.21 1811.38 2533.58Z" fill="#2F3030"/>
<path d="M1826.26 2520.81C1827.44 2522.18 1827.29 2524.24 1825.92 2525.42C1824.55 2526.59 1822.48 2526.44 1821.3 2525.06C1820.13 2523.69 1820.28 2521.63 1821.65 2520.45C1823.02 2519.28 1825.09 2519.43 1826.26 2520.81Z" fill="#2F3030"/>
<path d="M1841.15 2508.03C1842.32 2509.4 1842.17 2511.47 1840.8 2512.64C1839.43 2513.82 1837.36 2513.66 1836.19 2512.29C1835.01 2510.92 1835.16 2508.85 1836.53 2507.68C1837.9 2506.5 1839.97 2506.66 1841.15 2508.03Z" fill="#2F3030"/>
<path d="M1856.03 2495.26C1857.2 2496.63 1857.05 2498.69 1855.68 2499.87C1854.31 2501.05 1852.24 2500.89 1851.07 2499.52C1849.89 2498.14 1850.05 2496.08 1851.42 2494.9C1852.79 2493.73 1854.85 2493.89 1856.03 2495.26Z" fill="#2F3030"/>
<path d="M1870.91 2482.48C1872.09 2483.86 1871.93 2485.92 1870.56 2487.1C1869.19 2488.27 1867.13 2488.11 1865.95 2486.74C1864.77 2485.37 1864.93 2483.3 1866.3 2482.13C1867.67 2480.95 1869.73 2481.11 1870.91 2482.48Z" fill="#2F3030"/>
<path d="M1734.88 2625.13C1736.06 2626.5 1735.9 2628.56 1734.53 2629.74C1733.16 2630.91 1731.1 2630.76 1729.92 2629.38C1728.75 2628.01 1728.9 2625.95 1730.27 2624.77C1731.64 2623.6 1733.71 2623.75 1734.88 2625.13Z" fill="#2F3030"/>
<path d="M1749.76 2612.35C1750.94 2613.72 1750.79 2615.79 1749.42 2616.96C1748.05 2618.14 1745.98 2617.98 1744.8 2616.61C1743.63 2615.24 1743.78 2613.17 1745.15 2612C1746.52 2610.82 1748.59 2610.98 1749.76 2612.35Z" fill="#2F3030"/>
<path d="M1764.65 2599.58C1765.82 2600.95 1765.67 2603.01 1764.3 2604.19C1762.93 2605.37 1760.86 2605.21 1759.69 2603.84C1758.51 2602.46 1758.66 2600.4 1760.03 2599.22C1761.4 2598.05 1763.47 2598.21 1764.65 2599.58Z" fill="#2F3030"/>
<path d="M1779.53 2586.8C1780.71 2588.18 1780.55 2590.24 1779.18 2591.42C1777.81 2592.59 1775.75 2592.43 1774.57 2591.06C1773.39 2589.69 1773.55 2587.62 1774.92 2586.45C1776.29 2585.27 1778.35 2585.43 1779.53 2586.8Z" fill="#2F3030"/>
<path d="M1794.41 2574.03C1795.59 2575.4 1795.43 2577.47 1794.06 2578.64C1792.69 2579.82 1790.63 2579.66 1789.45 2578.29C1788.27 2576.92 1788.43 2574.85 1789.8 2573.67C1791.17 2572.5 1793.23 2572.66 1794.41 2574.03Z" fill="#2F3030"/>
<path d="M1809.29 2561.26C1810.47 2562.63 1810.31 2564.69 1808.94 2565.87C1807.57 2567.04 1805.51 2566.88 1804.33 2565.51C1803.15 2564.14 1803.31 2562.08 1804.68 2560.9C1806.05 2559.72 1808.11 2559.88 1809.29 2561.26Z" fill="#2F3030"/>
<path d="M1824.17 2548.48C1825.35 2549.85 1825.19 2551.92 1823.82 2553.09C1822.45 2554.27 1820.39 2554.11 1819.21 2552.74C1818.04 2551.37 1818.19 2549.3 1819.56 2548.13C1820.93 2546.95 1823 2547.11 1824.17 2548.48Z" fill="#2F3030"/>
<path d="M1839.05 2535.71C1840.23 2537.08 1840.08 2539.14 1838.71 2540.32C1837.34 2541.5 1835.27 2541.34 1834.09 2539.97C1832.92 2538.59 1833.07 2536.53 1834.44 2535.35C1835.81 2534.18 1837.88 2534.34 1839.05 2535.71Z" fill="#2F3030"/>
<path d="M1853.94 2522.93C1855.11 2524.3 1854.96 2526.37 1853.59 2527.55C1852.22 2528.72 1850.15 2528.56 1848.98 2527.19C1847.8 2525.82 1847.95 2523.75 1849.32 2522.58C1850.69 2521.4 1852.76 2521.56 1853.94 2522.93Z" fill="#2F3030"/>
<path d="M1868.82 2510.16C1870 2511.53 1869.84 2513.6 1868.47 2514.77C1867.1 2515.95 1865.03 2515.79 1863.86 2514.42C1862.68 2513.05 1862.84 2510.98 1864.21 2509.8C1865.58 2508.63 1867.64 2508.79 1868.82 2510.16Z" fill="#2F3030"/>
<path d="M1883.7 2497.38C1884.88 2498.76 1884.72 2500.82 1883.35 2502C1881.98 2503.17 1879.92 2503.01 1878.74 2501.64C1877.56 2500.27 1877.72 2498.21 1879.09 2497.03C1880.46 2495.85 1882.52 2496.01 1883.7 2497.38Z" fill="#2F3030"/>
<path d="M1747.67 2640.03C1748.85 2641.4 1748.7 2643.46 1747.33 2644.64C1745.96 2645.82 1743.89 2645.66 1742.71 2644.28C1741.54 2642.91 1741.69 2640.85 1743.06 2639.67C1744.43 2638.5 1746.5 2638.66 1747.67 2640.03Z" fill="#2F3030"/>
<path d="M1762.56 2627.25C1763.73 2628.62 1763.58 2630.69 1762.21 2631.87C1760.84 2633.04 1758.77 2632.88 1757.6 2631.51C1756.42 2630.14 1756.57 2628.07 1757.94 2626.9C1759.31 2625.72 1761.38 2625.88 1762.56 2627.25Z" fill="#2F3030"/>
<path d="M1777.44 2614.48C1778.61 2615.85 1778.46 2617.92 1777.09 2619.09C1775.72 2620.27 1773.65 2620.11 1772.48 2618.74C1771.3 2617.37 1771.46 2615.3 1772.83 2614.12C1774.2 2612.95 1776.26 2613.11 1777.44 2614.48Z" fill="#2F3030"/>
<path d="M1792.32 2601.7C1793.5 2603.08 1793.34 2605.14 1791.97 2606.32C1790.6 2607.49 1788.54 2607.33 1787.36 2605.96C1786.18 2604.59 1786.34 2602.53 1787.71 2601.35C1789.08 2600.17 1791.14 2600.33 1792.32 2601.7Z" fill="#2F3030"/>
<path d="M1807.2 2588.93C1808.38 2590.3 1808.22 2592.37 1806.85 2593.54C1805.48 2594.72 1803.42 2594.56 1802.24 2593.19C1801.06 2591.82 1801.22 2589.75 1802.59 2588.58C1803.96 2587.4 1806.02 2587.56 1807.2 2588.93Z" fill="#2F3030"/>
<path d="M1822.08 2576.16C1823.26 2577.53 1823.1 2579.59 1821.73 2580.77C1820.36 2581.94 1818.3 2581.79 1817.12 2580.41C1815.94 2579.04 1816.1 2576.98 1817.47 2575.8C1818.84 2574.63 1820.91 2574.78 1822.08 2576.16Z" fill="#2F3030"/>
<path d="M1836.96 2563.38C1838.14 2564.75 1837.99 2566.82 1836.62 2567.99C1835.25 2569.17 1833.18 2569.01 1832 2567.64C1830.83 2566.27 1830.98 2564.2 1832.35 2563.03C1833.72 2561.85 1835.79 2562.01 1836.96 2563.38Z" fill="#2F3030"/>
<path d="M1851.85 2550.61C1853.02 2551.98 1852.87 2554.04 1851.5 2555.22C1850.13 2556.4 1848.06 2556.24 1846.89 2554.87C1845.71 2553.49 1845.86 2551.43 1847.23 2550.25C1848.6 2549.08 1850.67 2549.24 1851.85 2550.61Z" fill="#2F3030"/>
<path d="M1866.73 2537.83C1867.9 2539.21 1867.75 2541.27 1866.38 2542.45C1865.01 2543.62 1862.94 2543.46 1861.77 2542.09C1860.59 2540.72 1860.75 2538.66 1862.12 2537.48C1863.49 2536.3 1865.55 2536.46 1866.73 2537.83Z" fill="#2F3030"/>
<path d="M1881.61 2525.06C1882.79 2526.43 1882.63 2528.5 1881.26 2529.67C1879.89 2530.85 1877.83 2530.69 1876.65 2529.32C1875.47 2527.95 1875.63 2525.88 1877 2524.71C1878.37 2523.53 1880.43 2523.69 1881.61 2525.06Z" fill="#2F3030"/>
<path d="M1896.49 2512.29C1897.67 2513.66 1897.51 2515.72 1896.14 2516.9C1894.77 2518.07 1892.71 2517.92 1891.53 2516.54C1890.35 2515.17 1890.51 2513.11 1891.88 2511.93C1893.25 2510.76 1895.31 2510.91 1896.49 2512.29Z" fill="#2F3030"/>
<path d="M1760.46 2654.93C1761.64 2656.3 1761.49 2658.36 1760.12 2659.54C1758.75 2660.72 1756.68 2660.56 1755.5 2659.19C1754.33 2657.81 1754.48 2655.75 1755.85 2654.57C1757.22 2653.4 1759.29 2653.56 1760.46 2654.93Z" fill="#2F3030"/>
<path d="M1775.35 2642.15C1776.52 2643.53 1776.37 2645.59 1775 2646.77C1773.63 2647.94 1771.56 2647.78 1770.39 2646.41C1769.21 2645.04 1769.36 2642.98 1770.73 2641.8C1772.1 2640.62 1774.17 2640.78 1775.35 2642.15Z" fill="#2F3030"/>
<path d="M1790.23 2629.38C1791.41 2630.75 1791.25 2632.82 1789.88 2633.99C1788.51 2635.17 1786.45 2635.01 1785.27 2633.64C1784.09 2632.27 1784.25 2630.2 1785.62 2629.03C1786.99 2627.85 1789.05 2628.01 1790.23 2629.38Z" fill="#2F3030"/>
<path d="M1805.11 2616.61C1806.29 2617.98 1806.13 2620.04 1804.76 2621.22C1803.39 2622.39 1801.33 2622.24 1800.15 2620.86C1798.97 2619.49 1799.13 2617.43 1800.5 2616.25C1801.87 2615.08 1803.93 2615.23 1805.11 2616.61Z" fill="#2F3030"/>
<path d="M1819.99 2603.83C1821.17 2605.2 1821.01 2607.27 1819.64 2608.44C1818.27 2609.62 1816.21 2609.46 1815.03 2608.09C1813.85 2606.72 1814.01 2604.65 1815.38 2603.48C1816.75 2602.3 1818.81 2602.46 1819.99 2603.83Z" fill="#2F3030"/>
<path d="M1834.87 2591.06C1836.05 2592.43 1835.89 2594.49 1834.52 2595.67C1833.15 2596.85 1831.09 2596.69 1829.91 2595.32C1828.74 2593.94 1828.89 2591.88 1830.26 2590.7C1831.63 2589.53 1833.7 2589.69 1834.87 2591.06Z" fill="#2F3030"/>
<path d="M1849.75 2578.28C1850.93 2579.66 1850.78 2581.72 1849.41 2582.9C1848.04 2584.07 1845.97 2583.91 1844.79 2582.54C1843.62 2581.17 1843.77 2579.1 1845.14 2577.93C1846.51 2576.75 1848.58 2576.91 1849.75 2578.28Z" fill="#2F3030"/>
<path d="M1864.64 2565.51C1865.81 2566.88 1865.66 2568.95 1864.29 2570.12C1862.92 2571.3 1860.85 2571.14 1859.68 2569.77C1858.5 2568.4 1858.65 2566.33 1860.02 2565.15C1861.39 2563.98 1863.46 2564.14 1864.64 2565.51Z" fill="#2F3030"/>
<path d="M1879.52 2552.74C1880.7 2554.11 1880.54 2556.17 1879.17 2557.35C1877.8 2558.52 1875.74 2558.36 1874.56 2556.99C1873.38 2555.62 1873.54 2553.56 1874.91 2552.38C1876.28 2551.2 1878.34 2551.36 1879.52 2552.74Z" fill="#2F3030"/>
<path d="M1894.4 2539.96C1895.58 2541.33 1895.42 2543.4 1894.05 2544.57C1892.68 2545.75 1890.62 2545.59 1889.44 2544.22C1888.26 2542.85 1888.42 2540.78 1889.79 2539.61C1891.16 2538.43 1893.22 2538.59 1894.4 2539.96Z" fill="#2F3030"/>
<path d="M1909.28 2527.19C1910.46 2528.56 1910.3 2530.62 1908.93 2531.8C1907.56 2532.98 1905.5 2532.82 1904.32 2531.45C1903.14 2530.07 1903.3 2528.01 1904.67 2526.83C1906.04 2525.66 1908.1 2525.82 1909.28 2527.19Z" fill="#2F3030"/>
<path d="M1773.26 2669.83C1774.43 2671.2 1774.28 2673.27 1772.91 2674.44C1771.54 2675.62 1769.47 2675.46 1768.3 2674.09C1767.12 2672.72 1767.27 2670.65 1768.64 2669.47C1770.01 2668.3 1772.08 2668.46 1773.26 2669.83Z" fill="#2F3030"/>
<path d="M1788.14 2657.06C1789.31 2658.43 1789.16 2660.49 1787.79 2661.67C1786.42 2662.84 1784.35 2662.68 1783.18 2661.31C1782 2659.94 1782.16 2657.88 1783.53 2656.7C1784.9 2655.52 1786.96 2655.68 1788.14 2657.06Z" fill="#2F3030"/>
<path d="M1803.02 2644.28C1804.2 2645.65 1804.04 2647.72 1802.67 2648.89C1801.3 2650.07 1799.24 2649.91 1798.06 2648.54C1796.88 2647.17 1797.04 2645.1 1798.41 2643.93C1799.78 2642.75 1801.84 2642.91 1803.02 2644.28Z" fill="#2F3030"/>
<path d="M1817.9 2631.51C1819.08 2632.88 1818.92 2634.94 1817.55 2636.12C1816.18 2637.3 1814.12 2637.14 1812.94 2635.77C1811.76 2634.39 1811.92 2632.33 1813.29 2631.15C1814.66 2629.98 1816.72 2630.14 1817.9 2631.51Z" fill="#2F3030"/>
<path d="M1832.78 2618.73C1833.96 2620.1 1833.8 2622.17 1832.43 2623.35C1831.06 2624.52 1829 2624.36 1827.82 2622.99C1826.64 2621.62 1826.8 2619.55 1828.17 2618.38C1829.54 2617.2 1831.61 2617.36 1832.78 2618.73Z" fill="#2F3030"/>
<path d="M1847.66 2605.96C1848.84 2607.33 1848.69 2609.4 1847.32 2610.57C1845.95 2611.75 1843.88 2611.59 1842.7 2610.22C1841.53 2608.85 1841.68 2606.78 1843.05 2605.6C1844.42 2604.43 1846.49 2604.59 1847.66 2605.96Z" fill="#2F3030"/>
<path d="M1862.55 2593.18C1863.72 2594.56 1863.57 2596.62 1862.2 2597.8C1860.83 2598.97 1858.76 2598.81 1857.59 2597.44C1856.41 2596.07 1856.56 2594.01 1857.93 2592.83C1859.3 2591.65 1861.37 2591.81 1862.55 2593.18Z" fill="#2F3030"/>
<path d="M1877.43 2580.41C1878.6 2581.78 1878.45 2583.85 1877.08 2585.02C1875.71 2586.2 1873.64 2586.04 1872.47 2584.67C1871.29 2583.3 1871.45 2581.23 1872.82 2580.06C1874.19 2578.88 1876.25 2579.04 1877.43 2580.41Z" fill="#2F3030"/>
<path d="M1892.31 2567.64C1893.49 2569.01 1893.33 2571.07 1891.96 2572.25C1890.59 2573.42 1888.53 2573.27 1887.35 2571.89C1886.17 2570.52 1886.33 2568.46 1887.7 2567.28C1889.07 2566.11 1891.13 2566.26 1892.31 2567.64Z" fill="#2F3030"/>
<path d="M1907.19 2554.86C1908.37 2556.23 1908.21 2558.3 1906.84 2559.47C1905.47 2560.65 1903.41 2560.49 1902.23 2559.12C1901.05 2557.75 1901.21 2555.68 1902.58 2554.51C1903.95 2553.33 1906.01 2553.49 1907.19 2554.86Z" fill="#2F3030"/>
<path d="M1922.07 2542.09C1923.25 2543.46 1923.09 2545.53 1921.72 2546.7C1920.35 2547.88 1918.29 2547.72 1917.11 2546.35C1915.93 2544.97 1916.09 2542.91 1917.46 2541.73C1918.83 2540.56 1920.9 2540.72 1922.07 2542.09Z" fill="#2F3030"/>
<path d="M1786.05 2684.73C1787.22 2686.1 1787.07 2688.17 1785.7 2689.34C1784.33 2690.52 1782.26 2690.36 1781.09 2688.99C1779.91 2687.62 1780.06 2685.55 1781.43 2684.38C1782.8 2683.2 1784.87 2683.36 1786.05 2684.73Z" fill="#2F3030"/>
<path d="M1800.93 2671.96C1802.11 2673.33 1801.95 2675.39 1800.58 2676.57C1799.21 2677.74 1797.15 2677.59 1795.97 2676.21C1794.79 2674.84 1794.95 2672.78 1796.32 2671.6C1797.69 2670.43 1799.75 2670.58 1800.93 2671.96Z" fill="#2F3030"/>
<path d="M1815.81 2659.18C1816.99 2660.55 1816.83 2662.62 1815.46 2663.79C1814.09 2664.97 1812.03 2664.81 1810.85 2663.44C1809.67 2662.07 1809.83 2660 1811.2 2658.83C1812.57 2657.65 1814.63 2657.81 1815.81 2659.18Z" fill="#2F3030"/>
<path d="M1830.69 2646.41C1831.87 2647.78 1831.71 2649.84 1830.34 2651.02C1828.97 2652.2 1826.91 2652.04 1825.73 2650.67C1824.55 2649.29 1824.71 2647.23 1826.08 2646.05C1827.45 2644.88 1829.51 2645.04 1830.69 2646.41Z" fill="#2F3030"/>
<path d="M1845.57 2633.63C1846.75 2635.01 1846.59 2637.07 1845.22 2638.25C1843.86 2639.42 1841.79 2639.26 1840.61 2637.89C1839.44 2636.52 1839.59 2634.46 1840.96 2633.28C1842.33 2632.1 1844.4 2632.26 1845.57 2633.63Z" fill="#2F3030"/>
<path d="M1860.46 2620.86C1861.63 2622.23 1861.48 2624.3 1860.11 2625.47C1858.74 2626.65 1856.67 2626.49 1855.49 2625.12C1854.32 2623.75 1854.47 2621.68 1855.84 2620.51C1857.21 2619.33 1859.28 2619.49 1860.46 2620.86Z" fill="#2F3030"/>
<path d="M1875.34 2608.09C1876.51 2609.46 1876.36 2611.52 1874.99 2612.7C1873.62 2613.87 1871.55 2613.72 1870.38 2612.34C1869.2 2610.97 1869.35 2608.91 1870.72 2607.73C1872.09 2606.56 1874.16 2606.71 1875.34 2608.09Z" fill="#2F3030"/>
<path d="M1890.22 2595.31C1891.4 2596.68 1891.24 2598.75 1889.87 2599.92C1888.5 2601.1 1886.44 2600.94 1885.26 2599.57C1884.08 2598.2 1884.24 2596.13 1885.61 2594.96C1886.98 2593.78 1889.04 2593.94 1890.22 2595.31Z" fill="#2F3030"/>
<path d="M1905.1 2582.54C1906.28 2583.91 1906.12 2585.97 1904.75 2587.15C1903.38 2588.33 1901.32 2588.17 1900.14 2586.8C1898.96 2585.42 1899.12 2583.36 1900.49 2582.18C1901.86 2581.01 1903.92 2581.17 1905.1 2582.54Z" fill="#2F3030"/>
<path d="M1919.98 2569.76C1921.16 2571.14 1921 2573.2 1919.63 2574.38C1918.26 2575.55 1916.2 2575.39 1915.02 2574.02C1913.84 2572.65 1914 2570.58 1915.37 2569.41C1916.74 2568.23 1918.8 2568.39 1919.98 2569.76Z" fill="#2F3030"/>
<path d="M1934.86 2556.99C1936.04 2558.36 1935.88 2560.43 1934.51 2561.6C1933.15 2562.78 1931.08 2562.62 1929.9 2561.25C1928.73 2559.88 1928.88 2557.81 1930.25 2556.63C1931.62 2555.46 1933.69 2555.62 1934.86 2556.99Z" fill="#2F3030"/>
<path d="M1798.84 2699.63C1800.01 2701 1799.86 2703.07 1798.49 2704.24C1797.12 2705.42 1795.05 2705.26 1793.88 2703.89C1792.7 2702.52 1792.86 2700.45 1794.23 2699.28C1795.6 2698.1 1797.66 2698.26 1798.84 2699.63Z" fill="#2F3030"/>
<path d="M1813.72 2686.86C1814.9 2688.23 1814.74 2690.29 1813.37 2691.47C1812 2692.65 1809.94 2692.49 1808.76 2691.12C1807.58 2689.74 1807.74 2687.68 1809.11 2686.5C1810.48 2685.33 1812.54 2685.49 1813.72 2686.86Z" fill="#2F3030"/>
<path d="M1828.6 2674.08C1829.78 2675.46 1829.62 2677.52 1828.25 2678.7C1826.88 2679.87 1824.82 2679.71 1823.64 2678.34C1822.46 2676.97 1822.62 2674.9 1823.99 2673.73C1825.36 2672.55 1827.42 2672.71 1828.6 2674.08Z" fill="#2F3030"/>
<path d="M1843.48 2661.31C1844.66 2662.68 1844.5 2664.75 1843.13 2665.92C1841.76 2667.1 1839.7 2666.94 1838.52 2665.57C1837.34 2664.2 1837.5 2662.13 1838.87 2660.95C1840.24 2659.78 1842.31 2659.94 1843.48 2661.31Z" fill="#2F3030"/>
<path d="M1858.36 2648.54C1859.54 2649.91 1859.39 2651.97 1858.02 2653.15C1856.65 2654.32 1854.58 2654.16 1853.4 2652.79C1852.23 2651.42 1852.38 2649.36 1853.75 2648.18C1855.12 2647 1857.19 2647.16 1858.36 2648.54Z" fill="#2F3030"/>
<path d="M1873.25 2635.76C1874.42 2637.13 1874.27 2639.2 1872.9 2640.37C1871.53 2641.55 1869.46 2641.39 1868.29 2640.02C1867.11 2638.65 1867.26 2636.58 1868.63 2635.41C1870 2634.23 1872.07 2634.39 1873.25 2635.76Z" fill="#2F3030"/>
<path d="M1888.13 2622.99C1889.3 2624.36 1889.15 2626.42 1887.78 2627.6C1886.41 2628.78 1884.34 2628.62 1883.17 2627.25C1881.99 2625.87 1882.15 2623.81 1883.52 2622.63C1884.89 2621.46 1886.95 2621.62 1888.13 2622.99Z" fill="#2F3030"/>
<path d="M1903.01 2610.21C1904.19 2611.58 1904.03 2613.65 1902.66 2614.83C1901.29 2616 1899.23 2615.84 1898.05 2614.47C1896.87 2613.1 1897.03 2611.03 1898.4 2609.86C1899.77 2608.68 1901.83 2608.84 1903.01 2610.21Z" fill="#2F3030"/>
<path d="M1917.89 2597.44C1919.07 2598.81 1918.91 2600.88 1917.54 2602.05C1916.17 2603.23 1914.11 2603.07 1912.93 2601.7C1911.75 2600.33 1911.91 2598.26 1913.28 2597.08C1914.65 2595.91 1916.71 2596.07 1917.89 2597.44Z" fill="#2F3030"/>
<path d="M1932.77 2584.66C1933.95 2586.04 1933.79 2588.1 1932.42 2589.28C1931.05 2590.45 1928.99 2590.29 1927.81 2588.92C1926.63 2587.55 1926.79 2585.49 1928.16 2584.31C1929.53 2583.13 1931.6 2583.29 1932.77 2584.66Z" fill="#2F3030"/>
<path d="M1947.65 2571.89C1948.83 2573.26 1948.68 2575.33 1947.31 2576.5C1945.94 2577.68 1943.87 2577.52 1942.69 2576.15C1941.52 2574.78 1941.67 2572.71 1943.04 2571.54C1944.41 2570.36 1946.48 2570.52 1947.65 2571.89Z" fill="#2F3030"/>
<path d="M1811.63 2714.53C1812.81 2715.9 1812.65 2717.97 1811.28 2719.15C1809.91 2720.32 1807.85 2720.16 1806.67 2718.79C1805.49 2717.42 1805.65 2715.35 1807.02 2714.18C1808.39 2713 1810.45 2713.16 1811.63 2714.53Z" fill="#2F3030"/>
<path d="M1826.51 2701.76C1827.69 2703.13 1827.53 2705.2 1826.16 2706.37C1824.79 2707.55 1822.73 2707.39 1821.55 2706.02C1820.37 2704.65 1820.53 2702.58 1821.9 2701.4C1823.27 2700.23 1825.33 2700.39 1826.51 2701.76Z" fill="#2F3030"/>
<path d="M1841.39 2688.98C1842.57 2690.36 1842.41 2692.42 1841.04 2693.6C1839.67 2694.77 1837.61 2694.61 1836.43 2693.24C1835.25 2691.87 1835.41 2689.81 1836.78 2688.63C1838.15 2687.45 1840.21 2687.61 1841.39 2688.98Z" fill="#2F3030"/>
<path d="M1856.27 2676.21C1857.45 2677.58 1857.29 2679.65 1855.93 2680.82C1854.56 2682 1852.49 2681.84 1851.31 2680.47C1850.14 2679.1 1850.29 2677.03 1851.66 2675.86C1853.03 2674.68 1855.1 2674.84 1856.27 2676.21Z" fill="#2F3030"/>
<path d="M1871.16 2663.44C1872.33 2664.81 1872.18 2666.87 1870.81 2668.05C1869.44 2669.22 1867.37 2669.07 1866.19 2667.69C1865.02 2666.32 1865.17 2664.26 1866.54 2663.08C1867.91 2661.91 1869.98 2662.06 1871.16 2663.44Z" fill="#2F3030"/>
<path d="M1886.04 2650.66C1887.21 2652.03 1887.06 2654.1 1885.69 2655.27C1884.32 2656.45 1882.25 2656.29 1881.08 2654.92C1879.9 2653.55 1880.05 2651.48 1881.42 2650.31C1882.79 2649.13 1884.86 2649.29 1886.04 2650.66Z" fill="#2F3030"/>
<path d="M1900.92 2637.89C1902.1 2639.26 1901.94 2641.33 1900.57 2642.5C1899.2 2643.68 1897.14 2643.52 1895.96 2642.15C1894.78 2640.77 1894.94 2638.71 1896.31 2637.53C1897.68 2636.36 1899.74 2636.52 1900.92 2637.89Z" fill="#2F3030"/>
<path d="M1915.8 2625.11C1916.98 2626.49 1916.82 2628.55 1915.45 2629.73C1914.08 2630.9 1912.02 2630.74 1910.84 2629.37C1909.66 2628 1909.82 2625.94 1911.19 2624.76C1912.56 2623.58 1914.62 2623.74 1915.8 2625.11Z" fill="#2F3030"/>
<path d="M1930.68 2612.34C1931.86 2613.71 1931.7 2615.78 1930.33 2616.95C1928.96 2618.13 1926.9 2617.97 1925.72 2616.6C1924.54 2615.23 1924.7 2613.16 1926.07 2611.99C1927.44 2610.81 1929.5 2610.97 1930.68 2612.34Z" fill="#2F3030"/>
<path d="M1945.56 2599.57C1946.74 2600.94 1946.58 2603 1945.21 2604.18C1943.85 2605.35 1941.78 2605.2 1940.6 2603.82C1939.43 2602.45 1939.58 2600.39 1940.95 2599.21C1942.32 2598.04 1944.39 2598.19 1945.56 2599.57Z" fill="#2F3030"/>
<path d="M1960.45 2586.79C1961.62 2588.16 1961.47 2590.23 1960.1 2591.4C1958.73 2592.58 1956.66 2592.42 1955.48 2591.05C1954.31 2589.68 1954.46 2587.61 1955.83 2586.44C1957.2 2585.26 1959.27 2585.42 1960.45 2586.79Z" fill="#2F3030"/>
<path d="M1824.42 2729.43C1825.6 2730.81 1825.44 2732.87 1824.07 2734.05C1822.7 2735.22 1820.64 2735.06 1819.46 2733.69C1818.28 2732.32 1818.44 2730.26 1819.81 2729.08C1821.18 2727.9 1823.24 2728.06 1824.42 2729.43Z" fill="#2F3030"/>
<path d="M1839.3 2716.66C1840.48 2718.03 1840.32 2720.1 1838.95 2721.27C1837.58 2722.45 1835.52 2722.29 1834.34 2720.92C1833.16 2719.55 1833.32 2717.48 1834.69 2716.31C1836.06 2715.13 1838.12 2715.29 1839.3 2716.66Z" fill="#2F3030"/>
<path d="M1854.18 2703.89C1855.36 2705.26 1855.2 2707.32 1853.83 2708.5C1852.46 2709.67 1850.4 2709.52 1849.22 2708.14C1848.04 2706.77 1848.2 2704.71 1849.57 2703.53C1850.94 2702.36 1853.01 2702.51 1854.18 2703.89Z" fill="#2F3030"/>
<path d="M1869.06 2691.11C1870.24 2692.48 1870.09 2694.55 1868.72 2695.72C1867.35 2696.9 1865.28 2696.74 1864.1 2695.37C1862.93 2694 1863.08 2691.93 1864.45 2690.76C1865.82 2689.58 1867.89 2689.74 1869.06 2691.11Z" fill="#2F3030"/>
<path d="M1883.95 2678.34C1885.12 2679.71 1884.97 2681.77 1883.6 2682.95C1882.23 2684.13 1880.16 2683.97 1878.99 2682.6C1877.81 2681.22 1877.96 2679.16 1879.33 2677.98C1880.7 2676.81 1882.77 2676.97 1883.95 2678.34Z" fill="#2F3030"/>
<path d="M1898.83 2665.56C1900.01 2666.94 1899.85 2669 1898.48 2670.18C1897.11 2671.35 1895.04 2671.19 1893.87 2669.82C1892.69 2668.45 1892.85 2666.38 1894.22 2665.21C1895.59 2664.03 1897.65 2664.19 1898.83 2665.56Z" fill="#2F3030"/>
<path d="M1913.71 2652.79C1914.89 2654.16 1914.73 2656.23 1913.36 2657.4C1911.99 2658.58 1909.93 2658.42 1908.75 2657.05C1907.57 2655.68 1907.73 2653.61 1909.1 2652.43C1910.47 2651.26 1912.53 2651.42 1913.71 2652.79Z" fill="#2F3030"/>
<path d="M1928.59 2640.02C1929.77 2641.39 1929.61 2643.45 1928.24 2644.63C1926.87 2645.8 1924.81 2645.65 1923.63 2644.27C1922.45 2642.9 1922.61 2640.84 1923.98 2639.66C1925.35 2638.49 1927.41 2638.64 1928.59 2640.02Z" fill="#2F3030"/>
<path d="M1943.47 2627.24C1944.65 2628.61 1944.49 2630.68 1943.12 2631.85C1941.75 2633.03 1939.69 2632.87 1938.51 2631.5C1937.33 2630.13 1937.49 2628.06 1938.86 2626.89C1940.23 2625.71 1942.3 2625.87 1943.47 2627.24Z" fill="#2F3030"/>
<path d="M1958.35 2614.47C1959.53 2615.84 1959.38 2617.9 1958.01 2619.08C1956.64 2620.26 1954.57 2620.1 1953.39 2618.73C1952.22 2617.35 1952.37 2615.29 1953.74 2614.11C1955.11 2612.94 1957.18 2613.1 1958.35 2614.47Z" fill="#2F3030"/>
<path d="M1973.24 2601.69C1974.41 2603.06 1974.26 2605.13 1972.89 2606.31C1971.52 2607.48 1969.45 2607.32 1968.28 2605.95C1967.1 2604.58 1967.25 2602.51 1968.62 2601.34C1969.99 2600.16 1972.06 2600.32 1973.24 2601.69Z" fill="#2F3030"/>
<path d="M1837.21 2744.34C1838.39 2745.71 1838.23 2747.77 1836.86 2748.95C1835.49 2750.12 1833.43 2749.96 1832.25 2748.59C1831.07 2747.22 1831.23 2745.16 1832.6 2743.98C1833.97 2742.8 1836.03 2742.96 1837.21 2744.34Z" fill="#2F3030"/>
<path d="M1852.09 2731.56C1853.27 2732.93 1853.11 2735 1851.74 2736.17C1850.37 2737.35 1848.31 2737.19 1847.13 2735.82C1845.95 2734.45 1846.11 2732.38 1847.48 2731.21C1848.85 2730.03 1850.91 2730.19 1852.09 2731.56Z" fill="#2F3030"/>
<path d="M1866.97 2718.79C1868.15 2720.16 1867.99 2722.22 1866.63 2723.4C1865.26 2724.58 1863.19 2724.42 1862.01 2723.05C1860.84 2721.67 1860.99 2719.61 1862.36 2718.43C1863.73 2717.26 1865.8 2717.42 1866.97 2718.79Z" fill="#2F3030"/>
<path d="M1881.86 2706.01C1883.03 2707.38 1882.88 2709.45 1881.51 2710.63C1880.14 2711.8 1878.07 2711.64 1876.89 2710.27C1875.72 2708.9 1875.87 2706.83 1877.24 2705.66C1878.61 2704.48 1880.68 2704.64 1881.86 2706.01Z" fill="#2F3030"/>
<path d="M1896.74 2693.24C1897.91 2694.61 1897.76 2696.68 1896.39 2697.85C1895.02 2699.03 1892.95 2698.87 1891.78 2697.5C1890.6 2696.13 1890.75 2694.06 1892.12 2692.88C1893.49 2691.71 1895.56 2691.87 1896.74 2693.24Z" fill="#2F3030"/>
<path d="M1911.62 2680.46C1912.8 2681.84 1912.64 2683.9 1911.27 2685.08C1909.9 2686.25 1907.84 2686.09 1906.66 2684.72C1905.48 2683.35 1905.64 2681.29 1907.01 2680.11C1908.38 2678.93 1910.44 2679.09 1911.62 2680.46Z" fill="#2F3030"/>
<path d="M1926.5 2667.69C1927.68 2669.06 1927.52 2671.13 1926.15 2672.3C1924.78 2673.48 1922.72 2673.32 1921.54 2671.95C1920.36 2670.58 1920.52 2668.51 1921.89 2667.34C1923.26 2666.16 1925.32 2666.32 1926.5 2667.69Z" fill="#2F3030"/>
<path d="M1941.38 2654.92C1942.56 2656.29 1942.4 2658.35 1941.03 2659.53C1939.66 2660.7 1937.6 2660.55 1936.42 2659.17C1935.24 2657.8 1935.4 2655.74 1936.77 2654.56C1938.14 2653.39 1940.2 2653.54 1941.38 2654.92Z" fill="#2F3030"/>
<path d="M1956.26 2642.14C1957.44 2643.51 1957.28 2645.58 1955.92 2646.76C1954.55 2647.93 1952.48 2647.77 1951.3 2646.4C1950.13 2645.03 1950.28 2642.96 1951.65 2641.79C1953.02 2640.61 1955.09 2640.77 1956.26 2642.14Z" fill="#2F3030"/>
<path d="M1971.15 2629.37C1972.32 2630.74 1972.17 2632.81 1970.8 2633.98C1969.43 2635.16 1967.36 2635 1966.18 2633.63C1965.01 2632.25 1965.16 2630.19 1966.53 2629.01C1967.9 2627.84 1969.97 2628 1971.15 2629.37Z" fill="#2F3030"/>
<path d="M1986.03 2616.59C1987.2 2617.97 1987.05 2620.03 1985.68 2621.21C1984.31 2622.38 1982.24 2622.22 1981.07 2620.85C1979.89 2619.48 1980.04 2617.42 1981.41 2616.24C1982.78 2615.06 1984.85 2615.22 1986.03 2616.59Z" fill="#2F3030"/>
<path d="M1850 2759.24C1851.18 2760.61 1851.02 2762.67 1849.65 2763.85C1848.28 2765.02 1846.22 2764.87 1845.04 2763.49C1843.86 2762.12 1844.02 2760.06 1845.39 2758.88C1846.76 2757.71 1848.82 2757.86 1850 2759.24Z" fill="#2F3030"/>
<path d="M1864.88 2746.46C1866.06 2747.83 1865.9 2749.9 1864.53 2751.07C1863.16 2752.25 1861.1 2752.09 1859.92 2750.72C1858.74 2749.35 1858.9 2747.28 1860.27 2746.11C1861.64 2744.93 1863.71 2745.09 1864.88 2746.46Z" fill="#2F3030"/>
<path d="M1879.76 2733.69C1880.94 2735.06 1880.79 2737.13 1879.42 2738.3C1878.05 2739.48 1875.98 2739.32 1874.8 2737.95C1873.63 2736.57 1873.78 2734.51 1875.15 2733.33C1876.52 2732.16 1878.59 2732.32 1879.76 2733.69Z" fill="#2F3030"/>
<path d="M1894.65 2720.91C1895.82 2722.29 1895.67 2724.35 1894.3 2725.53C1892.93 2726.7 1890.86 2726.54 1889.69 2725.17C1888.51 2723.8 1888.66 2721.74 1890.03 2720.56C1891.4 2719.38 1893.47 2719.54 1894.65 2720.91Z" fill="#2F3030"/>
<path d="M1909.53 2708.14C1910.71 2709.51 1910.55 2711.58 1909.18 2712.75C1907.81 2713.93 1905.74 2713.77 1904.57 2712.4C1903.39 2711.03 1903.55 2708.96 1904.92 2707.79C1906.29 2706.61 1908.35 2706.77 1909.53 2708.14Z" fill="#2F3030"/>
<path d="M1924.41 2695.37C1925.59 2696.74 1925.43 2698.8 1924.06 2699.98C1922.69 2701.15 1920.63 2701 1919.45 2699.62C1918.27 2698.25 1918.43 2696.19 1919.8 2695.01C1921.17 2693.84 1923.23 2693.99 1924.41 2695.37Z" fill="#2F3030"/>
<path d="M1939.29 2682.59C1940.47 2683.96 1940.31 2686.03 1938.94 2687.2C1937.57 2688.38 1935.51 2688.22 1934.33 2686.85C1933.15 2685.48 1933.31 2683.41 1934.68 2682.24C1936.05 2681.06 1938.11 2681.22 1939.29 2682.59Z" fill="#2F3030"/>
<path d="M1954.17 2669.82C1955.35 2671.19 1955.19 2673.25 1953.82 2674.43C1952.45 2675.61 1950.39 2675.45 1949.21 2674.08C1948.03 2672.7 1948.19 2670.64 1949.56 2669.46C1950.93 2668.29 1953 2668.45 1954.17 2669.82Z" fill="#2F3030"/>
<path d="M1969.05 2657.04C1970.23 2658.42 1970.08 2660.48 1968.71 2661.66C1967.34 2662.83 1965.27 2662.67 1964.09 2661.3C1962.92 2659.93 1963.07 2657.86 1964.44 2656.69C1965.81 2655.51 1967.88 2655.67 1969.05 2657.04Z" fill="#2F3030"/>
<path d="M1983.94 2644.27C1985.11 2645.64 1984.96 2647.71 1983.59 2648.88C1982.22 2650.06 1980.15 2649.9 1978.98 2648.53C1977.8 2647.16 1977.95 2645.09 1979.32 2643.92C1980.69 2642.74 1982.76 2642.9 1983.94 2644.27Z" fill="#2F3030"/>
<path d="M1998.82 2631.5C2000 2632.87 1999.84 2634.93 1998.47 2636.11C1997.1 2637.28 1995.03 2637.13 1993.86 2635.75C1992.68 2634.38 1992.84 2632.32 1994.21 2631.14C1995.58 2629.97 1997.64 2630.12 1998.82 2631.5Z" fill="#2F3030"/>
<path d="M1862.79 2774.14C1863.97 2775.51 1863.81 2777.57 1862.44 2778.75C1861.07 2779.93 1859.01 2779.77 1857.83 2778.4C1856.65 2777.02 1856.81 2774.96 1858.18 2773.78C1859.55 2772.61 1861.61 2772.77 1862.79 2774.14Z" fill="#2F3030"/>
<path d="M1877.67 2761.36C1878.85 2762.74 1878.7 2764.8 1877.33 2765.98C1875.96 2767.15 1873.89 2766.99 1872.71 2765.62C1871.54 2764.25 1871.69 2762.18 1873.06 2761.01C1874.43 2759.83 1876.5 2759.99 1877.67 2761.36Z" fill="#2F3030"/>
<path d="M1892.56 2748.59C1893.73 2749.96 1893.58 2752.03 1892.21 2753.2C1890.84 2754.38 1888.77 2754.22 1887.59 2752.85C1886.42 2751.48 1886.57 2749.41 1887.94 2748.23C1889.31 2747.06 1891.38 2747.22 1892.56 2748.59Z" fill="#2F3030"/>
<path d="M1907.44 2735.82C1908.61 2737.19 1908.46 2739.25 1907.09 2740.43C1905.72 2741.6 1903.65 2741.45 1902.48 2740.07C1901.3 2738.7 1901.46 2736.64 1902.82 2735.46C1904.19 2734.29 1906.26 2734.44 1907.44 2735.82Z" fill="#2F3030"/>
<path d="M1922.32 2723.04C1923.5 2724.41 1923.34 2726.48 1921.97 2727.65C1920.6 2728.83 1918.54 2728.67 1917.36 2727.3C1916.18 2725.93 1916.34 2723.86 1917.71 2722.69C1919.08 2721.51 1921.14 2721.67 1922.32 2723.04Z" fill="#2F3030"/>
<path d="M1937.2 2710.27C1938.38 2711.64 1938.22 2713.7 1936.85 2714.88C1935.48 2716.06 1933.42 2715.9 1932.24 2714.53C1931.06 2713.15 1931.22 2711.09 1932.59 2709.91C1933.96 2708.74 1936.02 2708.9 1937.2 2710.27Z" fill="#2F3030"/>
<path d="M1952.08 2697.49C1953.26 2698.86 1953.1 2700.93 1951.73 2702.11C1950.36 2703.28 1948.3 2703.12 1947.12 2701.75C1945.94 2700.38 1946.1 2698.31 1947.47 2697.14C1948.84 2695.96 1950.9 2696.12 1952.08 2697.49Z" fill="#2F3030"/>
<path d="M1966.96 2684.72C1968.14 2686.09 1967.98 2688.16 1966.62 2689.33C1965.25 2690.51 1963.18 2690.35 1962 2688.98C1960.83 2687.61 1960.98 2685.54 1962.35 2684.36C1963.72 2683.19 1965.79 2683.35 1966.96 2684.72Z" fill="#2F3030"/>
<path d="M1981.85 2671.94C1983.02 2673.32 1982.87 2675.38 1981.5 2676.56C1980.13 2677.73 1978.06 2677.57 1976.88 2676.2C1975.71 2674.83 1975.86 2672.77 1977.23 2671.59C1978.6 2670.41 1980.67 2670.57 1981.85 2671.94Z" fill="#2F3030"/>
<path d="M1996.73 2659.17C1997.9 2660.54 1997.75 2662.61 1996.38 2663.78C1995.01 2664.96 1992.94 2664.8 1991.77 2663.43C1990.59 2662.06 1990.74 2659.99 1992.11 2658.82C1993.48 2657.64 1995.55 2657.8 1996.73 2659.17Z" fill="#2F3030"/>
<path d="M2011.61 2646.4C2012.79 2647.77 2012.63 2649.83 2011.26 2651.01C2009.89 2652.19 2007.83 2652.03 2006.65 2650.65C2005.47 2649.28 2005.63 2647.22 2007 2646.04C2008.37 2644.87 2010.43 2645.03 2011.61 2646.4Z" fill="#2F3030"/>
<path d="M3.01267 2465.68C4.41921 2464.55 6.47867 2464.77 7.61259 2466.17C8.74652 2467.58 8.52552 2469.63 7.11898 2470.77C5.71243 2471.91 3.65298 2471.69 2.51905 2470.28C1.38512 2468.88 1.60612 2466.82 3.01267 2465.68Z" fill="#2F3030"/>
<path d="M-9.30626 2450.42C-7.89972 2449.29 -5.84026 2449.51 -4.70634 2450.91C-3.57241 2452.32 -3.79341 2454.37 -5.19995 2455.51C-6.60649 2456.65 -8.66595 2456.43 -9.79988 2455.02C-10.9338 2453.62 -10.7128 2451.56 -9.30626 2450.42Z" fill="#2F3030"/>
<path d="M-21.6252 2435.16C-20.2186 2434.03 -18.1592 2434.25 -17.0253 2435.65C-15.8913 2437.05 -16.1123 2439.11 -17.5189 2440.25C-18.9254 2441.38 -20.9849 2441.17 -22.1188 2439.76C-23.2527 2438.36 -23.0317 2436.3 -21.6252 2435.16Z" fill="#2F3030"/>
<path d="M-33.9441 2419.9C-32.5376 2418.77 -30.4781 2418.98 -29.3442 2420.39C-28.2103 2421.79 -28.4313 2423.85 -29.8378 2424.99C-31.2443 2426.12 -33.3038 2425.91 -34.4377 2424.5C-35.5717 2423.1 -35.3507 2421.04 -33.9441 2419.9Z" fill="#2F3030"/>
<path d="M-46.263 2404.64C-44.8565 2403.51 -42.797 2403.72 -41.6631 2405.13C-40.5292 2406.53 -40.7502 2408.59 -42.1567 2409.73C-43.5633 2410.86 -45.6227 2410.65 -46.7567 2409.24C-47.8906 2407.84 -47.6696 2405.78 -46.263 2404.64Z" fill="#2F3030"/>
<path d="M-58.582 2389.38C-57.1754 2388.25 -55.116 2388.46 -53.982 2389.87C-52.8481 2391.27 -53.0691 2393.33 -54.4757 2394.47C-55.8822 2395.6 -57.9417 2395.38 -59.0756 2393.98C-60.2095 2392.58 -59.9885 2390.52 -58.582 2389.38Z" fill="#2F3030"/>
<path d="M-70.9009 2374.12C-69.4943 2372.98 -67.4349 2373.2 -66.301 2374.61C-65.167 2376.01 -65.388 2378.07 -66.7946 2379.21C-68.2011 2380.34 -70.2606 2380.12 -71.3945 2378.72C-72.5284 2377.31 -72.3074 2375.26 -70.9009 2374.12Z" fill="#2F3030"/>
<path d="M-83.2198 2358.86C-81.8133 2357.72 -79.7538 2357.94 -78.6199 2359.35C-77.486 2360.75 -77.707 2362.81 -79.1135 2363.95C-80.5201 2365.08 -82.5795 2364.86 -83.7134 2363.46C-84.8474 2362.05 -84.6264 2359.99 -83.2198 2358.86Z" fill="#2F3030"/>
<path d="M-95.5387 2343.6C-94.1322 2342.46 -92.0727 2342.68 -90.9388 2344.09C-89.8049 2345.49 -90.0259 2347.55 -91.4324 2348.69C-92.839 2349.82 -94.8984 2349.6 -96.0324 2348.2C-97.1663 2346.79 -96.9453 2344.73 -95.5387 2343.6Z" fill="#2F3030"/>
<path d="M-107.858 2328.34C-106.451 2327.2 -104.392 2327.42 -103.258 2328.83C-102.124 2330.23 -102.345 2332.29 -103.751 2333.43C-105.158 2334.56 -107.217 2334.34 -108.351 2332.94C-109.485 2331.53 -109.264 2329.47 -107.858 2328.34Z" fill="#2F3030"/>
<path d="M-120.177 2313.08C-118.77 2311.94 -116.711 2312.16 -115.577 2313.57C-114.443 2314.97 -114.664 2317.03 -116.07 2318.16C-117.477 2319.3 -119.536 2319.08 -120.67 2317.68C-121.804 2316.27 -121.583 2314.21 -120.177 2313.08Z" fill="#2F3030"/>
<path d="M18.2933 2453.35C19.6998 2452.21 21.7593 2452.43 22.8932 2453.84C24.0271 2455.24 23.8061 2457.3 22.3996 2458.44C20.9931 2459.57 18.9336 2459.35 17.7997 2457.95C16.6657 2456.54 16.8867 2454.48 18.2933 2453.35Z" fill="#2F3030"/>
<path d="M5.97436 2438.09C7.3809 2436.95 9.44036 2437.17 10.5743 2438.58C11.7082 2439.98 11.4872 2442.04 10.0807 2443.17C8.67413 2444.31 6.61467 2444.09 5.48075 2442.69C4.34682 2441.28 4.56782 2439.22 5.97436 2438.09Z" fill="#2F3030"/>
<path d="M-6.34456 2422.83C-4.93802 2421.69 -2.87857 2421.91 -1.74464 2423.31C-0.610714 2424.72 -0.831712 2426.78 -2.23825 2427.91C-3.6448 2429.05 -5.70426 2428.83 -6.83818 2427.43C-7.97211 2426.02 -7.75111 2423.96 -6.34456 2422.83Z" fill="#2F3030"/>
<path d="M-18.6635 2407.57C-17.2569 2406.43 -15.1975 2406.65 -14.0636 2408.05C-12.9296 2409.46 -13.1506 2411.52 -14.5572 2412.65C-15.9637 2413.79 -18.0232 2413.57 -19.1571 2412.17C-20.291 2410.76 -20.07 2408.7 -18.6635 2407.57Z" fill="#2F3030"/>
<path d="M-30.9824 2392.31C-29.5759 2391.17 -27.5164 2391.39 -26.3825 2392.79C-25.2486 2394.2 -25.4696 2396.26 -26.8761 2397.39C-28.2826 2398.53 -30.3421 2398.31 -31.476 2396.91C-32.61 2395.5 -32.389 2393.44 -30.9824 2392.31Z" fill="#2F3030"/>
<path d="M-43.3013 2377.05C-41.8948 2375.91 -39.8353 2376.13 -38.7014 2377.53C-37.5675 2378.94 -37.7885 2381 -39.195 2382.13C-40.6016 2383.27 -42.661 2383.05 -43.795 2381.64C-44.9289 2380.24 -44.7079 2378.18 -43.3013 2377.05Z" fill="#2F3030"/>
<path d="M-55.6203 2361.78C-54.2137 2360.65 -52.1543 2360.87 -51.0203 2362.27C-49.8864 2363.68 -50.1074 2365.74 -51.514 2366.87C-52.9205 2368.01 -54.98 2367.79 -56.1139 2366.38C-57.2478 2364.98 -57.0268 2362.92 -55.6203 2361.78Z" fill="#2F3030"/>
<path d="M-67.9392 2346.52C-66.5327 2345.39 -64.4732 2345.61 -63.3393 2347.01C-62.2053 2348.42 -62.4263 2350.48 -63.8329 2351.61C-65.2394 2352.75 -67.2989 2352.53 -68.4328 2351.12C-69.5667 2349.72 -69.3457 2347.66 -67.9392 2346.52Z" fill="#2F3030"/>
<path d="M-80.2581 2331.26C-78.8516 2330.13 -76.7921 2330.35 -75.6582 2331.75C-74.5243 2333.16 -74.7453 2335.22 -76.1518 2336.35C-77.5584 2337.49 -79.6178 2337.27 -80.7517 2335.86C-81.8857 2334.46 -81.6647 2332.4 -80.2581 2331.26Z" fill="#2F3030"/>
<path d="M-92.577 2316C-91.1705 2314.87 -89.1111 2315.09 -87.9771 2316.49C-86.8432 2317.9 -87.0642 2319.95 -88.4707 2321.09C-89.8773 2322.23 -91.9367 2322.01 -93.0707 2320.6C-94.2046 2319.2 -93.9836 2317.14 -92.577 2316Z" fill="#2F3030"/>
<path d="M-104.896 2300.74C-103.489 2299.61 -101.43 2299.83 -100.296 2301.23C-99.1621 2302.63 -99.3831 2304.69 -100.79 2305.83C-102.196 2306.96 -104.256 2306.75 -105.39 2305.34C-106.524 2303.94 -106.303 2301.88 -104.896 2300.74Z" fill="#2F3030"/>
<path d="M33.5739 2441.01C34.9805 2439.88 37.0399 2440.1 38.1738 2441.5C39.3078 2442.91 39.0868 2444.96 37.6802 2446.1C36.2737 2447.24 34.2142 2447.02 33.0803 2445.61C31.9464 2444.21 32.1674 2442.15 33.5739 2441.01Z" fill="#2F3030"/>
<path d="M21.255 2425.75C22.6615 2424.62 24.721 2424.84 25.8549 2426.24C26.9888 2427.64 26.7678 2429.7 25.3613 2430.84C23.9548 2431.97 21.8953 2431.76 20.7614 2430.35C19.6274 2428.95 19.8484 2426.89 21.255 2425.75Z" fill="#2F3030"/>
<path d="M8.93606 2410.49C10.3426 2409.36 12.4021 2409.57 13.536 2410.98C14.6699 2412.38 14.4489 2414.44 13.0424 2415.58C11.6358 2416.71 9.57637 2416.5 8.44244 2415.09C7.30852 2413.69 7.52952 2411.63 8.93606 2410.49Z" fill="#2F3030"/>
<path d="M-3.38286 2395.23C-1.97632 2394.1 0.0831319 2394.31 1.21706 2395.72C2.35098 2397.12 2.12998 2399.18 0.723442 2400.32C-0.683101 2401.45 -2.74256 2401.24 -3.87648 2399.83C-5.01041 2398.43 -4.78941 2396.37 -3.38286 2395.23Z" fill="#2F3030"/>
<path d="M-15.7018 2379.97C-14.2953 2378.84 -12.2358 2379.05 -11.1019 2380.46C-9.96794 2381.86 -10.1889 2383.92 -11.5955 2385.06C-13.002 2386.19 -15.0615 2385.97 -16.1954 2384.57C-17.3293 2383.17 -17.1083 2381.11 -15.7018 2379.97Z" fill="#2F3030"/>
<path d="M-28.0207 2364.71C-26.6142 2363.57 -24.5547 2363.79 -23.4208 2365.2C-22.2869 2366.6 -22.5079 2368.66 -23.9144 2369.8C-25.321 2370.93 -27.3804 2370.71 -28.5143 2369.31C-29.6483 2367.9 -29.4273 2365.85 -28.0207 2364.71Z" fill="#2F3030"/>
<path d="M-40.3396 2349.45C-38.9331 2348.31 -36.8736 2348.53 -35.7397 2349.94C-34.6058 2351.34 -34.8268 2353.4 -36.2333 2354.54C-37.6399 2355.67 -39.6993 2355.45 -40.8333 2354.05C-41.9672 2352.64 -41.7462 2350.59 -40.3396 2349.45Z" fill="#2F3030"/>
<path d="M-52.6586 2334.19C-51.252 2333.05 -49.1926 2333.27 -48.0586 2334.68C-46.9247 2336.08 -47.1457 2338.14 -48.5523 2339.28C-49.9588 2340.41 -52.0183 2340.19 -53.1522 2338.79C-54.2861 2337.38 -54.0651 2335.32 -52.6586 2334.19Z" fill="#2F3030"/>
<path d="M-64.9775 2318.93C-63.571 2317.79 -61.5115 2318.01 -60.3776 2319.42C-59.2437 2320.82 -59.4646 2322.88 -60.8712 2324.02C-62.2777 2325.15 -64.3372 2324.93 -65.4711 2323.53C-66.605 2322.12 -66.384 2320.06 -64.9775 2318.93Z" fill="#2F3030"/>
<path d="M-77.2964 2303.67C-75.8899 2302.53 -73.8304 2302.75 -72.6965 2304.16C-71.5626 2305.56 -71.7836 2307.62 -73.1901 2308.75C-74.5967 2309.89 -76.6561 2309.67 -77.79 2308.27C-78.924 2306.86 -78.703 2304.8 -77.2964 2303.67Z" fill="#2F3030"/>
<path d="M-89.6153 2288.41C-88.2088 2287.27 -86.1494 2287.49 -85.0154 2288.89C-83.8815 2290.3 -84.1025 2292.36 -85.509 2293.49C-86.9156 2294.63 -88.975 2294.41 -90.109 2293.01C-91.2429 2291.6 -91.0219 2289.54 -89.6153 2288.41Z" fill="#2F3030"/>
<path d="M48.8545 2428.68C50.2611 2427.54 52.3205 2427.76 53.4545 2429.17C54.5884 2430.57 54.3674 2432.63 52.9608 2433.77C51.5543 2434.9 49.4948 2434.68 48.3609 2433.28C47.227 2431.87 47.448 2429.81 48.8545 2428.68Z" fill="#2F3030"/>
<path d="M36.5356 2413.42C37.9421 2412.28 40.0016 2412.5 41.1355 2413.91C42.2695 2415.31 42.0485 2417.37 40.6419 2418.5C39.2354 2419.64 37.1759 2419.42 36.042 2418.02C34.9081 2416.61 35.1291 2414.55 36.5356 2413.42Z" fill="#2F3030"/>
<path d="M24.2167 2398.16C25.6232 2397.02 27.6827 2397.24 28.8166 2398.64C29.9505 2400.05 29.7295 2402.11 28.323 2403.24C26.9164 2404.38 24.857 2404.16 23.7231 2402.76C22.5891 2401.35 22.8101 2399.29 24.2167 2398.16Z" fill="#2F3030"/>
<path d="M11.8978 2382.9C13.3043 2381.76 15.3638 2381.98 16.4977 2383.38C17.6316 2384.79 17.4106 2386.85 16.0041 2387.98C14.5975 2389.12 12.5381 2388.9 11.4041 2387.5C10.2702 2386.09 10.4912 2384.03 11.8978 2382.9Z" fill="#2F3030"/>
<path d="M-0.421174 2367.64C0.985369 2366.5 3.04483 2366.72 4.17875 2368.12C5.31268 2369.53 5.09168 2371.59 3.68514 2372.72C2.2786 2373.86 0.219139 2373.64 -0.914787 2372.24C-2.04871 2370.83 -1.82772 2368.77 -0.421174 2367.64Z" fill="#2F3030"/>
<path d="M-12.7401 2352.38C-11.3336 2351.24 -9.2741 2351.46 -8.14017 2352.86C-7.00625 2354.27 -7.22725 2356.33 -8.63379 2357.46C-10.0403 2358.6 -12.0998 2358.38 -13.2337 2356.97C-14.3676 2355.57 -14.1466 2353.51 -12.7401 2352.38Z" fill="#2F3030"/>
<path d="M-25.059 2337.11C-23.6525 2335.98 -21.593 2336.2 -20.4591 2337.6C-19.3252 2339.01 -19.5462 2341.07 -20.9527 2342.2C-22.3593 2343.34 -24.4187 2343.12 -25.5526 2341.71C-26.6866 2340.31 -26.4656 2338.25 -25.059 2337.11Z" fill="#2F3030"/>
<path d="M-37.378 2321.85C-35.9714 2320.72 -33.9119 2320.94 -32.778 2322.34C-31.6441 2323.75 -31.8651 2325.81 -33.2716 2326.94C-34.6782 2328.08 -36.7376 2327.86 -37.8716 2326.45C-39.0055 2325.05 -38.7845 2322.99 -37.378 2321.85Z" fill="#2F3030"/>
<path d="M-49.6969 2306.59C-48.2903 2305.46 -46.2309 2305.68 -45.097 2307.08C-43.963 2308.49 -44.184 2310.54 -45.5906 2311.68C-46.9971 2312.82 -49.0566 2312.6 -50.1905 2311.19C-51.3244 2309.79 -51.1034 2307.73 -49.6969 2306.59Z" fill="#2F3030"/>
<path d="M-62.0158 2291.33C-60.6093 2290.2 -58.5498 2290.42 -57.4159 2291.82C-56.282 2293.23 -56.5029 2295.28 -57.9095 2296.42C-59.316 2297.56 -61.3755 2297.34 -62.5094 2295.93C-63.6433 2294.53 -63.4223 2292.47 -62.0158 2291.33Z" fill="#2F3030"/>
<path d="M-74.3347 2276.07C-72.9282 2274.94 -70.8687 2275.16 -69.7348 2276.56C-68.6009 2277.96 -68.8219 2280.02 -70.2284 2281.16C-71.635 2282.29 -73.6944 2282.08 -74.8283 2280.67C-75.9623 2279.27 -75.7413 2277.21 -74.3347 2276.07Z" fill="#2F3030"/>
<path d="M64.1352 2416.34C65.5417 2415.21 67.6012 2415.43 68.7351 2416.83C69.869 2418.24 69.648 2420.29 68.2415 2421.43C66.8349 2422.57 64.7755 2422.35 63.6415 2420.94C62.5076 2419.54 62.7286 2417.48 64.1352 2416.34Z" fill="#2F3030"/>
<path d="M51.8162 2401.08C53.2228 2399.95 55.2822 2400.17 56.4162 2401.57C57.5501 2402.97 57.3291 2405.03 55.9225 2406.17C54.516 2407.3 52.4565 2407.09 51.3226 2405.68C50.1887 2404.28 50.4097 2402.22 51.8162 2401.08Z" fill="#2F3030"/>
<path d="M39.4973 2385.82C40.9038 2384.69 42.9633 2384.9 44.0972 2386.31C45.2312 2387.71 45.0102 2389.77 43.6036 2390.91C42.1971 2392.04 40.1376 2391.83 39.0037 2390.42C37.8698 2389.02 38.0908 2386.96 39.4973 2385.82Z" fill="#2F3030"/>
<path d="M27.1784 2370.56C28.5849 2369.43 30.6444 2369.64 31.7783 2371.05C32.9122 2372.45 32.6912 2374.51 31.2847 2375.65C29.8781 2376.78 27.8187 2376.57 26.6848 2375.16C25.5508 2373.76 25.7718 2371.7 27.1784 2370.56Z" fill="#2F3030"/>
<path d="M14.8594 2355.3C16.266 2354.17 18.3255 2354.38 19.4594 2355.79C20.5933 2357.19 20.3723 2359.25 18.9658 2360.39C17.5592 2361.52 15.4998 2361.3 14.3658 2359.9C13.2319 2358.5 13.4529 2356.44 14.8594 2355.3Z" fill="#2F3030"/>
<path d="M2.54052 2340.04C3.94706 2338.9 6.00653 2339.12 7.14045 2340.53C8.27438 2341.93 8.05337 2343.99 6.64683 2345.13C5.24029 2346.26 3.18083 2346.04 2.04691 2344.64C0.912983 2343.23 1.13398 2341.18 2.54052 2340.04Z" fill="#2F3030"/>
<path d="M-9.7784 2324.78C-8.37186 2323.64 -6.3124 2323.86 -5.17848 2325.27C-4.04455 2326.67 -4.26555 2328.73 -5.6721 2329.87C-7.07864 2331 -9.13809 2330.78 -10.272 2329.38C-11.4059 2327.97 -11.1849 2325.91 -9.7784 2324.78Z" fill="#2F3030"/>
<path d="M-22.0973 2309.52C-20.6908 2308.38 -18.6313 2308.6 -17.4974 2310.01C-16.3635 2311.41 -16.5845 2313.47 -17.991 2314.61C-19.3976 2315.74 -21.457 2315.52 -22.5909 2314.12C-23.7249 2312.71 -23.5039 2310.65 -22.0973 2309.52Z" fill="#2F3030"/>
<path d="M-34.4163 2294.26C-33.0097 2293.12 -30.9503 2293.34 -29.8163 2294.75C-28.6824 2296.15 -28.9034 2298.21 -30.3099 2299.35C-31.7165 2300.48 -33.7759 2300.26 -34.9099 2298.86C-36.0438 2297.45 -35.8228 2295.39 -34.4163 2294.26Z" fill="#2F3030"/>
<path d="M-46.7352 2279C-45.3286 2277.86 -43.2692 2278.08 -42.1353 2279.49C-41.0013 2280.89 -41.2223 2282.95 -42.6289 2284.08C-44.0354 2285.22 -46.0949 2285 -47.2288 2283.6C-48.3627 2282.19 -48.1417 2280.13 -46.7352 2279Z" fill="#2F3030"/>
<path d="M-59.0541 2263.74C-57.6476 2262.6 -55.5881 2262.82 -54.4542 2264.22C-53.3203 2265.63 -53.5413 2267.69 -54.9478 2268.82C-56.3543 2269.96 -58.4138 2269.74 -59.5477 2268.34C-60.6817 2266.93 -60.4606 2264.87 -59.0541 2263.74Z" fill="#2F3030"/>
<path d="M79.4158 2404.01C80.8223 2402.87 82.8818 2403.09 84.0157 2404.5C85.1496 2405.9 84.9286 2407.96 83.5221 2409.09C82.1155 2410.23 80.0561 2410.01 78.9222 2408.61C77.7882 2407.2 78.0092 2405.14 79.4158 2404.01Z" fill="#2F3030"/>
<path d="M67.0969 2388.75C68.5034 2387.61 70.5629 2387.83 71.6968 2389.23C72.8307 2390.64 72.6097 2392.7 71.2032 2393.83C69.7966 2394.97 67.7372 2394.75 66.6032 2393.35C65.4693 2391.94 65.6903 2389.88 67.0969 2388.75Z" fill="#2F3030"/>
<path d="M54.7779 2373.49C56.1845 2372.35 58.2439 2372.57 59.3779 2373.97C60.5118 2375.38 60.2908 2377.44 58.8842 2378.57C57.4777 2379.71 55.4182 2379.49 54.2843 2378.09C53.1504 2376.68 53.3714 2374.62 54.7779 2373.49Z" fill="#2F3030"/>
<path d="M42.459 2358.23C43.8655 2357.09 45.925 2357.31 47.0589 2358.71C48.1929 2360.12 47.9719 2362.18 46.5653 2363.31C45.1588 2364.45 43.0993 2364.23 41.9654 2362.83C40.8315 2361.42 41.0525 2359.36 42.459 2358.23Z" fill="#2F3030"/>
<path d="M30.1401 2342.97C31.5466 2341.83 33.6061 2342.05 34.74 2343.45C35.8739 2344.86 35.6529 2346.92 34.2464 2348.05C32.8398 2349.19 30.7804 2348.97 29.6465 2347.56C28.5125 2346.16 28.7335 2344.1 30.1401 2342.97Z" fill="#2F3030"/>
<path d="M17.8211 2327.71C19.2277 2326.57 21.2871 2326.79 22.4211 2328.19C23.555 2329.6 23.334 2331.66 21.9275 2332.79C20.5209 2333.93 18.4615 2333.71 17.3275 2332.3C16.1936 2330.9 16.4146 2328.84 17.8211 2327.71Z" fill="#2F3030"/>
<path d="M5.50222 2312.44C6.90877 2311.31 8.96822 2311.53 10.1021 2312.93C11.2361 2314.34 11.0151 2316.4 9.60853 2317.53C8.20199 2318.67 6.14253 2318.45 5.00861 2317.04C3.87468 2315.64 4.09568 2313.58 5.50222 2312.44Z" fill="#2F3030"/>
<path d="M-6.81671 2297.18C-5.41016 2296.05 -3.3507 2296.27 -2.21678 2297.67C-1.08285 2299.08 -1.30385 2301.14 -2.71039 2302.27C-4.11694 2303.41 -6.17639 2303.19 -7.31031 2301.78C-8.44424 2300.38 -8.22325 2298.32 -6.81671 2297.18Z" fill="#2F3030"/>
<path d="M-19.1356 2281.92C-17.7291 2280.79 -15.6696 2281.01 -14.5357 2282.41C-13.4018 2283.82 -13.6228 2285.87 -15.0293 2287.01C-16.4359 2288.15 -18.4953 2287.93 -19.6292 2286.52C-20.7632 2285.12 -20.5422 2283.06 -19.1356 2281.92Z" fill="#2F3030"/>
<path d="M-31.4546 2266.66C-30.048 2265.53 -27.9886 2265.75 -26.8546 2267.15C-25.7207 2268.55 -25.9417 2270.61 -27.3482 2271.75C-28.7548 2272.88 -30.8142 2272.67 -31.9482 2271.26C-33.0821 2269.86 -32.8611 2267.8 -31.4546 2266.66Z" fill="#2F3030"/>
<path d="M-43.7735 2251.4C-42.3669 2250.27 -40.3075 2250.48 -39.1736 2251.89C-38.0396 2253.29 -38.2606 2255.35 -39.6672 2256.49C-41.0737 2257.62 -43.1332 2257.41 -44.2671 2256C-45.401 2254.6 -45.18 2252.54 -43.7735 2251.4Z" fill="#2F3030"/>
<path d="M94.6964 2391.67C96.1029 2390.54 98.1624 2390.76 99.2963 2392.16C100.43 2393.57 100.209 2395.62 98.8027 2396.76C97.3962 2397.9 95.3367 2397.68 94.2028 2396.27C93.0689 2394.87 93.2899 2392.81 94.6964 2391.67Z" fill="#2F3030"/>
<path d="M82.3775 2376.41C83.784 2375.28 85.8435 2375.5 86.9774 2376.9C88.1113 2378.3 87.8903 2380.36 86.4838 2381.5C85.0772 2382.63 83.0178 2382.42 81.8839 2381.01C80.7499 2379.61 80.9709 2377.55 82.3775 2376.41Z" fill="#2F3030"/>
<path d="M70.0585 2361.15C71.4651 2360.02 73.5245 2360.23 74.6585 2361.64C75.7924 2363.04 75.5714 2365.1 74.1649 2366.24C72.7583 2367.37 70.6989 2367.16 69.5649 2365.75C68.431 2364.35 68.652 2362.29 70.0585 2361.15Z" fill="#2F3030"/>
<path d="M57.7396 2345.89C59.1462 2344.76 61.2056 2344.97 62.3395 2346.38C63.4735 2347.78 63.2525 2349.84 61.8459 2350.98C60.4394 2352.11 58.3799 2351.9 57.246 2350.49C56.1121 2349.09 56.3331 2347.03 57.7396 2345.89Z" fill="#2F3030"/>
<path d="M45.4207 2330.63C46.8272 2329.5 48.8867 2329.71 50.0206 2331.12C51.1545 2332.52 50.9335 2334.58 49.527 2335.72C48.1205 2336.85 46.061 2336.63 44.9271 2335.23C43.7932 2333.83 44.0142 2331.77 45.4207 2330.63Z" fill="#2F3030"/>
<path d="M33.1018 2315.37C34.5083 2314.23 36.5678 2314.45 37.7017 2315.86C38.8356 2317.26 38.6146 2319.32 37.2081 2320.46C35.8015 2321.59 33.7421 2321.37 32.6082 2319.97C31.4742 2318.56 31.6952 2316.51 33.1018 2315.37Z" fill="#2F3030"/>
<path d="M20.7828 2300.11C22.1894 2298.97 24.2488 2299.19 25.3828 2300.6C26.5167 2302 26.2957 2304.06 24.8892 2305.2C23.4826 2306.33 21.4232 2306.11 20.2892 2304.71C19.1553 2303.3 19.3763 2301.24 20.7828 2300.11Z" fill="#2F3030"/>
<path d="M8.46392 2284.85C9.87046 2283.71 11.9299 2283.93 13.0638 2285.34C14.1978 2286.74 13.9768 2288.8 12.5702 2289.94C11.1637 2291.07 9.10423 2290.85 7.97031 2289.45C6.83638 2288.04 7.05737 2285.98 8.46392 2284.85Z" fill="#2F3030"/>
<path d="M-3.85501 2269.59C-2.44847 2268.45 -0.389015 2268.67 0.74491 2270.08C1.87884 2271.48 1.65784 2273.54 0.251302 2274.68C-1.15524 2275.81 -3.2147 2275.59 -4.34863 2274.19C-5.48255 2272.78 -5.26155 2270.72 -3.85501 2269.59Z" fill="#2F3030"/>
<path d="M-16.1739 2254.33C-14.7674 2253.19 -12.7079 2253.41 -11.574 2254.82C-10.4401 2256.22 -10.6611 2258.28 -12.0676 2259.41C-13.4742 2260.55 -15.5336 2260.33 -16.6676 2258.93C-17.8015 2257.52 -17.5805 2255.46 -16.1739 2254.33Z" fill="#2F3030"/>
<path d="M-28.4929 2239.07C-27.0863 2237.93 -25.0269 2238.15 -23.8929 2239.55C-22.759 2240.96 -22.98 2243.02 -24.3866 2244.15C-25.7931 2245.29 -27.8526 2245.07 -28.9865 2243.67C-30.1204 2242.26 -29.8994 2240.2 -28.4929 2239.07Z" fill="#2F3030"/>
<path d="M109.977 2379.34C111.384 2378.2 113.443 2378.42 114.577 2379.83C115.711 2381.23 115.49 2383.29 114.083 2384.42C112.677 2385.56 110.617 2385.34 109.483 2383.94C108.349 2382.53 108.57 2380.47 109.977 2379.34Z" fill="#2F3030"/>
<path d="M97.6581 2364.08C99.0646 2362.94 101.124 2363.16 102.258 2364.56C103.392 2365.97 103.171 2368.03 101.764 2369.16C100.358 2370.3 98.2984 2370.08 97.1645 2368.68C96.0306 2367.27 96.2516 2365.21 97.6581 2364.08Z" fill="#2F3030"/>
<path d="M85.3392 2348.82C86.7457 2347.68 88.8052 2347.9 89.9391 2349.3C91.073 2350.71 90.852 2352.77 89.4455 2353.9C88.0389 2355.04 85.9795 2354.82 84.8456 2353.42C83.7116 2352.01 83.9326 2349.95 85.3392 2348.82Z" fill="#2F3030"/>
<path d="M73.0202 2333.56C74.4268 2332.42 76.4862 2332.64 77.6202 2334.04C78.7541 2335.45 78.5331 2337.51 77.1266 2338.64C75.72 2339.78 73.6606 2339.56 72.5266 2338.16C71.3927 2336.75 71.6137 2334.69 73.0202 2333.56Z" fill="#2F3030"/>
<path d="M60.7013 2318.3C62.1079 2317.16 64.1673 2317.38 65.3012 2318.78C66.4352 2320.19 66.2142 2322.25 64.8076 2323.38C63.4011 2324.52 61.3416 2324.3 60.2077 2322.89C59.0738 2321.49 59.2948 2319.43 60.7013 2318.3Z" fill="#2F3030"/>
<path d="M48.3824 2303.03C49.7889 2301.9 51.8484 2302.12 52.9823 2303.52C54.1162 2304.93 53.8952 2306.99 52.4887 2308.12C51.0822 2309.26 49.0227 2309.04 47.8888 2307.63C46.7549 2306.23 46.9758 2304.17 48.3824 2303.03Z" fill="#2F3030"/>
<path d="M36.0635 2287.77C37.47 2286.64 39.5295 2286.86 40.6634 2288.26C41.7973 2289.67 41.5763 2291.73 40.1698 2292.86C38.7632 2294 36.7038 2293.78 35.5699 2292.37C34.4359 2290.97 34.6569 2288.91 36.0635 2287.77Z" fill="#2F3030"/>
<path d="M23.7445 2272.51C25.1511 2271.38 27.2105 2271.6 28.3445 2273C29.4784 2274.41 29.2574 2276.47 27.8508 2277.6C26.4443 2278.74 24.3849 2278.52 23.2509 2277.11C22.117 2275.71 22.338 2273.65 23.7445 2272.51Z" fill="#2F3030"/>
<path d="M11.4256 2257.25C12.8322 2256.12 14.8916 2256.34 16.0255 2257.74C17.1595 2259.15 16.9385 2261.2 15.5319 2262.34C14.1254 2263.48 12.0659 2263.26 10.932 2261.85C9.79807 2260.45 10.0191 2258.39 11.4256 2257.25Z" fill="#2F3030"/>
<path d="M-0.893314 2241.99C0.513229 2240.86 2.57269 2241.08 3.70661 2242.48C4.84054 2243.88 4.61954 2245.94 3.213 2247.08C1.80646 2248.21 -0.253 2248 -1.38693 2246.59C-2.52085 2245.19 -2.29986 2243.13 -0.893314 2241.99Z" fill="#2F3030"/>
<path d="M-13.2122 2226.73C-11.8057 2225.6 -9.74624 2225.81 -8.61231 2227.22C-7.47839 2228.62 -7.69939 2230.68 -9.10594 2231.82C-10.5125 2232.95 -12.5719 2232.74 -13.7059 2231.33C-14.8398 2229.93 -14.6188 2227.87 -13.2122 2226.73Z" fill="#2F3030"/>
<path d="M125.258 2367C126.664 2365.87 128.724 2366.09 129.858 2367.49C130.991 2368.89 130.771 2370.95 129.364 2372.09C127.957 2373.22 125.898 2373.01 124.764 2371.6C123.63 2370.2 123.851 2368.14 125.258 2367Z" fill="#2F3030"/>
<path d="M112.939 2351.74C114.345 2350.61 116.405 2350.82 117.539 2352.23C118.673 2353.63 118.452 2355.69 117.045 2356.83C115.638 2357.96 113.579 2357.75 112.445 2356.34C111.311 2354.94 111.532 2352.88 112.939 2351.74Z" fill="#2F3030"/>
<path d="M100.62 2336.48C102.026 2335.35 104.086 2335.56 105.22 2336.97C106.354 2338.37 106.133 2340.43 104.726 2341.57C103.32 2342.7 101.26 2342.49 100.126 2341.08C98.9922 2339.68 99.2133 2337.62 100.62 2336.48Z" fill="#2F3030"/>
<path d="M88.3009 2321.22C89.7074 2320.09 91.7669 2320.3 92.9008 2321.71C94.0347 2323.11 93.8137 2325.17 92.4072 2326.31C91.0006 2327.44 88.9412 2327.22 87.8073 2325.82C86.6733 2324.42 86.8943 2322.36 88.3009 2321.22Z" fill="#2F3030"/>
<path d="M75.9819 2305.96C77.3885 2304.82 79.4479 2305.04 80.5819 2306.45C81.7158 2307.85 81.4948 2309.91 80.0883 2311.05C78.6817 2312.18 76.6222 2311.96 75.4883 2310.56C74.3544 2309.15 74.5754 2307.1 75.9819 2305.96Z" fill="#2F3030"/>
<path d="M63.663 2290.7C65.0696 2289.56 67.129 2289.78 68.2629 2291.19C69.3969 2292.59 69.1759 2294.65 67.7693 2295.79C66.3628 2296.92 64.3033 2296.7 63.1694 2295.3C62.0355 2293.89 62.2565 2291.84 63.663 2290.7Z" fill="#2F3030"/>
<path d="M51.3441 2275.44C52.7506 2274.3 54.8101 2274.52 55.944 2275.93C57.0779 2277.33 56.8569 2279.39 55.4504 2280.53C54.0439 2281.66 51.9844 2281.44 50.8505 2280.04C49.7165 2278.63 49.9375 2276.57 51.3441 2275.44Z" fill="#2F3030"/>
<path d="M39.0252 2260.18C40.4317 2259.04 42.4912 2259.26 43.6251 2260.67C44.759 2262.07 44.538 2264.13 43.1315 2265.27C41.7249 2266.4 39.6655 2266.18 38.5315 2264.78C37.3976 2263.37 37.6186 2261.31 39.0252 2260.18Z" fill="#2F3030"/>
<path d="M26.7062 2244.92C28.1128 2243.78 30.1722 2244 31.3062 2245.41C32.4401 2246.81 32.2191 2248.87 30.8125 2250C29.406 2251.14 27.3465 2250.92 26.2126 2249.52C25.0787 2248.11 25.2997 2246.05 26.7062 2244.92Z" fill="#2F3030"/>
<path d="M14.3873 2229.66C15.7939 2228.52 17.8533 2228.74 18.9872 2230.14C20.1212 2231.55 19.9002 2233.61 18.4936 2234.74C17.0871 2235.88 15.0276 2235.66 13.8937 2234.26C12.7598 2232.85 12.9808 2230.79 14.3873 2229.66Z" fill="#2F3030"/>
<path d="M2.06839 2214.4C3.47493 2213.26 5.53438 2213.48 6.6683 2214.88C7.80223 2216.29 7.58123 2218.35 6.17469 2219.48C4.76815 2220.62 2.70869 2220.4 1.57476 2219C0.440838 2217.59 0.661846 2215.53 2.06839 2214.4Z" fill="#2F3030"/>
<path d="M140.538 2354.67C141.945 2353.53 144.004 2353.75 145.138 2355.16C146.272 2356.56 146.051 2358.62 144.645 2359.75C143.238 2360.89 141.179 2360.67 140.045 2359.27C138.911 2357.86 139.132 2355.8 140.538 2354.67Z" fill="#2F3030"/>
<path d="M128.219 2339.41C129.626 2338.27 131.685 2338.49 132.819 2339.89C133.953 2341.3 133.732 2343.36 132.326 2344.49C130.919 2345.63 128.86 2345.41 127.726 2344.01C126.592 2342.6 126.813 2340.54 128.219 2339.41Z" fill="#2F3030"/>
<path d="M115.9 2324.15C117.307 2323.01 119.366 2323.23 120.5 2324.63C121.634 2326.04 121.413 2328.1 120.007 2329.23C118.6 2330.37 116.541 2330.15 115.407 2328.75C114.273 2327.34 114.494 2325.28 115.9 2324.15Z" fill="#2F3030"/>
<path d="M103.581 2308.89C104.988 2307.75 107.047 2307.97 108.181 2309.37C109.315 2310.78 109.094 2312.84 107.688 2313.97C106.281 2315.11 104.222 2314.89 103.088 2313.49C101.954 2312.08 102.175 2310.02 103.581 2308.89Z" fill="#2F3030"/>
<path d="M91.2626 2293.63C92.6691 2292.49 94.7286 2292.71 95.8625 2294.11C96.9964 2295.52 96.7754 2297.58 95.3689 2298.71C93.9623 2299.85 91.9029 2299.63 90.7689 2298.22C89.635 2296.82 89.856 2294.76 91.2626 2293.63Z" fill="#2F3030"/>
<path d="M78.9436 2278.36C80.3502 2277.23 82.4096 2277.45 83.5436 2278.85C84.6775 2280.26 84.4565 2282.32 83.05 2283.45C81.6434 2284.59 79.584 2284.37 78.45 2282.96C77.3161 2281.56 77.5371 2279.5 78.9436 2278.36Z" fill="#2F3030"/>
<path d="M66.6247 2263.1C68.0313 2261.97 70.0907 2262.19 71.2246 2263.59C72.3586 2265 72.1376 2267.06 70.731 2268.19C69.3245 2269.33 67.265 2269.11 66.1311 2267.7C64.9972 2266.3 65.2182 2264.24 66.6247 2263.1Z" fill="#2F3030"/>
<path d="M54.3058 2247.84C55.7123 2246.71 57.7718 2246.93 58.9057 2248.33C60.0396 2249.74 59.8186 2251.79 58.4121 2252.93C57.0056 2254.07 54.9461 2253.85 53.8122 2252.44C52.6782 2251.04 52.8992 2248.98 54.3058 2247.84Z" fill="#2F3030"/>
<path d="M41.9869 2232.58C43.3934 2231.45 45.4529 2231.67 46.5868 2233.07C47.7207 2234.48 47.4997 2236.53 46.0932 2237.67C44.6866 2238.81 42.6272 2238.59 41.4932 2237.18C40.3593 2235.78 40.5803 2233.72 41.9869 2232.58Z" fill="#2F3030"/>
<path d="M29.6679 2217.32C31.0745 2216.19 33.1339 2216.41 34.2679 2217.81C35.4018 2219.21 35.1808 2221.27 33.7743 2222.41C32.3677 2223.54 30.3082 2223.33 29.1743 2221.92C28.0404 2220.52 28.2614 2218.46 29.6679 2217.32Z" fill="#2F3030"/>
<path d="M17.349 2202.06C18.7556 2200.93 20.815 2201.14 21.9489 2202.55C23.0829 2203.95 22.8619 2206.01 21.4553 2207.15C20.0488 2208.28 17.9893 2208.07 16.8554 2206.66C15.7215 2205.26 15.9425 2203.2 17.349 2202.06Z" fill="#2F3030"/>
<path d="M155.819 2342.33C157.225 2341.2 159.285 2341.42 160.419 2342.82C161.553 2344.22 161.332 2346.28 159.925 2347.42C158.519 2348.55 156.459 2348.34 155.325 2346.93C154.191 2345.53 154.412 2343.47 155.819 2342.33Z" fill="#2F3030"/>
<path d="M143.5 2327.07C144.907 2325.94 146.966 2326.15 148.1 2327.56C149.234 2328.96 149.013 2331.02 147.606 2332.16C146.2 2333.29 144.14 2333.08 143.006 2331.67C141.872 2330.27 142.093 2328.21 143.5 2327.07Z" fill="#2F3030"/>
<path d="M131.181 2311.81C132.588 2310.68 134.647 2310.89 135.781 2312.3C136.915 2313.7 136.694 2315.76 135.287 2316.9C133.881 2318.03 131.821 2317.82 130.687 2316.41C129.554 2315.01 129.774 2312.95 131.181 2311.81Z" fill="#2F3030"/>
<path d="M118.862 2296.55C120.269 2295.42 122.328 2295.63 123.462 2297.04C124.596 2298.44 124.375 2300.5 122.968 2301.64C121.562 2302.77 119.502 2302.55 118.369 2301.15C117.235 2299.75 117.456 2297.69 118.862 2296.55Z" fill="#2F3030"/>
<path d="M106.543 2281.29C107.95 2280.15 110.009 2280.37 111.143 2281.78C112.277 2283.18 112.056 2285.24 110.649 2286.38C109.243 2287.51 107.184 2287.29 106.05 2285.89C104.916 2284.48 105.137 2282.43 106.543 2281.29Z" fill="#2F3030"/>
<path d="M94.2243 2266.03C95.6308 2264.89 97.6903 2265.11 98.8242 2266.52C99.9581 2267.92 99.7371 2269.98 98.3306 2271.12C96.924 2272.25 94.8646 2272.03 93.7307 2270.63C92.5967 2269.22 92.8177 2267.16 94.2243 2266.03Z" fill="#2F3030"/>
<path d="M81.9053 2250.77C83.3119 2249.63 85.3713 2249.85 86.5053 2251.26C87.6392 2252.66 87.4182 2254.72 86.0116 2255.86C84.6051 2256.99 82.5456 2256.77 81.4117 2255.37C80.2778 2253.96 80.4988 2251.9 81.9053 2250.77Z" fill="#2F3030"/>
<path d="M69.5864 2235.51C70.9929 2234.37 73.0524 2234.59 74.1863 2236C75.3203 2237.4 75.0993 2239.46 73.6927 2240.6C72.2862 2241.73 70.2267 2241.51 69.0928 2240.11C67.9589 2238.7 68.1799 2236.64 69.5864 2235.51Z" fill="#2F3030"/>
<path d="M57.2675 2220.25C58.674 2219.11 60.7335 2219.33 61.8674 2220.74C63.0013 2222.14 62.7803 2224.2 61.3738 2225.33C59.9672 2226.47 57.9078 2226.25 56.7739 2224.85C55.6399 2223.44 55.8609 2221.38 57.2675 2220.25Z" fill="#2F3030"/>
<path d="M44.9486 2204.99C46.3551 2203.85 48.4146 2204.07 49.5485 2205.47C50.6824 2206.88 50.4614 2208.94 49.0549 2210.07C47.6483 2211.21 45.5889 2210.99 44.4549 2209.59C43.321 2208.18 43.542 2206.12 44.9486 2204.99Z" fill="#2F3030"/>
<path d="M32.6296 2189.73C34.0362 2188.59 36.0956 2188.81 37.2296 2190.21C38.3635 2191.62 38.1425 2193.68 36.7359 2194.81C35.3294 2195.95 33.2699 2195.73 32.136 2194.33C31.0021 2192.92 31.2231 2190.86 32.6296 2189.73Z" fill="#2F3030"/>
<path d="M171.1 2330C172.506 2328.86 174.566 2329.08 175.699 2330.48C176.833 2331.89 176.612 2333.95 175.206 2335.08C173.799 2336.22 171.74 2336 170.606 2334.6C169.472 2333.19 169.693 2331.13 171.1 2330Z" fill="#2F3030"/>
<path d="M158.781 2314.74C160.187 2313.6 162.247 2313.82 163.381 2315.22C164.514 2316.63 164.293 2318.69 162.887 2319.82C161.48 2320.96 159.421 2320.74 158.287 2319.34C157.153 2317.93 157.374 2315.87 158.781 2314.74Z" fill="#2F3030"/>
<path d="M146.462 2299.48C147.868 2298.34 149.928 2298.56 151.062 2299.96C152.196 2301.37 151.975 2303.43 150.568 2304.56C149.161 2305.7 147.102 2305.48 145.968 2304.08C144.834 2302.67 145.055 2300.61 146.462 2299.48Z" fill="#2F3030"/>
<path d="M134.143 2284.22C135.549 2283.08 137.609 2283.3 138.743 2284.7C139.877 2286.11 139.656 2288.17 138.249 2289.3C136.843 2290.44 134.783 2290.22 133.649 2288.81C132.515 2287.41 132.736 2285.35 134.143 2284.22Z" fill="#2F3030"/>
<path d="M121.824 2268.95C123.23 2267.82 125.29 2268.04 126.424 2269.44C127.558 2270.85 127.337 2272.91 125.93 2274.04C124.524 2275.18 122.464 2274.96 121.33 2273.55C120.196 2272.15 120.417 2270.09 121.824 2268.95Z" fill="#2F3030"/>
<path d="M109.505 2253.69C110.911 2252.56 112.971 2252.78 114.105 2254.18C115.239 2255.59 115.018 2257.65 113.611 2258.78C112.205 2259.92 110.145 2259.7 109.011 2258.29C107.877 2256.89 108.098 2254.83 109.505 2253.69Z" fill="#2F3030"/>
<path d="M97.186 2238.43C98.5925 2237.3 100.652 2237.52 101.786 2238.92C102.92 2240.33 102.699 2242.39 101.292 2243.52C99.8857 2244.66 97.8263 2244.44 96.6923 2243.03C95.5584 2241.63 95.7794 2239.57 97.186 2238.43Z" fill="#2F3030"/>
<path d="M84.867 2223.17C86.2736 2222.04 88.333 2222.26 89.467 2223.66C90.6009 2225.07 90.3799 2227.12 88.9733 2228.26C87.5668 2229.4 85.5073 2229.18 84.3734 2227.77C83.2395 2226.37 83.4605 2224.31 84.867 2223.17Z" fill="#2F3030"/>
<path d="M72.5481 2207.91C73.9546 2206.78 76.0141 2207 77.148 2208.4C78.2819 2209.8 78.061 2211.86 76.6544 2213C75.2479 2214.13 73.1884 2213.92 72.0545 2212.51C70.9206 2211.11 71.1416 2209.05 72.5481 2207.91Z" fill="#2F3030"/>
<path d="M60.2292 2192.65C61.6357 2191.52 63.6952 2191.73 64.8291 2193.14C65.963 2194.54 65.742 2196.6 64.3355 2197.74C62.929 2198.87 60.8695 2198.66 59.7356 2197.25C58.6016 2195.85 58.8226 2193.79 60.2292 2192.65Z" fill="#2F3030"/>
<path d="M47.9103 2177.39C49.3168 2176.26 51.3762 2176.47 52.5102 2177.88C53.6441 2179.28 53.4231 2181.34 52.0166 2182.48C50.61 2183.61 48.5506 2183.4 47.4166 2181.99C46.2827 2180.59 46.5037 2178.53 47.9103 2177.39Z" fill="#2F3030"/>
<path d="M253 2555.73L229.515 2540L205 2555.73V2582.36L229.515 2598L253 2582.36V2555.73Z" stroke="#2F3030" stroke-width="3"/>
<path d="M199 2555.73L175.515 2540L151 2555.73V2582.36L175.515 2598L199 2582.36V2555.73Z" stroke="#2F3030" stroke-width="3"/>
<path d="M316 1571.48L296.918 1559L277 1571.48V1592.59L296.918 1605L316 1592.59V1571.48Z" stroke="#2E2E2E" stroke-width="3"/>
<path d="M249 1684.48L229.918 1672L210 1684.48V1705.59L229.918 1718L249 1705.59V1684.48Z" stroke="#2E2E2E" stroke-width="3"/>
<path d="M272 1722.48L252.918 1710L233 1722.48V1743.59L252.918 1756L272 1743.59V1722.48Z" stroke="#2E2E2E" stroke-width="3"/>
<path d="M294 1684.48L274.918 1672L255 1684.48V1705.59L274.918 1718L294 1705.59V1684.48Z" stroke="#2E2E2E" stroke-width="3"/>
<path d="M182 1721.48L162.918 1709L143 1721.48V1742.59L162.918 1755L182 1742.59V1721.48Z" stroke="#2E2E2E" stroke-width="3"/>
<path d="M204 1760.48L184.918 1748L165 1760.48V1781.59L184.918 1794L204 1781.59V1760.48Z" stroke="#2E2E2E" stroke-width="3"/>
<path d="M181 1798.48L161.918 1786L142 1798.48V1819.59L161.918 1832L181 1819.59V1798.48Z" stroke="#2E2E2E" stroke-width="3"/>
<path d="M227 1722.48L207.918 1710L188 1722.48V1743.59L207.918 1756L227 1743.59V1722.48Z" stroke="#2E2E2E" stroke-width="3"/>
<path d="M249 1608.48L229.918 1596L210 1608.48V1629.59L229.918 1642L249 1629.59V1608.48Z" stroke="#2E2E2E" stroke-width="3"/>
<path d="M271 1646.48L251.918 1634L232 1646.48V1667.59L251.918 1680L271 1667.59V1646.48Z" stroke="#2E2E2E" stroke-width="3"/>
<path d="M293 1608.48L273.918 1596L254 1608.48V1629.59L273.918 1642L293 1629.59V1608.48Z" stroke="#2E2E2E" stroke-width="3"/>
<path d="M383 1608.48L363.918 1596L344 1608.48V1629.59L363.918 1642L383 1629.59V1608.48Z" stroke="#2E2E2E" stroke-width="3"/>
<path d="M316 1721.48L296.918 1709L277 1721.48V1742.59L296.918 1755L316 1742.59V1721.48Z" stroke="#2E2E2E" stroke-width="3"/>
<path d="M339 1759.48L319.918 1747L300 1759.48V1780.59L319.918 1793L339 1780.59V1759.48Z" stroke="#2E2E2E" stroke-width="3"/>
<path d="M361 1721.48L341.918 1709L322 1721.48V1742.59L341.918 1755L361 1742.59V1721.48Z" stroke="#2E2E2E" stroke-width="3"/>
<path d="M249 1758.48L229.918 1746L210 1758.48V1779.59L229.918 1792L249 1779.59V1758.48Z" stroke="#2E2E2E" stroke-width="3"/>
<path d="M271 1797.48L251.918 1785L232 1797.48V1818.59L251.918 1831L271 1818.59V1797.48Z" stroke="#2E2E2E" stroke-width="3"/>
<path d="M294 1759.48L274.918 1747L255 1759.48V1780.59L274.918 1793L294 1780.59V1759.48Z" stroke="#2E2E2E" stroke-width="3"/>
<path d="M316 1645.48L296.918 1633L277 1645.48V1666.59L296.918 1679L316 1666.59V1645.48Z" stroke="#2E2E2E" stroke-width="3"/>
<path d="M338 1683.48L318.918 1671L299 1683.48V1704.59L318.918 1717L338 1704.59V1683.48Z" stroke="#2E2E2E" stroke-width="3"/>
<path d="M360 1645.48L340.918 1633L321 1645.48V1666.59L340.918 1679L360 1666.59V1645.48Z" stroke="#2E2E2E" stroke-width="3"/>
</g>
<path d="M1786 932.476L1766.92 920L1747 932.476V953.594L1766.92 966L1786 953.594V932.476Z" stroke="#2E2E2E" stroke-width="3"/>
<path d="M1719 1045.48L1699.92 1033L1680 1045.48V1066.59L1699.92 1079L1719 1066.59V1045.48Z" stroke="#2E2E2E" stroke-width="3"/>
<path d="M1742 1083.48L1722.92 1071L1703 1083.48V1104.59L1722.92 1117L1742 1104.59V1083.48Z" stroke="#2E2E2E" stroke-width="3"/>
<path d="M1764 1045.48L1744.92 1033L1725 1045.48V1066.59L1744.92 1079L1764 1066.59V1045.48Z" stroke="#2E2E2E" stroke-width="3"/>
<path d="M1652 1082.48L1632.92 1070L1613 1082.48V1103.59L1632.92 1116L1652 1103.59V1082.48Z" stroke="#2E2E2E" stroke-width="3"/>
<path d="M1674 1121.48L1654.92 1109L1635 1121.48V1142.59L1654.92 1155L1674 1142.59V1121.48Z" stroke="#2E2E2E" stroke-width="3"/>
<path d="M1697 1083.48L1677.92 1071L1658 1083.48V1104.59L1677.92 1117L1697 1104.59V1083.48Z" stroke="#2E2E2E" stroke-width="3"/>
<path d="M1719 969.476L1699.92 957L1680 969.476V990.594L1699.92 1003L1719 990.594V969.476Z" stroke="#2E2E2E" stroke-width="3"/>
<path d="M1741 1007.48L1721.92 995L1702 1007.48V1028.59L1721.92 1041L1741 1028.59V1007.48Z" stroke="#2E2E2E" stroke-width="3"/>
<path d="M1763 969.476L1743.92 957L1724 969.476V990.594L1743.92 1003L1763 990.594V969.476Z" stroke="#2E2E2E" stroke-width="3"/>
<path d="M1853 969.476L1833.92 957L1814 969.476V990.594L1833.92 1003L1853 990.594V969.476Z" stroke="#2E2E2E" stroke-width="3"/>
<path d="M1786 1082.48L1766.92 1070L1747 1082.48V1103.59L1766.92 1116L1786 1103.59V1082.48Z" stroke="#2E2E2E" stroke-width="3"/>
<path d="M1809 1120.48L1789.92 1108L1770 1120.48V1141.59L1789.92 1154L1809 1141.59V1120.48Z" stroke="#2E2E2E" stroke-width="3"/>
<path d="M1831 1082.48L1811.92 1070L1792 1082.48V1103.59L1811.92 1116L1831 1103.59V1082.48Z" stroke="#2E2E2E" stroke-width="3"/>
<path d="M1719 1119.48L1699.92 1107L1680 1119.48V1140.59L1699.92 1153L1719 1140.59V1119.48Z" stroke="#2E2E2E" stroke-width="3"/>
<path d="M1741 1158.48L1721.92 1146L1702 1158.48V1179.59L1721.92 1192L1741 1179.59V1158.48Z" stroke="#2E2E2E" stroke-width="3"/>
<path d="M1764 1120.48L1744.92 1108L1725 1120.48V1141.59L1744.92 1154L1764 1141.59V1120.48Z" stroke="#2E2E2E" stroke-width="3"/>
<path d="M1786 1006.48L1766.92 994L1747 1006.48V1027.59L1766.92 1040L1786 1027.59V1006.48Z" stroke="#2E2E2E" stroke-width="3"/>
<path d="M1808 1044.48L1788.92 1032L1769 1044.48V1065.59L1788.92 1078L1808 1065.59V1044.48Z" stroke="#2E2E2E" stroke-width="3"/>
<path d="M1830 1006.48L1810.92 994L1791 1006.48V1027.59L1810.92 1040L1830 1027.59V1006.48Z" stroke="#2E2E2E" stroke-width="3"/>
<path d="M1765.48 688.941L1753 708.023L1765.48 727.941H1786.59L1799 708.023L1786.59 688.941H1765.48Z" stroke="#2E2E2E" stroke-width="3"/>
<path d="M1880.18 752.975L1867.71 772.056L1880.18 791.975H1901.3L1913.71 772.056L1901.3 752.975H1880.18Z" stroke="#2E2E2E" stroke-width="3"/>
<path d="M1917.57 728.992L1905.09 748.074L1917.57 767.992H1938.69L1951.09 748.074L1938.69 728.992H1917.57Z" stroke="#2E2E2E" stroke-width="3"/>
<path d="M1879.01 707.99L1866.53 727.072L1879.01 746.99H1900.13L1912.53 727.072L1900.13 707.99H1879.01Z" stroke="#2E2E2E" stroke-width="3"/>
<path d="M1804.21 754.955L1791.73 774.037L1804.21 793.955H1825.33L1837.73 774.037L1825.33 754.955H1804.21Z" stroke="#2E2E2E" stroke-width="3"/>
<path d="M1841.62 731.972L1829.15 751.054L1841.62 770.972H1862.74L1875.15 751.054L1862.74 731.972H1841.62Z" stroke="#2E2E2E" stroke-width="3"/>
<path d="M1803.06 710.97L1790.59 730.052L1803.06 749.97H1824.18L1836.59 730.052L1824.18 710.97H1803.06Z" stroke="#2E2E2E" stroke-width="3"/>
<path d="M1800.72 621L1788.24 640.082L1800.72 660H1821.84L1834.24 640.082L1821.84 621H1800.72Z" stroke="#2E2E2E" stroke-width="3"/>
<path d="M1915.42 685.033L1902.95 704.115L1915.42 724.033H1936.54L1948.95 704.115L1936.54 685.033H1915.42Z" stroke="#2E2E2E" stroke-width="3"/>
<path d="M1914.25 640.049L1901.78 659.131L1914.25 679.049H1935.37L1947.78 659.131L1935.37 640.049H1914.25Z" stroke="#2E2E2E" stroke-width="3"/>
<path d="M1839.45 687.014L1826.97 706.096L1839.45 726.014H1860.57L1872.97 706.096L1860.57 687.014H1839.45Z" stroke="#2E2E2E" stroke-width="3"/>
<path d="M1876.86 664.031L1864.39 683.113L1876.86 703.031H1897.98L1910.39 683.113L1897.98 664.031H1876.86Z" stroke="#2E2E2E" stroke-width="3"/>
<path d="M1838.3 643.028L1825.83 662.11L1838.3 682.028H1859.42L1871.83 662.11L1859.42 643.028H1838.3Z" stroke="#2E2E2E" stroke-width="3"/>
<path d="M1800.48 576L1788 595.082L1800.48 615H1821.59L1834 595.082L1821.59 576H1800.48Z" stroke="#2E2E2E" stroke-width="3"/>
<path d="M1915.48 552L1903 571.082L1915.48 591H1936.59L1949 571.082L1936.59 552H1915.48Z" stroke="#2E2E2E" stroke-width="3"/>
<path d="M1876.62 619.031L1864.15 638.113L1876.62 658.031H1897.74L1910.15 638.113L1897.74 619.031H1876.62Z" stroke="#2E2E2E" stroke-width="3"/>
<path d="M1838.06 598.028L1825.59 617.11L1838.06 637.028H1859.18L1871.59 617.11L1859.18 598.028H1838.06Z" stroke="#2E2E2E" stroke-width="3"/>
<path d="M1876.48 531L1864 550.082L1876.48 570H1897.59L1910 550.082L1897.59 531H1876.48Z" stroke="#2E2E2E" stroke-width="3"/>
<path d="M1876.62 575.031L1864.15 594.113L1876.62 614.031H1897.74L1910.15 594.113L1897.74 575.031H1876.62Z" stroke="#2E2E2E" stroke-width="3"/>
<path d="M1915.48 596L1903 615.082L1915.48 635H1936.59L1949 615.082L1936.59 596H1915.48Z" stroke="#2E2E2E" stroke-width="3"/>
<path d="M1838.06 554.028L1825.59 573.11L1838.06 593.028H1859.18L1871.59 573.11L1859.18 554.028H1838.06Z" stroke="#2E2E2E" stroke-width="3"/>
<path d="M1615.48 783.941L1603 803.023L1615.48 822.941H1636.59L1649 803.023L1636.59 783.941H1615.48Z" stroke="#2E2E2E" stroke-width="3"/>
<path d="M1730.18 847.975L1717.71 867.056L1730.18 886.975H1751.3L1763.71 867.056L1751.3 847.975H1730.18Z" stroke="#2E2E2E" stroke-width="3"/>
<path d="M1767.57 823.992L1755.09 843.074L1767.57 862.992H1788.69L1801.09 843.074L1788.69 823.992H1767.57Z" stroke="#2E2E2E" stroke-width="3"/>
<path d="M1729.01 802.99L1716.53 822.072L1729.01 841.99H1750.13L1762.53 822.072L1750.13 802.99H1729.01Z" stroke="#2E2E2E" stroke-width="3"/>
<path d="M1654.21 849.955L1641.73 869.037L1654.21 888.955H1675.33L1687.73 869.037L1675.33 849.955H1654.21Z" stroke="#2E2E2E" stroke-width="3"/>
<path d="M1691.62 826.972L1679.15 846.054L1691.62 865.972H1712.74L1725.15 846.054L1712.74 826.972H1691.62Z" stroke="#2E2E2E" stroke-width="3"/>
<path d="M1653.06 805.97L1640.59 825.052L1653.06 844.97H1674.18L1686.59 825.052L1674.18 805.97H1653.06Z" stroke="#2E2E2E" stroke-width="3"/>
<path d="M1650.72 716L1638.24 735.082L1650.72 755H1671.84L1684.24 735.082L1671.84 716H1650.72Z" stroke="#2E2E2E" stroke-width="3"/>
<path d="M1765.42 780.033L1752.95 799.115L1765.42 819.033H1786.54L1798.95 799.115L1786.54 780.033H1765.42Z" stroke="#2E2E2E" stroke-width="3"/>
<path d="M1764.25 735.049L1751.78 754.131L1764.25 774.049H1785.37L1797.78 754.131L1785.37 735.049H1764.25Z" stroke="#2E2E2E" stroke-width="3"/>
<path d="M1689.45 782.014L1676.97 801.096L1689.45 821.014H1710.57L1722.97 801.096L1710.57 782.014H1689.45Z" stroke="#2E2E2E" stroke-width="3"/>
<path d="M1726.86 759.031L1714.39 778.113L1726.86 798.031H1747.98L1760.39 778.113L1747.98 759.031H1726.86Z" stroke="#2E2E2E" stroke-width="3"/>
<path d="M1792.09 253.941L1779.61 273.023L1792.09 292.941H1813.21L1825.61 273.023L1813.21 253.941H1792.09Z" stroke="#2E2E2E" stroke-width="3"/>
<path d="M1906.79 317.975L1894.32 337.056L1906.79 356.975H1927.91L1940.32 337.056L1927.91 317.975H1906.79Z" stroke="#2E2E2E" stroke-width="3"/>
<path d="M1905.62 272.99L1893.15 292.072L1905.62 311.99H1926.74L1939.15 292.072L1926.74 272.99H1905.62Z" stroke="#2E2E2E" stroke-width="3"/>
<path d="M1830.82 319.955L1818.34 339.037L1830.82 358.955H1851.94L1864.34 339.037L1851.94 319.955H1830.82Z" stroke="#2E2E2E" stroke-width="3"/>
<path d="M1868.23 296.972L1855.76 316.054L1868.23 335.972H1889.35L1901.76 316.054L1889.35 296.972H1868.23Z" stroke="#2E2E2E" stroke-width="3"/>
<path d="M1829.67 275.97L1817.2 295.052L1829.67 314.97H1850.79L1863.2 295.052L1850.79 275.97H1829.67Z" stroke="#2E2E2E" stroke-width="3"/>
<path d="M1827.33 186L1814.85 205.082L1827.33 225H1848.45L1860.85 205.082L1848.45 186H1827.33Z" stroke="#2E2E2E" stroke-width="3"/>
<path d="M1866.06 252.014L1853.59 271.096L1866.06 291.014H1887.18L1899.59 271.096L1887.18 252.014H1866.06Z" stroke="#2E2E2E" stroke-width="3"/>
<path d="M1903.48 229.031L1891 248.113L1903.48 268.031H1924.59L1937 248.113L1924.59 229.031H1903.48Z" stroke="#2E2E2E" stroke-width="3"/>
<path d="M1864.92 208.028L1852.44 227.11L1864.92 247.028H1886.03L1898.44 227.11L1886.03 208.028H1864.92Z" stroke="#2E2E2E" stroke-width="3"/>
<path d="M1827.09 141L1814.61 160.082L1827.09 180H1848.21L1860.61 160.082L1848.21 141H1827.09Z" stroke="#2E2E2E" stroke-width="3"/>
<path d="M1903.23 184.031L1890.76 203.113L1903.23 223.031H1924.35L1936.76 203.113L1924.35 184.031H1903.23Z" stroke="#2E2E2E" stroke-width="3"/>
<path d="M1864.67 163.028L1852.2 182.11L1864.67 202.028H1885.79L1898.2 182.11L1885.79 163.028H1864.67Z" stroke="#2E2E2E" stroke-width="3"/>
<path d="M1903.09 96L1890.61 115.082L1903.09 135H1924.21L1936.61 115.082L1924.21 96H1903.09Z" stroke="#2E2E2E" stroke-width="3"/>
<path d="M1903.23 140.031L1890.76 159.113L1903.23 179.031H1924.35L1936.76 159.113L1924.35 140.031H1903.23Z" stroke="#2E2E2E" stroke-width="3"/>
<path d="M1864.67 119.028L1852.2 138.11L1864.67 158.028H1885.79L1898.2 138.11L1885.79 119.028H1864.67Z" stroke="#2E2E2E" stroke-width="3"/>
<path d="M1755.62 367.99L1743.15 387.072L1755.62 406.99H1776.74L1789.15 387.072L1776.74 367.99H1755.62Z" stroke="#2E2E2E" stroke-width="3"/>
<path d="M1792.04 345.033L1779.56 364.115L1792.04 384.033H1813.15L1825.56 364.115L1813.15 345.033H1792.04Z" stroke="#2E2E2E" stroke-width="3"/>
<path d="M1790.86 300.049L1778.39 319.131L1790.86 339.049H1811.98L1824.39 319.131L1811.98 300.049H1790.86Z" stroke="#2E2E2E" stroke-width="3"/>
<path d="M1753.48 324.031L1741 343.113L1753.48 363.031H1774.59L1787 343.113L1774.59 324.031H1753.48Z" stroke="#2E2E2E" stroke-width="3"/>
<path d="M1688.3 738.028L1675.83 757.11L1688.3 777.028H1709.42L1721.83 757.11L1709.42 738.028H1688.3Z" stroke="#2E2E2E" stroke-width="3"/>
<path d="M66 106.476L46.9181 94L27 106.476V127.594L46.9181 140L66 127.594V106.476Z" stroke="#2E2E2E" stroke-width="3"/>
<path d="M-1 219.476L-20.0819 207L-40 219.476V240.594L-20.0819 253L-1 240.594V219.476Z" stroke="#2E2E2E" stroke-width="3"/>
<path d="M22 257.476L2.91813 245L-17 257.476V278.594L2.91813 291L22 278.594V257.476Z" stroke="#2E2E2E" stroke-width="3"/>
<path d="M44 219.476L24.9181 207L5 219.476V240.594L24.9181 253L44 240.594V219.476Z" stroke="#2E2E2E" stroke-width="3"/>
<path d="M-1 143.476L-20.0819 131L-40 143.476V164.594L-20.0819 177L-1 164.594V143.476Z" stroke="#2E2E2E" stroke-width="3"/>
<path d="M21 181.476L1.91813 169L-18 181.476V202.594L1.91813 215L21 202.594V181.476Z" stroke="#2E2E2E" stroke-width="3"/>
<path d="M43 143.476L23.9181 131L4 143.476V164.594L23.9181 177L43 164.594V143.476Z" stroke="#2E2E2E" stroke-width="3"/>
<path d="M133 143.476L113.918 131L94 143.476V164.594L113.918 177L133 164.594V143.476Z" stroke="#2E2E2E" stroke-width="3"/>
<path d="M66 256.476L46.9181 244L27 256.476V277.594L46.9181 290L66 277.594V256.476Z" stroke="#2E2E2E" stroke-width="3"/>
<path d="M89 294.476L69.9181 282L50 294.476V315.594L69.9181 328L89 315.594V294.476Z" stroke="#2E2E2E" stroke-width="3"/>
<path d="M111 256.476L91.9181 244L72 256.476V277.594L91.9181 290L111 277.594V256.476Z" stroke="#2E2E2E" stroke-width="3"/>
<path d="M-1 293.476L-20.0819 281L-40 293.476V314.594L-20.0819 327L-1 314.594V293.476Z" stroke="#2E2E2E" stroke-width="3"/>
<path d="M21 332.476L1.91813 320L-18 332.476V353.594L1.91813 366L21 353.594V332.476Z" stroke="#2E2E2E" stroke-width="3"/>
<path d="M44 294.476L24.9181 282L5 294.476V315.594L24.9181 328L44 315.594V294.476Z" stroke="#2E2E2E" stroke-width="3"/>
<path d="M66 180.476L46.9181 168L27 180.476V201.594L46.9181 214L66 201.594V180.476Z" stroke="#2E2E2E" stroke-width="3"/>
<path d="M88 218.476L68.9181 206L49 218.476V239.594L68.9181 252L88 239.594V218.476Z" stroke="#2E2E2E" stroke-width="3"/>
<path d="M110 180.476L90.9181 168L71 180.476V201.594L90.9181 214L110 201.594V180.476Z" stroke="#2E2E2E" stroke-width="3"/>
<path d="M67 1040.48L47.9181 1028L28 1040.48V1061.59L47.9181 1074L67 1061.59V1040.48Z" stroke="#2E2E2E" stroke-width="3"/>
<path d="M44 1001.48L24.9181 989L5 1001.48V1022.59L24.9181 1035L44 1022.59V1001.48Z" stroke="#2E2E2E" stroke-width="3"/>
<path d="M45 1153.48L25.9181 1141L6 1153.48V1174.59L25.9181 1187L45 1174.59V1153.48Z" stroke="#2E2E2E" stroke-width="3"/>
<path d="M44 1077.48L24.9181 1065L5 1077.48V1098.59L24.9181 1111L44 1098.59V1077.48Z" stroke="#2E2E2E" stroke-width="3"/>
<path d="M134 1077.48L114.918 1065L95 1077.48V1098.59L114.918 1111L134 1098.59V1077.48Z" stroke="#2E2E2E" stroke-width="3"/>
<path d="M67 1114.48L47.9181 1102L28 1114.48V1135.59L47.9181 1148L67 1135.59V1114.48Z" stroke="#2E2E2E" stroke-width="3"/>
<path d="M89 1152.48L69.9181 1140L50 1152.48V1173.59L69.9181 1186L89 1173.59V1152.48Z" stroke="#2E2E2E" stroke-width="3"/>
<path d="M111 1114.48L91.9181 1102L72 1114.48V1135.59L91.9181 1148L111 1135.59V1114.48Z" stroke="#2E2E2E" stroke-width="3"/>
<path d="M1809 1272.48L1789.92 1260L1770 1272.48V1293.59L1789.92 1306L1809 1293.59V1272.48Z" stroke="#2E2E2E" stroke-width="3"/>
<path d="M1832 1310.48L1812.92 1298L1793 1310.48V1331.59L1812.92 1344L1832 1331.59V1310.48Z" stroke="#2E2E2E" stroke-width="3"/>
<path d="M1809 1196.48L1789.92 1184L1770 1196.48V1217.59L1789.92 1230L1809 1217.59V1196.48Z" stroke="#2E2E2E" stroke-width="3"/>
<path d="M1899 1269.48L1879.92 1257L1860 1269.48V1290.59L1879.92 1303L1899 1290.59V1269.48Z" stroke="#2E2E2E" stroke-width="3"/>
<path d="M1832 1158.48L1812.92 1146L1793 1158.48V1179.59L1812.92 1192L1832 1179.59V1158.48Z" stroke="#2E2E2E" stroke-width="3"/>
<path d="M1786 1158.48L1766.92 1146L1747 1158.48V1179.59L1766.92 1192L1786 1179.59V1158.48Z" stroke="#2E2E2E" stroke-width="3"/>
<path d="M1831 1234.48L1811.92 1222L1792 1234.48V1255.59L1811.92 1268L1831 1255.59V1234.48Z" stroke="#2E2E2E" stroke-width="3"/>
<path d="M1876 1309.48L1856.92 1297L1837 1309.48V1330.59L1856.92 1343L1876 1330.59V1309.48Z" stroke="#2E2E2E" stroke-width="3"/>
<path d="M1899 1347.48L1879.92 1335L1860 1347.48V1368.59L1879.92 1381L1899 1368.59V1347.48Z" stroke="#2E2E2E" stroke-width="3"/>
<path d="M1921 1309.48L1901.92 1297L1882 1309.48V1330.59L1901.92 1343L1921 1330.59V1309.48Z" stroke="#2E2E2E" stroke-width="3"/>
<path d="M1809 1346.48L1789.92 1334L1770 1346.48V1367.59L1789.92 1380L1809 1367.59V1346.48Z" stroke="#2E2E2E" stroke-width="3"/>
<path d="M1831 1385.48L1811.92 1373L1792 1385.48V1406.59L1811.92 1419L1831 1406.59V1385.48Z" stroke="#2E2E2E" stroke-width="3"/>
<path d="M1854 1347.48L1834.92 1335L1815 1347.48V1368.59L1834.92 1381L1854 1368.59V1347.48Z" stroke="#2E2E2E" stroke-width="3"/>
<path d="M134 1216.48L114.918 1204L95 1216.48V1237.59L114.918 1250L134 1237.59V1216.48Z" stroke="#2E2E2E" stroke-width="3"/>
<path d="M156 1255.48L136.918 1243L117 1255.48V1276.59L136.918 1289L156 1276.59V1255.48Z" stroke="#2E2E2E" stroke-width="3"/>
<path d="M179 1217.48L159.918 1205L140 1217.48V1238.59L159.918 1251L179 1238.59V1217.48Z" stroke="#2E2E2E" stroke-width="3"/>
<path d="M270 1218.48L250.918 1206L231 1218.48V1239.59L250.918 1252L270 1239.59V1218.48Z" stroke="#2E2E2E" stroke-width="3"/>
<path d="M203 1255.48L183.918 1243L164 1255.48V1276.59L183.918 1289L203 1276.59V1255.48Z" stroke="#2E2E2E" stroke-width="3"/>
<path d="M225 1293.48L205.918 1281L186 1293.48V1314.59L205.918 1327L225 1314.59V1293.48Z" stroke="#2E2E2E" stroke-width="3"/>
<path d="M247 1255.48L227.918 1243L208 1255.48V1276.59L227.918 1289L247 1276.59V1255.48Z" stroke="#2E2E2E" stroke-width="3"/>
<path d="M270 1292.48L250.918 1280L231 1292.48V1313.59L250.918 1326L270 1313.59V1292.48Z" stroke="#2E2E2E" stroke-width="3"/>
<path d="M91 1294.48L71.9181 1282L52 1294.48V1315.59L71.9181 1328L91 1315.59V1294.48Z" stroke="#2E2E2E" stroke-width="3"/>
<path d="M114 1332.48L94.9181 1320L75 1332.48V1353.59L94.9181 1366L114 1353.59V1332.48Z" stroke="#2E2E2E" stroke-width="3"/>
<path d="M136 1294.48L116.918 1282L97 1294.48V1315.59L116.918 1328L136 1315.59V1294.48Z" stroke="#2E2E2E" stroke-width="3"/>
<path d="M24 1331.48L4.91813 1319L-15 1331.48V1352.59L4.91813 1365L24 1352.59V1331.48Z" stroke="#2E2E2E" stroke-width="3"/>
<path d="M46 1370.48L26.9181 1358L7 1370.48V1391.59L26.9181 1404L46 1391.59V1370.48Z" stroke="#2E2E2E" stroke-width="3"/>
<path d="M69 1332.48L49.9181 1320L30 1332.48V1353.59L49.9181 1366L69 1353.59V1332.48Z" stroke="#2E2E2E" stroke-width="3"/>
<path d="M158 1331.48L138.918 1319L119 1331.48V1352.59L138.918 1365L158 1352.59V1331.48Z" stroke="#2E2E2E" stroke-width="3"/>
<path d="M181 1369.48L161.918 1357L142 1369.48V1390.59L161.918 1403L181 1390.59V1369.48Z" stroke="#2E2E2E" stroke-width="3"/>
<path d="M203 1331.48L183.918 1319L164 1331.48V1352.59L183.918 1365L203 1352.59V1331.48Z" stroke="#2E2E2E" stroke-width="3"/>
<path d="M91 1368.48L71.9181 1356L52 1368.48V1389.59L71.9181 1402L91 1389.59V1368.48Z" stroke="#2E2E2E" stroke-width="3"/>
<path d="M113 1407.48L93.9181 1395L74 1407.48V1428.59L93.9181 1441L113 1428.59V1407.48Z" stroke="#2E2E2E" stroke-width="3"/>
<path d="M90 1445.48L70.9181 1433L51 1445.48V1466.59L70.9181 1479L90 1466.59V1445.48Z" stroke="#2E2E2E" stroke-width="3"/>
<path d="M136 1369.48L116.918 1357L97 1369.48V1390.59L116.918 1403L136 1390.59V1369.48Z" stroke="#2E2E2E" stroke-width="3"/>
<path d="M180 1293.48L160.918 1281L141 1293.48V1314.59L160.918 1327L180 1314.59V1293.48Z" stroke="#2E2E2E" stroke-width="3"/>
<path d="M312 662.476L292.918 650L273 662.476V683.594L292.918 696L312 683.594V662.476Z" stroke="#2E2E2E" stroke-width="3"/>
<path d="M335 625.476L315.918 613L296 625.476V646.594L315.918 659L335 646.594V625.476Z" stroke="#2E2E2E" stroke-width="3"/>
<path d="M65 410.476L45.9181 398L26 410.476V431.594L45.9181 444L65 431.594V410.476Z" stroke="#2E2E2E" stroke-width="3"/>
<path d="M42 371.476L22.9181 359L3 371.476V392.594L22.9181 405L42 392.594V371.476Z" stroke="#2E2E2E" stroke-width="3"/>
<path d="M43 523.476L23.9181 511L4 523.476V544.594L23.9181 557L43 544.594V523.476Z" stroke="#2E2E2E" stroke-width="3"/>
<path d="M42 447.476L22.9181 435L3 447.476V468.594L22.9181 481L42 468.594V447.476Z" stroke="#2E2E2E" stroke-width="3"/>
<path d="M132 447.476L112.918 435L93 447.476V468.594L112.918 481L132 468.594V447.476Z" stroke="#2E2E2E" stroke-width="3"/>
<path d="M65 484.476L45.9181 472L26 484.476V505.594L45.9181 518L65 505.594V484.476Z" stroke="#2E2E2E" stroke-width="3"/>
<path d="M87 522.476L67.9181 510L48 522.476V543.594L67.9181 556L87 543.594V522.476Z" stroke="#2E2E2E" stroke-width="3"/>
<path d="M109 484.476L89.9181 472L70 484.476V505.594L89.9181 518L109 505.594V484.476Z" stroke="#2E2E2E" stroke-width="3"/>
<path d="M132 586.476L112.918 574L93 586.476V607.594L112.918 620L132 607.594V586.476Z" stroke="#2E2E2E" stroke-width="3"/>
<path d="M154 625.476L134.918 613L115 625.476V646.594L134.918 659L154 646.594V625.476Z" stroke="#2E2E2E" stroke-width="3"/>
<path d="M177 587.476L157.918 575L138 587.476V608.594L157.918 621L177 608.594V587.476Z" stroke="#2E2E2E" stroke-width="3"/>
<path d="M268 588.476L248.918 576L229 588.476V609.594L248.918 622L268 609.594V588.476Z" stroke="#2E2E2E" stroke-width="3"/>
<path d="M201 625.476L181.918 613L162 625.476V646.594L181.918 659L201 646.594V625.476Z" stroke="#2E2E2E" stroke-width="3"/>
<path d="M223 663.476L203.918 651L184 663.476V684.594L203.918 697L223 684.594V663.476Z" stroke="#2E2E2E" stroke-width="3"/>
<path d="M245 625.476L225.918 613L206 625.476V646.594L225.918 659L245 646.594V625.476Z" stroke="#2E2E2E" stroke-width="3"/>
<path d="M268 662.476L248.918 650L229 662.476V683.594L248.918 696L268 683.594V662.476Z" stroke="#2E2E2E" stroke-width="3"/>
<path d="M89 664.476L69.9181 652L50 664.476V685.594L69.9181 698L89 685.594V664.476Z" stroke="#2E2E2E" stroke-width="3"/>
<path d="M112 702.476L92.9181 690L73 702.476V723.594L92.9181 736L112 723.594V702.476Z" stroke="#2E2E2E" stroke-width="3"/>
<path d="M134 664.476L114.918 652L95 664.476V685.594L114.918 698L134 685.594V664.476Z" stroke="#2E2E2E" stroke-width="3"/>
<path d="M22 701.476L2.91813 689L-17 701.476V722.594L2.91813 735L22 722.594V701.476Z" stroke="#2E2E2E" stroke-width="3"/>
<path d="M44 740.476L24.9181 728L5 740.476V761.594L24.9181 774L44 761.594V740.476Z" stroke="#2E2E2E" stroke-width="3"/>
<path d="M67 702.476L47.9181 690L28 702.476V723.594L47.9181 736L67 723.594V702.476Z" stroke="#2E2E2E" stroke-width="3"/>
<path d="M156 701.476L136.918 689L117 701.476V722.594L136.918 735L156 722.594V701.476Z" stroke="#2E2E2E" stroke-width="3"/>
<path d="M179 739.476L159.918 727L140 739.476V760.594L159.918 773L179 760.594V739.476Z" stroke="#2E2E2E" stroke-width="3"/>
<path d="M201 701.476L181.918 689L162 701.476V722.594L181.918 735L201 722.594V701.476Z" stroke="#2E2E2E" stroke-width="3"/>
<path d="M89 738.476L69.9181 726L50 738.476V759.594L69.9181 772L89 759.594V738.476Z" stroke="#2E2E2E" stroke-width="3"/>
<path d="M111 777.476L91.9181 765L72 777.476V798.594L91.9181 811L111 798.594V777.476Z" stroke="#2E2E2E" stroke-width="3"/>
<path d="M88 815.476L68.9181 803L49 815.476V836.594L68.9181 849L88 836.594V815.476Z" stroke="#2E2E2E" stroke-width="3"/>
<path d="M134 739.476L114.918 727L95 739.476V760.594L114.918 773L134 760.594V739.476Z" stroke="#2E2E2E" stroke-width="3"/>
<path d="M178 663.476L158.918 651L139 663.476V684.594L158.918 697L178 684.594V663.476Z" stroke="#2E2E2E" stroke-width="3"/>
</g>
<defs>
<clipPath id="clip0_1_7">
<rect width="1920" height="3410" fill="white"/>
</clipPath>
<clipPath id="clip1_1_7">
<rect width="1920" height="2051" fill="white" transform="translate(0 1479)"/>
</clipPath>
</defs>
</svg>
