<svg width="1920" height="755" viewBox="0 0 1920 755" fill="none" xmlns="http://www.w3.org/2000/svg">
<g clip-path="url(#clip0_5_4)">
<path d="M1933.75 1186.84C1538.73 1019.99 1327.82 804.974 1207.02 629.914C1106.31 483.965 1109.1 424.977 1001.43 315.56C767.769 78.129 315.521 -90.3264 91.8131 106.824C-18.3859 203.942 19.7506 329.9 -36.0407 566.271C-86.2334 778.902 -211.814 1070.43 -554.302 1383.91" stroke="#2F3030" stroke-width="2" stroke-miterlimit="10"/>
<path d="M1933.8 1135.08C1549.28 990.955 1340.31 788.504 1219.39 624.543C1117.65 486.545 1110.08 431.899 995.573 324.222C755.365 98.3374 330.7 -63.1015 106.901 120.609C-8.37757 215.228 15.491 338.81 -49.2078 574.34C-106.171 781.698 -234.136 1068.16 -570.763 1378.88" stroke="#2F3030" stroke-width="2" stroke-miterlimit="10"/>
<path d="M1933.84 1083.32C1559.83 961.918 1352.64 771.981 1231.74 619.172C1128.74 488.991 1111.24 438.817 989.696 332.883C743.482 118.296 345.202 -36.2462 121.953 134.386C1.34918 226.573 11.3972 347.6 -62.4045 582.402C-125.922 784.44 -256.488 1065.88 -587.275 1373.82" stroke="#2F3030" stroke-width="2" stroke-miterlimit="10"/>
<path d="M1933.89 1031.56C1570.38 932.873 1364.77 755.404 1244.09 613.757C1139.71 491.299 1112.62 445.687 983.79 341.55C732.069 137.975 359.066 -9.80334 136.991 148.169C10.8116 237.913 7.48514 356.293 -75.6218 590.47C-145.413 787.142 -278.86 1063.59 -603.758 1368.77" stroke="#2F3030" stroke-width="2" stroke-miterlimit="10"/>
<path d="M1933.93 979.806C1580.9 903.849 1376.64 738.823 1256.44 608.421C1150.48 493.489 1114.11 452.496 977.953 350.211C721.174 157.369 372.417 16.201 152.089 161.953C20.0834 249.272 3.84256 364.932 -88.7786 598.539C-164.628 789.835 -301.178 1061.32 -620.2 1363.69" stroke="#2F3030" stroke-width="2" stroke-miterlimit="10"/>
<path d="M1933.97 928.052C1591.48 874.813 1388.26 722.231 1268.79 603.05C1161.04 495.554 1115.87 459.208 972.076 358.88C710.639 176.446 385.213 41.7596 167.155 175.73C29.0869 260.563 0.440335 373.533 -101.968 606.608C-183.633 792.539 -323.522 1059.03 -636.685 1358.69" stroke="#2F3030" stroke-width="2" stroke-miterlimit="10"/>
<path d="M1934.02 876.298C1602.04 845.812 1399.56 705.705 1281.14 597.678C1171.35 497.514 1117.75 465.808 966.206 367.54C700.438 195.212 397.542 66.8511 182.221 189.514C37.8701 271.749 -2.81092 382.136 -115.157 614.67C-202.415 795.275 -345.895 1056.75 -653.16 1353.64" stroke="#2F3030" stroke-width="2" stroke-miterlimit="10"/>
<path d="M1934.03 824.536C1612.56 816.745 1410.48 689.252 1293.46 592.305C1181.34 499.411 1119.72 472.265 960.308 376.2C690.509 213.66 409.421 91.483 197.259 203.297C46.4051 282.795 -5.81107 390.757 -128.375 622.738C-220.968 798.05 -368.209 1054.44 -669.643 1348.59" stroke="#2F3030" stroke-width="2" stroke-miterlimit="10"/>
<path d="M1934.1 772.782C1623.15 787.708 1421.09 672.952 1305.84 586.927C1191.06 501.276 1121.92 478.525 954.458 384.869C680.849 231.798 420.983 115.652 212.353 217.074C54.7764 293.659 -8.51994 399.455 -141.536 630.808C-239.33 800.893 -390.555 1052.19 -686.163 1343.55" stroke="#2F3030" stroke-width="2" stroke-miterlimit="10"/>
<path d="M1934.15 721.049C1633.69 758.692 1431.28 656.882 1318.19 581.577C1200.47 503.193 1124.19 484.715 948.589 393.551C671.402 249.659 432.251 139.399 227.419 230.88C62.9732 304.32 -11.0284 408.264 -154.725 638.898C-257.498 803.84 -412.906 1049.92 -702.603 1338.53" stroke="#2F3030" stroke-width="2" stroke-miterlimit="10"/>
<path d="M1934.19 669.267C1644.21 729.633 1441.08 641.035 1330.53 576.184C1209.5 505.175 1126.54 490.641 942.709 402.198C662.079 267.185 443.252 162.663 242.482 244.635C70.9781 314.662 -13.3053 417.156 -167.917 646.945C-275.492 806.833 -435.252 1047.62 -719.089 1333.45" stroke="#2F3030" stroke-width="2" stroke-miterlimit="10"/>
<path d="M1934.24 617.513C1654.8 700.604 1450.51 625.548 1342.88 570.813C1218.19 507.389 1128.95 496.389 936.839 410.859C652.871 284.454 454.054 185.535 257.548 258.419C78.8329 324.7 -15.3667 426.215 -181.107 655.007C-293.341 809.95 -457.596 1045.34 -735.566 1328.41" stroke="#2F3030" stroke-width="2" stroke-miterlimit="10"/>
<path d="M1934.28 565.75C1665.35 671.566 1459.62 610.455 1355.23 565.433C1226.54 509.926 1131.49 501.944 930.962 419.519C643.74 301.459 464.72 208.003 272.607 272.202C86.5794 334.37 -17.2225 435.442 -194.296 663.075C-311.056 813.175 -479.94 1043.06 -752.049 1323.37" stroke="#2F3030" stroke-width="2" stroke-miterlimit="10"/>
<path d="M1934.32 513.997C1675.9 642.529 1468.46 595.805 1367.58 560.062C1234.58 512.933 1134.04 507.293 925.106 428.188C634.676 318.23 475.304 230.134 287.687 285.98C94.182 343.616 -18.8667 444.876 -207.471 671.145C-328.665 816.526 -502.285 1040.79 -768.524 1318.3" stroke="#2F3030" stroke-width="2" stroke-miterlimit="10"/>
<path d="M1934.37 462.242C1686.46 613.499 1477.11 581.632 1379.96 554.69C1242.43 516.559 1136.65 512.44 919.243 436.849C625.623 334.763 485.852 251.839 302.767 299.763C101.727 352.386 -20.3427 454.518 -220.647 679.235C-346.148 820.021 -524.608 1038.52 -784.98 1313.3" stroke="#2F3030" stroke-width="2" stroke-miterlimit="10"/>
<path d="M1934.41 410.48C1696.97 584.46 1485.69 567.944 1392.28 549.318C1250.11 520.965 1139.23 517.38 913.344 445.516C616.552 351.059 496.363 273.244 317.804 313.539C109.181 360.632 -21.6926 464.363 -233.864 687.274C-363.625 823.602 -546.98 1036.21 -801.485 1308.23" stroke="#2F3030" stroke-width="2" stroke-miterlimit="10"/>
<path d="M1934.42 358.726C1707.53 555.423 1493.71 528.79 1404.6 543.939C1258.84 568.724 1141.81 522.112 907.431 454.176C607.434 367.204 506.95 294.334 332.87 327.323C116.644 368.276 -22.8824 474.506 -247.054 695.343C-381.01 827.315 -569.324 1033.93 -817.968 1303.16" stroke="#2F3030" stroke-width="2" stroke-miterlimit="10"/>
<path d="M1934.5 306.973C1718.11 526.387 1501.4 520.526 1416.98 538.568C1269.02 570.188 1144.46 526.652 901.595 462.838C598.289 383.12 517.669 315.119 347.934 341.107C124.137 375.326 -23.9555 484.866 -260.245 703.427C-398.372 831.179 -591.67 1031.66 -834.447 1298.16" stroke="#2F3030" stroke-width="2" stroke-miterlimit="10"/>
<path d="M1934.54 255.211C1728.66 497.357 1510.07 513.101 1429.33 533.197C1278.62 570.702 1147.07 530.99 895.718 471.47C589.098 398.898 528.53 335.669 363 354.848C131.701 381.652 -24.9303 495.449 -273.434 711.445C-415.703 835.1 -614.021 1029.34 -850.929 1293.07" stroke="#2F3030" stroke-width="2" stroke-miterlimit="10"/>
<path d="M1934.59 203.457C1739.22 468.319 1522.13 517.319 1441.68 527.825C1283.21 548.466 1149.63 535.148 889.841 480.145C579.816 414.539 539.588 356.014 378.058 368.646C139.397 387.334 -25.8245 506.378 -286.639 719.55C-433.053 839.229 -636.38 1027.08 -867.413 1288.06" stroke="#2F3030" stroke-width="2" stroke-miterlimit="10"/>
<path d="M1934.63 151.703C1749.77 439.282 1532.32 505.308 1454.04 522.446C1293.08 557.677 1152.18 539.119 883.978 488.813C570.479 430.035 550.909 376.141 393.132 382.43C147.279 392.224 -26.6632 517.466 -299.813 727.597C-450.381 843.43 -658.709 1024.78 -883.889 1282.99" stroke="#2F3030" stroke-width="2" stroke-miterlimit="10"/>
<path d="M1934.68 99.9404C1760.32 410.244 1543.2 493.292 1466.39 517.074C1303.86 567.418 1154.69 542.917 878.101 497.488C561.036 445.414 562.503 396.114 408.19 396.22C155.4 396.421 -27.4573 528.854 -313.01 735.672C-467.741 847.73 -681.054 1022.52 -900.372 1277.96" stroke="#2F3030" stroke-width="2" stroke-miterlimit="10"/>
</g>
<defs>
<clipPath id="clip0_5_4">
<rect width="1920" height="755" fill="white"/>
</clipPath>
</defs>
</svg>
