<svg width="247" height="80" viewBox="0 0 247 80" fill="none" xmlns="http://www.w3.org/2000/svg">
<g clip-path="url(#clip0_6_6)">
<g clip-path="url(#clip1_6_6)">
<g clip-path="url(#clip2_6_6)">
<path d="M242 21.11H131C128.239 21.11 126 23.3486 126 26.11V55.11C126 57.8714 128.239 60.11 131 60.11H242C244.761 60.11 247 57.8714 247 55.11V26.11C247 23.3486 244.761 21.11 242 21.11Z" fill="#4DA6E7"/>
<path d="M3.39233 49.11V30.21H5.03933L13.6794 44.952H12.8154L21.3744 30.21H23.0214V49.11H21.1044V33.207H21.5634L13.6794 46.707H12.7344L4.79633 33.207H5.30933V49.11H3.39233ZM29.1795 49.11V30.21H36.2535C37.8555 30.21 39.2325 30.471 40.3845 30.993C41.5365 31.497 42.4185 32.235 43.0305 33.207C43.6605 34.161 43.9755 35.322 43.9755 36.69C43.9755 38.022 43.6605 39.174 43.0305 40.146C42.4185 41.1 41.5365 41.838 40.3845 42.36C39.2325 42.882 37.8555 43.143 36.2535 43.143H30.2865L31.1775 42.198V49.11H29.1795ZM31.1775 42.36L30.2865 41.388H36.1995C38.0895 41.388 39.5205 40.983 40.4925 40.173C41.4825 39.345 41.9775 38.184 41.9775 36.69C41.9775 35.178 41.4825 34.008 40.4925 33.18C39.5205 32.352 38.0895 31.938 36.1995 31.938H30.2865L31.1775 30.993V42.36ZM53.7703 49.272C52.3663 49.272 51.0163 49.047 49.7203 48.597C48.4423 48.129 47.4523 47.535 46.7503 46.815L47.5333 45.276C48.1993 45.924 49.0903 46.473 50.2063 46.923C51.3403 47.355 52.5283 47.571 53.7703 47.571C54.9583 47.571 55.9213 47.427 56.6593 47.139C57.4153 46.833 57.9643 46.428 58.3063 45.924C58.6663 45.42 58.8463 44.862 58.8463 44.25C58.8463 43.512 58.6303 42.918 58.1983 42.468C57.7843 42.018 57.2353 41.667 56.5513 41.415C55.8673 41.145 55.1113 40.911 54.2833 40.713C53.4553 40.515 52.6273 40.308 51.7993 40.092C50.9713 39.858 50.2063 39.552 49.5043 39.174C48.8203 38.796 48.2623 38.301 47.8303 37.689C47.4163 37.059 47.2093 36.24 47.2093 35.232C47.2093 34.296 47.4523 33.441 47.9383 32.667C48.4423 31.875 49.2073 31.245 50.2333 30.777C51.2593 30.291 52.5733 30.048 54.1753 30.048C55.2373 30.048 56.2903 30.201 57.3343 30.507C58.3783 30.795 59.2783 31.2 60.0343 31.722L59.3593 33.315C58.5493 32.775 57.6853 32.379 56.7673 32.127C55.8673 31.875 54.9943 31.749 54.1483 31.749C53.0143 31.749 52.0783 31.902 51.3403 32.208C50.6023 32.514 50.0533 32.928 49.6933 33.45C49.3513 33.954 49.1803 34.53 49.1803 35.178C49.1803 35.916 49.3873 36.51 49.8013 36.96C50.2333 37.41 50.7913 37.761 51.4753 38.013C52.1773 38.265 52.9423 38.49 53.7703 38.688C54.5983 38.886 55.4173 39.102 56.2273 39.336C57.0553 39.57 57.8113 39.876 58.4953 40.254C59.1973 40.614 59.7553 41.1 60.1693 41.712C60.6013 42.324 60.8173 43.125 60.8173 44.115C60.8173 45.033 60.5653 45.888 60.0613 46.68C59.5573 47.454 58.7833 48.084 57.7393 48.57C56.7133 49.038 55.3903 49.272 53.7703 49.272ZM68.579 49.11V31.938H61.937V30.21H77.219V31.938H70.577V49.11H68.579ZM80.4109 49.11V30.21H82.0579L90.6979 44.952H89.8339L98.3929 30.21H100.04V49.11H98.1229V33.207H98.5819L90.6979 46.707H89.7529L81.8149 33.207H82.3279V49.11H80.4109ZM107.98 38.661H117.97V40.362H107.98V38.661ZM108.196 47.382H119.563V49.11H106.198V30.21H119.158V31.938H108.196V47.382ZM139.642 49.38C138.166 49.38 136.807 49.137 135.565 48.651C134.323 48.165 133.243 47.49 132.325 46.626C131.407 45.744 130.696 44.718 130.192 43.548C129.688 42.36 129.436 41.064 129.436 39.66C129.436 38.256 129.688 36.969 130.192 35.799C130.696 34.611 131.407 33.585 132.325 32.721C133.243 31.839 134.323 31.155 135.565 30.669C136.807 30.183 138.157 29.94 139.615 29.94C141.091 29.94 142.441 30.183 143.665 30.669C144.907 31.155 145.987 31.839 146.905 32.721C147.823 33.585 148.534 34.611 149.038 35.799C149.542 36.969 149.794 38.256 149.794 39.66C149.794 41.064 149.542 42.36 149.038 43.548C148.534 44.736 147.823 45.762 146.905 46.626C145.987 47.49 144.907 48.165 143.665 48.651C142.441 49.137 141.1 49.38 139.642 49.38ZM139.615 46.302C140.569 46.302 141.451 46.14 142.261 45.816C143.071 45.492 143.773 45.033 144.367 44.439C144.961 43.827 145.42 43.125 145.744 42.333C146.086 41.523 146.257 40.632 146.257 39.66C146.257 38.688 146.086 37.806 145.744 37.014C145.42 36.204 144.961 35.502 144.367 34.908C143.773 34.296 143.071 33.828 142.261 33.504C141.451 33.18 140.569 33.018 139.615 33.018C138.661 33.018 137.779 33.18 136.969 33.504C136.177 33.828 135.475 34.296 134.863 34.908C134.269 35.502 133.801 36.204 133.459 37.014C133.135 37.806 132.973 38.688 132.973 39.66C132.973 40.614 133.135 41.496 133.459 42.306C133.801 43.116 134.269 43.827 134.863 44.439C135.457 45.033 136.159 45.492 136.969 45.816C137.779 46.14 138.661 46.302 139.615 46.302ZM161.372 34.53C162.524 34.53 163.55 34.755 164.45 35.205C165.368 35.655 166.088 36.348 166.61 37.284C167.132 38.202 167.393 39.39 167.393 40.848V49.11H164.018V41.28C164.018 40.002 163.712 39.048 163.1 38.418C162.506 37.788 161.669 37.473 160.589 37.473C159.797 37.473 159.095 37.635 158.483 37.959C157.871 38.283 157.394 38.769 157.052 39.417C156.728 40.047 156.566 40.848 156.566 41.82V49.11H153.191V34.692H156.404V38.58L155.837 37.392C156.341 36.474 157.07 35.772 158.024 35.286C158.996 34.782 160.112 34.53 161.372 34.53ZM175.832 49.11V33.18H169.568V30.21H185.606V33.18H179.342V49.11H175.832ZM187.573 49.11V34.692H190.786V38.661L190.408 37.5C190.84 36.528 191.515 35.79 192.433 35.286C193.369 34.782 194.53 34.53 195.916 34.53V37.743C195.772 37.707 195.637 37.689 195.511 37.689C195.385 37.671 195.259 37.662 195.133 37.662C193.855 37.662 192.838 38.04 192.082 38.796C191.326 39.534 190.948 40.641 190.948 42.117V49.11H187.573ZM206.634 49.11V46.194L206.445 45.573V40.47C206.445 39.48 206.148 38.715 205.554 38.175C204.96 37.617 204.06 37.338 202.854 37.338C202.044 37.338 201.243 37.464 200.451 37.716C199.677 37.968 199.02 38.319 198.48 38.769L197.157 36.312C197.931 35.718 198.849 35.277 199.911 34.989C200.991 34.683 202.107 34.53 203.259 34.53C205.347 34.53 206.958 35.034 208.092 36.042C209.244 37.032 209.82 38.571 209.82 40.659V49.11H206.634ZM202.098 49.299C201.018 49.299 200.073 49.119 199.263 48.759C198.453 48.381 197.823 47.868 197.373 47.22C196.941 46.554 196.725 45.807 196.725 44.979C196.725 44.169 196.914 43.44 197.292 42.792C197.688 42.144 198.327 41.631 199.209 41.253C200.091 40.875 201.261 40.686 202.719 40.686H206.904V42.927H202.962C201.81 42.927 201.036 43.116 200.64 43.494C200.244 43.854 200.046 44.304 200.046 44.844C200.046 45.456 200.289 45.942 200.775 46.302C201.261 46.662 201.936 46.842 202.8 46.842C203.628 46.842 204.366 46.653 205.014 46.275C205.68 45.897 206.157 45.339 206.445 44.601L207.012 46.626C206.688 47.472 206.103 48.129 205.257 48.597C204.429 49.065 203.376 49.299 202.098 49.299ZM220.793 49.299C219.281 49.299 217.931 48.984 216.743 48.354C215.573 47.706 214.655 46.824 213.989 45.708C213.323 44.592 212.99 43.323 212.99 41.901C212.99 40.461 213.323 39.192 213.989 38.094C214.655 36.978 215.573 36.105 216.743 35.475C217.931 34.845 219.281 34.53 220.793 34.53C222.197 34.53 223.43 34.818 224.492 35.394C225.572 35.952 226.391 36.78 226.949 37.878L224.357 39.39C223.925 38.706 223.394 38.202 222.764 37.878C222.152 37.554 221.486 37.392 220.766 37.392C219.938 37.392 219.191 37.572 218.525 37.932C217.859 38.292 217.337 38.814 216.959 39.498C216.581 40.164 216.392 40.965 216.392 41.901C216.392 42.837 216.581 43.647 216.959 44.331C217.337 44.997 217.859 45.51 218.525 45.87C219.191 46.23 219.938 46.41 220.766 46.41C221.486 46.41 222.152 46.248 222.764 45.924C223.394 45.6 223.925 45.096 224.357 44.412L226.949 45.924C226.391 47.004 225.572 47.841 224.492 48.435C223.43 49.011 222.197 49.299 220.793 49.299ZM232.489 45.897L232.57 41.658L240.103 34.692H244.153L237.754 41.118L235.972 42.603L232.489 45.897ZM229.735 49.11V29.076H233.11V49.11H229.735ZM240.616 49.11L235.351 42.603L237.484 39.903L244.72 49.11H240.616Z" fill="white"/>
</g>
</g>
</g>
<defs>
<clipPath id="clip0_6_6">
<rect width="247" height="39" fill="white" transform="translate(0 21.11)"/>
</clipPath>
<clipPath id="clip1_6_6">
<rect width="247" height="39" fill="white" transform="translate(0 21.11)"/>
</clipPath>
<clipPath id="clip2_6_6">
<rect width="247" height="39" fill="white" transform="translate(0 21.11)"/>
</clipPath>
</defs>
</svg>
