<svg width="247" height="39" viewBox="0 0 247 39" fill="none" xmlns="http://www.w3.org/2000/svg">
<rect x="126" width="121" height="39" rx="5" fill="#23A6F0"/>
<path d="M3.39245 28V9.1H5.03945L13.6795 23.842H12.8155L21.3745 9.1H23.0215V28H21.1045V12.097H21.5635L13.6795 25.597H12.7345L4.79645 12.097H5.30945V28H3.39245ZM29.1796 28V9.1H36.2536C37.8556 9.1 39.2326 9.361 40.3846 9.883C41.5366 10.387 42.4186 11.125 43.0306 12.097C43.6606 13.051 43.9756 14.212 43.9756 15.58C43.9756 16.912 43.6606 18.064 43.0306 19.036C42.4186 19.99 41.5366 20.728 40.3846 21.25C39.2326 21.772 37.8556 22.033 36.2536 22.033H30.2866L31.1776 21.088V28H29.1796ZM31.1776 21.25L30.2866 20.278H36.1996C38.0896 20.278 39.5206 19.873 40.4926 19.063C41.4826 18.235 41.9776 17.074 41.9776 15.58C41.9776 14.068 41.4826 12.898 40.4926 12.07C39.5206 11.242 38.0896 10.828 36.1996 10.828H30.2866L31.1776 9.883V21.25ZM53.7704 28.162C52.3664 28.162 51.0164 27.937 49.7204 27.487C48.4424 27.019 47.4524 26.425 46.7504 25.705L47.5334 24.166C48.1994 24.814 49.0904 25.363 50.2064 25.813C51.3404 26.245 52.5284 26.461 53.7704 26.461C54.9584 26.461 55.9214 26.317 56.6594 26.029C57.4154 25.723 57.9644 25.318 58.3064 24.814C58.6664 24.31 58.8464 23.752 58.8464 23.14C58.8464 22.402 58.6304 21.808 58.1984 21.358C57.7844 20.908 57.2354 20.557 56.5514 20.305C55.8674 20.035 55.1114 19.801 54.2834 19.603C53.4554 19.405 52.6274 19.198 51.7994 18.982C50.9714 18.748 50.2064 18.442 49.5044 18.064C48.8204 17.686 48.2624 17.191 47.8304 16.579C47.4164 15.949 47.2094 15.13 47.2094 14.122C47.2094 13.186 47.4524 12.331 47.9384 11.557C48.4424 10.765 49.2074 10.135 50.2334 9.667C51.2594 9.181 52.5734 8.938 54.1754 8.938C55.2374 8.938 56.2904 9.091 57.3344 9.397C58.3784 9.685 59.2784 10.09 60.0344 10.612L59.3594 12.205C58.5494 11.665 57.6854 11.269 56.7674 11.017C55.8674 10.765 54.9944 10.639 54.1484 10.639C53.0144 10.639 52.0784 10.792 51.3404 11.098C50.6024 11.404 50.0534 11.818 49.6934 12.34C49.3514 12.844 49.1804 13.42 49.1804 14.068C49.1804 14.806 49.3874 15.4 49.8014 15.85C50.2334 16.3 50.7914 16.651 51.4754 16.903C52.1774 17.155 52.9424 17.38 53.7704 17.578C54.5984 17.776 55.4174 17.992 56.2274 18.226C57.0554 18.46 57.8114 18.766 58.4954 19.144C59.1974 19.504 59.7554 19.99 60.1694 20.602C60.6014 21.214 60.8174 22.015 60.8174 23.005C60.8174 23.923 60.5654 24.778 60.0614 25.57C59.5574 26.344 58.7834 26.974 57.7394 27.46C56.7134 27.928 55.3904 28.162 53.7704 28.162ZM68.5791 28V10.828H61.9371V9.1H77.2191V10.828H70.5771V28H68.5791ZM80.411 28V9.1H82.058L90.698 23.842H89.834L98.393 9.1H100.04V28H98.123V12.097H98.582L90.698 25.597H89.753L81.815 12.097H82.328V28H80.411ZM107.98 17.551H117.97V19.252H107.98V17.551ZM108.196 26.272H119.563V28H106.198V9.1H119.158V10.828H108.196V26.272ZM139.642 28.27C138.166 28.27 136.807 28.027 135.565 27.541C134.323 27.055 133.243 26.38 132.325 25.516C131.407 24.634 130.696 23.608 130.192 22.438C129.688 21.25 129.436 19.954 129.436 18.55C129.436 17.146 129.688 15.859 130.192 14.689C130.696 13.501 131.407 12.475 132.325 11.611C133.243 10.729 134.323 10.045 135.565 9.559C136.807 9.073 138.157 8.83 139.615 8.83C141.091 8.83 142.441 9.073 143.665 9.559C144.907 10.045 145.987 10.729 146.905 11.611C147.823 12.475 148.534 13.501 149.038 14.689C149.542 15.859 149.794 17.146 149.794 18.55C149.794 19.954 149.542 21.25 149.038 22.438C148.534 23.626 147.823 24.652 146.905 25.516C145.987 26.38 144.907 27.055 143.665 27.541C142.441 28.027 141.1 28.27 139.642 28.27ZM139.615 25.192C140.569 25.192 141.451 25.03 142.261 24.706C143.071 24.382 143.773 23.923 144.367 23.329C144.961 22.717 145.42 22.015 145.744 21.223C146.086 20.413 146.257 19.522 146.257 18.55C146.257 17.578 146.086 16.696 145.744 15.904C145.42 15.094 144.961 14.392 144.367 13.798C143.773 13.186 143.071 12.718 142.261 12.394C141.451 12.07 140.569 11.908 139.615 11.908C138.661 11.908 137.779 12.07 136.969 12.394C136.177 12.718 135.475 13.186 134.863 13.798C134.269 14.392 133.801 15.094 133.459 15.904C133.135 16.696 132.973 17.578 132.973 18.55C132.973 19.504 133.135 20.386 133.459 21.196C133.801 22.006 134.269 22.717 134.863 23.329C135.457 23.923 136.159 24.382 136.969 24.706C137.779 25.03 138.661 25.192 139.615 25.192ZM161.372 13.42C162.524 13.42 163.55 13.645 164.45 14.095C165.368 14.545 166.088 15.238 166.61 16.174C167.132 17.092 167.393 18.28 167.393 19.738V28H164.018V20.17C164.018 18.892 163.712 17.938 163.1 17.308C162.506 16.678 161.669 16.363 160.589 16.363C159.797 16.363 159.095 16.525 158.483 16.849C157.871 17.173 157.394 17.659 157.052 18.307C156.728 18.937 156.566 19.738 156.566 20.71V28H153.191V13.582H156.404V17.47L155.837 16.282C156.341 15.364 157.07 14.662 158.024 14.176C158.996 13.672 160.112 13.42 161.372 13.42ZM175.832 28V12.07H169.568V9.1H185.606V12.07H179.342V28H175.832ZM187.573 28V13.582H190.786V17.551L190.408 16.39C190.84 15.418 191.515 14.68 192.433 14.176C193.369 13.672 194.53 13.42 195.916 13.42V16.633C195.772 16.597 195.637 16.579 195.511 16.579C195.385 16.561 195.259 16.552 195.133 16.552C193.855 16.552 192.838 16.93 192.082 17.686C191.326 18.424 190.948 19.531 190.948 21.007V28H187.573ZM206.634 28V25.084L206.445 24.463V19.36C206.445 18.37 206.148 17.605 205.554 17.065C204.96 16.507 204.06 16.228 202.854 16.228C202.044 16.228 201.243 16.354 200.451 16.606C199.677 16.858 199.02 17.209 198.48 17.659L197.157 15.202C197.931 14.608 198.849 14.167 199.911 13.879C200.991 13.573 202.107 13.42 203.259 13.42C205.347 13.42 206.958 13.924 208.092 14.932C209.244 15.922 209.82 17.461 209.82 19.549V28H206.634ZM202.098 28.189C201.018 28.189 200.073 28.009 199.263 27.649C198.453 27.271 197.823 26.758 197.373 26.11C196.941 25.444 196.725 24.697 196.725 23.869C196.725 23.059 196.914 22.33 197.292 21.682C197.688 21.034 198.327 20.521 199.209 20.143C200.091 19.765 201.261 19.576 202.719 19.576H206.904V21.817H202.962C201.81 21.817 201.036 22.006 200.64 22.384C200.244 22.744 200.046 23.194 200.046 23.734C200.046 24.346 200.289 24.832 200.775 25.192C201.261 25.552 201.936 25.732 202.8 25.732C203.628 25.732 204.366 25.543 205.014 25.165C205.68 24.787 206.157 24.229 206.445 23.491L207.012 25.516C206.688 26.362 206.103 27.019 205.257 27.487C204.429 27.955 203.376 28.189 202.098 28.189ZM220.793 28.189C219.281 28.189 217.931 27.874 216.743 27.244C215.573 26.596 214.655 25.714 213.989 24.598C213.323 23.482 212.99 22.213 212.99 20.791C212.99 19.351 213.323 18.082 213.989 16.984C214.655 15.868 215.573 14.995 216.743 14.365C217.931 13.735 219.281 13.42 220.793 13.42C222.197 13.42 223.43 13.708 224.492 14.284C225.572 14.842 226.391 15.67 226.949 16.768L224.357 18.28C223.925 17.596 223.394 17.092 222.764 16.768C222.152 16.444 221.486 16.282 220.766 16.282C219.938 16.282 219.191 16.462 218.525 16.822C217.859 17.182 217.337 17.704 216.959 18.388C216.581 19.054 216.392 19.855 216.392 20.791C216.392 21.727 216.581 22.537 216.959 23.221C217.337 23.887 217.859 24.4 218.525 24.76C219.191 25.12 219.938 25.3 220.766 25.3C221.486 25.3 222.152 25.138 222.764 24.814C223.394 24.49 223.925 23.986 224.357 23.302L226.949 24.814C226.391 25.894 225.572 26.731 224.492 27.325C223.43 27.901 222.197 28.189 220.793 28.189ZM232.489 24.787L232.57 20.548L240.103 13.582H244.153L237.754 20.008L235.972 21.493L232.489 24.787ZM229.735 28V7.966H233.11V28H229.735ZM240.616 28L235.351 21.493L237.484 18.793L244.72 28H240.616Z" fill="#222020"/>
</svg>
